<?xml version="1.0" standalone="no"?>
<!DOCTYPE svg PUBLIC "-//W3C//DTD SVG 1.1//EN" "http://www.w3.org/Graphics/SVG/1.1/DTD/svg11.dtd" >
<svg xmlns="http://www.w3.org/2000/svg" xmlns:xlink="http://www.w3.org/1999/xlink" version="1.1">
<metadata></metadata>
<defs>
<font id="new_ciclegordita_italic" horiz-adv-x="1220" >
<font-face units-per-em="2048" ascent="1638" descent="-410" />
<missing-glyph horiz-adv-x="526" />
<glyph horiz-adv-x="0" />
<glyph unicode="&#xd;" horiz-adv-x="526" />
<glyph unicode=" "  horiz-adv-x="526" />
<glyph unicode="&#x09;" horiz-adv-x="526" />
<glyph unicode="&#xa0;" horiz-adv-x="526" />
<glyph unicode="!" horiz-adv-x="360" d="M246 55q-8 -29 -36 -51t-56 -22q-33 0 -47.5 22.5t-6.5 50.5q8 33 34 53.5t59 20.5q35 0 47 -20.5t6 -51.5v-2zM471 1395h123l-324 -1205h-123z" />
<glyph unicode="&#x22;" horiz-adv-x="444" d="M422 1395h143l-22 -154l-148 -199l-37 48zM567 1395h144l-23 -154l-147 -199l-37 48z" />
<glyph unicode="#" horiz-adv-x="1462" d="M291 567h194q27 41 51.5 80t53.5 80q6 12 14 25q6 10 12.5 20t10.5 19h-391l147 139h332q35 53 67.5 105t69.5 106q25 41 52.5 83t51.5 79h146l-236 -373h402q43 66 86 131t84 131q16 25 35.5 55.5t35.5 55.5h146l-236 -373h244l-150 -139h-178q-12 -18 -24.5 -37 t-24.5 -39q-29 -41 -49 -73t-47 -75h379l-154 -139h-313q-31 -49 -63.5 -101.5t-65.5 -103.5q-35 -53 -72 -113.5t-65 -109.5h-150l268 428h-407q-55 -92 -120 -191.5t-122 -193.5q-4 -8 -13 -21.5t-13 -21.5h-148l268 428h-258zM635 567h407q14 23 29.5 51.5t32.5 51.5 q23 35 40 60.5t40 60.5h-406z" />
<glyph unicode="$" horiz-adv-x="954" d="M731 1255q-96 -29 -169 -91t-95 -142q-23 -82 13 -151.5t122 -98.5zM563 129q96 18 171 79.5t97 147.5q23 88 -15 158t-124 96zM928 1485l-23 -84q102 -6 177 -54.5t122 -125.5l-129 -86q-35 53 -85 91t-120 44l-141 -525q70 -18 123 -55t87 -86t44 -110.5t-8 -131.5 q-18 -72 -62.5 -133t-104.5 -110t-133 -83t-149 -46l-30 -117h-136l29 111q-104 12 -181 68.5t-112 142.5l133 88q23 -59 74 -107.5t123 -56.5l137 510q-72 18 -126 54t-86 87t-40 112.5t11 131.5q18 72 61 135t102.5 112.5t132 83t150.5 48.5l25 92h135z" />
<glyph unicode="%" horiz-adv-x="1583" d="M1479 1395h159l-1181 -1393h-156zM494 1008q-10 -43 -7.5 -81t19 -68t45.5 -47t65 -17q35 0 71 17t67.5 47t56.5 68t35 81q25 92 -10 152.5t-105 60.5q-37 0 -75 -16.5t-69.5 -45.5t-56 -67.5t-36.5 -83.5zM356 1008q20 74 62.5 137t97.5 110.5t119.5 74t132.5 26.5 q63 0 113.5 -26.5t80 -74t37 -111t-13.5 -136.5q-18 -72 -60 -135.5t-96.5 -110.5t-119 -75t-127.5 -28q-68 0 -118 28t-81 75t-38 110.5t11 135.5zM1065 354q-23 -88 11 -150.5t106 -62.5q37 0 74.5 16.5t69.5 46t56.5 68.5t36.5 82q25 92 -12 152.5t-111 60.5 q-35 0 -70.5 -16t-67.5 -45t-56.5 -68t-36.5 -84zM930 354q18 74 60 137.5t96.5 110.5t118 73.5t126.5 26.5q66 0 116 -26.5t81 -73.5t38 -110.5t-12 -137.5q-18 -72 -60 -135t-98.5 -110.5t-121 -75t-129.5 -27.5q-63 0 -111.5 27.5t-78 75t-36.5 110.5t11 135z" />
<glyph unicode="&#x26;" horiz-adv-x="1222" d="M496 0q-92 0 -163 31.5t-114 86t-56 125t9 150.5q31 117 137.5 220.5t290.5 174.5q10 4 13 5.5t8 3.5q-2 0 -7 10l2 -2q-2 2 -2 6q-37 55 -56 98t-26.5 77t-4.5 62.5t10 57.5q14 57 52 110.5t92 94.5t121.5 66.5t141.5 25.5q70 0 121 -22.5t82 -61.5t39 -91t-6 -110 q-25 -90 -97.5 -173t-218.5 -161l-20 -12t-19 -10q25 -47 47.5 -90t47.5 -84q20 -37 40.5 -74t38.5 -76q8 6 21 19l-4 -6l6 6q2 4 4 5t4 5t5 7l5 5q10 10 11 15q25 27 51 56.5t55 84.5l117 -23q-53 -92 -111.5 -161.5t-101.5 -118.5q16 -41 24.5 -57.5t18.5 -32.5v2 q4 -4 4 -13q4 -16 8 -23t8 -13q4 -10 11.5 -20.5t13.5 -22.5l-51 -193q-25 35 -53.5 78t-40.5 65q-4 8 -9 11q-8 14 -20 33.5t-27 41.5q-2 2 -2 7q-2 -2 -4 -3.5t0 1.5q-4 -2 -5 -5.5t-5 -5.5q-98 -98 -211.5 -141t-224.5 -41zM1047 1118q18 72 -22 117t-118 45 q-35 0 -72.5 -14.5t-71.5 -38t-59.5 -55t-33.5 -66.5q-10 -39 -1 -74t31 -71l58 -97q2 2 2 1t4 1h-2q4 4 5 3t7 3q59 29 106.5 63t82 67.5t56.5 63t28 52.5zM528 125q86 -2 182.5 45t176.5 121l2 4q-29 49 -55.5 99t-55.5 102q-27 49 -53.5 101t-54.5 101 q-168 -78 -257 -156.5t-110 -152.5q-12 -49 -2 -97t41 -85t79 -59.5t107 -22.5zM899 305l-10 -10q2 -4 6 -8zM668 743q-4 -10 -5 -20t3 -16l10 -7.5t8 2.5q4 0 16.5 10.5t28.5 22.5z" />
<glyph unicode="'" horiz-adv-x="247" d="M434 1384l150 11l-25 -160l-221 -180l-31 43l107 141z" />
<glyph unicode="(" horiz-adv-x="532" d="M723 1278q-51 -47 -100.5 -119t-94.5 -161t-85 -193.5t-70 -216.5q-33 -123 -48.5 -235.5t-15.5 -207t16.5 -165t47.5 -111.5l-113 -129q-43 55 -67.5 143t-29.5 197.5t10 239t52 268.5q37 133 89.5 259t115 234.5t133 196.5t142.5 147z" />
<glyph unicode=")" horiz-adv-x="503" d="M549 1427q41 -59 64.5 -147t28.5 -197.5t-9.5 -235.5t-50.5 -259q-37 -139 -90.5 -268.5t-118 -240t-136 -197.5t-143.5 -142l-47 129q55 41 109.5 111.5t105.5 165t95 207t77 235.5q31 113 47.5 217t19.5 194.5t-8.5 162t-37.5 118.5z" />
<glyph unicode="*" horiz-adv-x="964" d="M739 752h-135l53 196q-47 -35 -93 -71.5t-83 -65.5l-73 94l178 142h-195l37 135h195l-103 139l123 98l102 -139l54 197h135l-53 -197l176 139l73 -96l-178 -139h197l-37 -137h-201q10 -14 20.5 -27.5t20.5 -28.5l66 -86l-121 -94l-104 141z" />
<glyph unicode="+" horiz-adv-x="925" d="M582 236h-136l80 294h-293l37 136h293l78 292h135l-78 -292h295l-37 -136h-294z" />
<glyph unicode="," horiz-adv-x="354" d="M172 180h150l-43 -164l-240 -166l-21 56l117 131z" />
<glyph unicode="-" horiz-adv-x="862" d="M205 530l37 136h723l-37 -136h-723z" />
<glyph unicode="." horiz-adv-x="296" d="M104 180h181l-45 -180h-181z" />
<glyph unicode="/" horiz-adv-x="774" d="M207 0h-148l881 1395h145z" />
<glyph unicode="0" horiz-adv-x="1200" d="M391 694q-31 -121 -28.5 -225t34 -182t89 -123t135.5 -45q80 0 161.5 45t153.5 123t130 182t89 225q33 119 31 222.5t-33 181.5t-88 123t-137 45q-78 0 -160 -45t-154.5 -123t-131 -181.5t-91.5 -222.5zM254 694q39 147 115.5 276.5t173 225.5t206 151.5t216.5 55.5 q106 0 186 -55.5t124 -151.5t49 -225t-34 -277q-39 -147 -113.5 -276t-171 -226.5t-206 -153.5t-215.5 -56t-186.5 56t-125.5 153.5t-51 226.5t33 276z" />
<glyph unicode="1" horiz-adv-x="626" d="M356 1124l402 271h114l-370 -1395h-135l319 1206q-37 -23 -76 -50.5t-75 -51.5q-53 -35 -117 -79t-109 -75z" />
<glyph unicode="2" horiz-adv-x="972" d="M942 135l-35 -135h-841l30 119l742 639q49 41 82.5 91t50.5 109q16 63 7 120t-41 99t-82 65.5t-116 23.5t-134 -29t-134 -80l-72 98q90 66 188.5 107t188.5 41q92 0 165 -35t117 -95.5t58 -141t-10 -173.5q-23 -86 -78 -162.5t-123 -136.5q-106 -92 -218 -189t-220 -189 q-43 -39 -83 -72t-87 -74h645z" />
<glyph unicode="3" horiz-adv-x="882" d="M389 1253q88 74 175 111t190 37q88 0 157.5 -31t114.5 -85t59.5 -126t-8.5 -153q-29 -102 -99.5 -174t-168.5 -119q70 -57 100.5 -151.5t3.5 -188.5q-23 -78 -75 -145.5t-124.5 -119t-159.5 -81t-175 -29.5q-51 0 -101.5 16.5t-94.5 44t-78.5 63.5t-55.5 77l127 94 q14 -31 40 -59.5t58.5 -50t68.5 -35t73 -13.5q59 0 117.5 18.5t107.5 51.5t84 76t49 92q12 45 1 90t-38.5 82t-70.5 63.5t-95 34.5h-133l35 135h64q25 0 45 1t24 1q57 4 111.5 20.5t98.5 46.5t77 69.5t45 89.5q14 53 4 100t-41 83t-78 56.5t-106 20.5q-74 0 -132.5 -27 t-121.5 -84z" />
<glyph unicode="4" horiz-adv-x="968" d="M223 602l680 805l94 -70l-600 -712h379q10 35 17.5 69.5t17.5 69.5l43 160h133l-78 -299h138l-35 -136h-138l-131 -489h-133l131 489h-548z" />
<glyph unicode="5" horiz-adv-x="1032" d="M295 682l237 713h738l-37 -138h-602q-10 -29 -22.5 -58.5t-22.5 -57.5q-10 -29 -19.5 -54.5t-18.5 -50t-20.5 -52.5t-23.5 -60q72 45 150.5 67.5t152.5 22.5q96 0 162.5 -40t102.5 -107.5t40 -160t-25 -196.5t-88 -197.5t-140 -163t-175 -109.5t-188 -40 q-113 0 -197 60.5t-125 160.5l125 98q29 -84 88 -134t141 -50q68 0 134.5 30t123 80t100.5 118.5t64 146.5t20.5 145.5t-21 117.5t-65.5 79t-112 29q-94 0 -190.5 -54.5t-161.5 -144.5h-125z" />
<glyph unicode="6" horiz-adv-x="1036" d="M1069 410q-25 -90 -79 -168t-129 -135.5t-164 -90t-179 -32.5q-86 0 -152.5 31.5t-109.5 88t-57.5 133t6.5 164.5q10 63 28.5 134t34.5 137l13 41q23 88 50 169t62 152q37 74 93.5 139.5t126 116.5t148.5 82t157 33q113 0 198.5 -52.5t136.5 -152.5l-153 -80 q-29 66 -87.5 107t-129.5 41q-55 0 -110.5 -20.5t-105 -55.5t-90 -85t-67.5 -108q-59 -133 -102 -288q72 59 155.5 94t177.5 39q86 0 158 -31t118 -86t63.5 -131t-5.5 -168zM936 424q14 61 4 112.5t-40 90.5t-78 60.5t-109 21.5t-121 -25t-111 -67t-88 -97t-53 -117 q-16 -59 -5 -110t41 -91t77 -62.5t106 -22.5q61 0 120.5 23.5t110 62.5t88 91t54.5 112z" />
<glyph unicode="7" horiz-adv-x="907" d="M977 1257h-578l37 138h799l-1024 -1395h-156z" />
<glyph unicode="8" horiz-adv-x="940" d="M154 399q14 53 42.5 104.5t67.5 97.5t84 84t92 67q-57 47 -77.5 120.5t6.5 167.5q20 74 67 140.5t110.5 116t138.5 78t151 28.5q80 0 140 -28.5t98 -78t50.5 -116t-8.5 -140.5q-25 -92 -84 -166.5t-143 -121.5q72 -55 98.5 -147.5t-2.5 -205.5q-23 -86 -76 -161.5 t-124.5 -133t-156.5 -90t-173 -32.5q-86 0 -151.5 32.5t-106.5 90t-53.5 133t10.5 161.5zM504 1040q-12 -47 -5 -88t31.5 -71.5t62.5 -48t85 -17.5q49 0 97 17.5t88 48t71 71.5t43 88t4 88t-31.5 72t-62.5 48.5t-88 17.5q-47 0 -95.5 -17.5t-88.5 -48.5t-69.5 -72t-41.5 -88 zM291 399q-16 -55 -7 -106t36.5 -90t71.5 -61.5t100 -22.5q59 0 116.5 22.5t106.5 61.5t84 90t51 106q14 57 6 107.5t-35.5 89.5t-74 61.5t-105.5 22.5q-55 0 -111.5 -22.5t-104.5 -61.5t-84 -89.5t-50 -107.5z" />
<glyph unicode="9" horiz-adv-x="1001" d="M322 975q25 88 79 166t127.5 136t160.5 93t177 35q88 0 154.5 -34t110 -92t58.5 -135t-1 -163q-12 -63 -31.5 -136t-36.5 -138l-14 -52q-23 -80 -47.5 -154.5t-57.5 -146.5q-37 -82 -97 -149.5t-134 -116.5t-156 -75.5t-163 -26.5q-100 0 -181.5 53t-128.5 139l148 98 q31 -72 87 -111.5t126 -39.5q59 0 115.5 20.5t106.5 55.5t91 83t68 103v-2q29 68 52 141.5t46 149.5q-74 -55 -165 -91t-183 -36q-86 0 -153.5 31.5t-110.5 87t-58.5 131t6.5 162.5zM451 965q-12 -59 -1 -109.5t39.5 -89.5t74.5 -60.5t106 -21.5q61 0 122.5 22.5t112.5 62.5 t90 94.5t56 115.5q14 57 3.5 109.5t-41 92.5t-77.5 62.5t-105 22.5q-63 0 -124.5 -24.5t-112.5 -66.5t-89 -96.5t-54 -113.5z" />
<glyph unicode=":" horiz-adv-x="372" d="M141 180h181l-46 -180h-180zM367 1024h180l-47 -180h-181z" />
<glyph unicode=";" horiz-adv-x="346" d="M367 1024h176l-47 -180h-177zM152 180h149l-41 -164l-244 -163l-16 53l115 131z" />
<glyph unicode="&#x3c;" horiz-adv-x="675" d="M807 1024l76 -96l-531 -420q35 -47 71 -95l75 -100q39 -53 82 -109.5t79 -105.5l-124 -100l-375 510z" />
<glyph unicode="=" horiz-adv-x="901" d="M362 905h703l-39 -141h-702zM262 528h703l-39 -139h-703z" />
<glyph unicode="&#x3e;" horiz-adv-x="688" d="M788 508l-649 -510l-69 100l526 410q-35 47 -73 97t-72 102q-16 23 -38 52t-43.5 60t-42 58.5t-34.5 50.5l123 96z" />
<glyph unicode="?" horiz-adv-x="839" d="M352 0l-14 641l33 117h213q51 2 99 21.5t90 53t71.5 77.5t44.5 98q14 53 8 100t-30.5 83t-63.5 56.5t-90 20.5q-68 0 -138.5 -44t-132.5 -116l-73 98q80 90 179 143.5t202 53.5q80 0 140 -32t97 -85t47 -124.5t-12 -153.5q-20 -78 -67.5 -147.5t-112 -123t-141 -84 t-154.5 -30.5h-68q0 -55 3 -110.5t5 -115.5q4 -98 6.5 -203.5t6.5 -193.5h-148zM340 -160q10 37 39 58.5t59 21.5q37 0 53.5 -21.5t6.5 -58.5q-10 -35 -38 -59.5t-65 -24.5q-31 0 -48 24.5t-7 59.5z" />
<glyph unicode="@" horiz-adv-x="1636" d="M930 -180q-94 -23 -187 -23q-145 0 -257.5 55.5t-183.5 150.5t-91.5 222t18.5 273q39 147 129.5 275t211 223.5t263 150.5t287.5 55t254 -51t174.5 -138t84 -203t-16.5 -247q-25 -92 -65 -169t-78 -134q-45 -68 -97 -123q-43 -47 -96 -73.5t-106 -26.5q-39 0 -67 14.5 t-47.5 37t-31.5 50t-20 56.5q-20 -6 -50 -13.5t-63 -14.5t-65.5 -13.5t-57.5 -8.5q-39 -4 -84 8.5t-80 44t-50 89t9 145.5q8 29 17.5 54.5t23.5 54.5v-2q45 96 104.5 160.5t123 102.5t128 54t123.5 16q35 0 83.5 -2t95.5 -6q53 -4 110 -8q-66 -133 -106.5 -217t-64 -134 t-33 -71.5t-11.5 -27.5l-2 -7q-35 -94 -14.5 -157.5t67.5 -63.5q16 0 36 11.5t40 27.5q2 2 23.5 28.5t50.5 71.5t58.5 106.5t49.5 135.5q27 100 13.5 191.5t-62.5 161t-134 110.5t-204 41q-117 0 -230.5 -44t-210.5 -121t-170 -180.5t-103 -219.5q-31 -117 -14.5 -218.5 t72.5 -178t146.5 -120.5t206.5 -44q33 0 79 6t112 26zM797 293q43 -2 92 5t80 17q47 104 93 201.5t97 202.5h-57.5t-35.5 1t-20.5 1h-13.5q-76 2 -145.5 -40t-124.5 -161q-14 -27 -21.5 -45t-11.5 -35q-10 -41 -8 -68.5t12 -45t28 -25.5t36 -8z" />
<glyph unicode="A" d="M965 702q-4 59 -10.5 112.5t-12.5 107.5v-2q-10 66 -13 114.5t-11 122.5q-29 -47 -58 -90t-55 -88q-47 -72 -88 -135.5t-90 -141.5h338zM934 1415h108l144 -1415h-144l-63 563h-438q-86 -135 -180.5 -281.5t-180.5 -281.5h-143z" />
<glyph unicode="B" horiz-adv-x="1048" d="M516 0h-426l377 1415h461q80 -2 142.5 -31.5t101 -79t52 -114t-6.5 -135.5q-25 -96 -90.5 -174t-153.5 -129q72 -55 100.5 -145.5t1.5 -192.5q-23 -84 -74 -158t-121.5 -129t-155.5 -88t-173 -35h2zM567 1280l-123 -459h324q53 2 103.5 19.5t92.5 48.5t72.5 74t42.5 92 q12 43 3 82t-33.5 69.5t-65.5 50t-92 23.5h-324zM586 139q59 2 115.5 25.5t103.5 60.5t82 85t49 104q14 51 5 98t-36.5 84t-72 59.5t-101.5 26.5h-323l-146 -543h324z" />
<glyph unicode="C" horiz-adv-x="1208" d="M1350 1112q-57 82 -138.5 127t-181.5 45q-102 0 -206.5 -45t-194.5 -123t-159 -183.5t-101 -225.5q-31 -119 -22 -224.5t55.5 -185.5t127 -127t189.5 -47q100 0 202.5 45t204.5 125l70 -94q-123 -100 -255 -158.5t-261 -58.5q-127 0 -228.5 57t-164 155.5t-81 230.5 t22.5 282q39 143 124 273t199 228.5t247 156.5t268 58q129 0 233.5 -58t169.5 -159z" />
<glyph unicode="D" horiz-adv-x="1177" d="M535 1276l-304 -1137h96.5t96.5 2q51 0 102.5 1t100.5 1q76 2 152.5 47.5t146 122t125 179t86.5 219.5t30.5 219t-29 179t-83 121t-129.5 46h-391zM434 1415h531q104 -2 180 -57t118 -150.5t47 -223.5t-34 -273t-111.5 -273.5t-165 -223.5t-198 -152.5t-209.5 -61.5h-535 z" />
<glyph unicode="E" horiz-adv-x="993" d="M989 682h-600l-145 -543h700l-35 -139h-837l377 1415h837l-37 -135h-700l-123 -459h600z" />
<glyph unicode="F" horiz-adv-x="997" d="M995 682h-598l-88 -328q-23 -86 -46 -178t-46 -176h-137l377 1415h837l-37 -133h-700l-123 -461h598z" />
<glyph unicode="G" horiz-adv-x="1236" d="M1178 178q-117 -92 -245 -144t-257 -52q-133 0 -236.5 56t-165 154.5t-78 229.5t24.5 278q39 150 126 281t202 229.5t248 155.5t266 57q129 0 232.5 -57t172.5 -160l-120 -96q-57 82 -140.5 127t-183.5 45q-104 0 -209.5 -45t-197 -124t-160 -184.5t-101.5 -228.5 q-33 -121 -20.5 -227t61.5 -185t130 -125t186 -46q90 0 179 32.5t167 92.5l94 348h-375l35 135h514l-141 -528z" />
<glyph unicode="H" horiz-adv-x="1142" d="M401 682l-88 -328q-23 -86 -46 -178t-46 -176h-139l377 1415h139l-160 -594h695l159 594h135l-376 -1415h-136l181 682h-695z" />
<glyph unicode="I" horiz-adv-x="282" d="M213 0h-139l377 1415h139z" />
<glyph unicode="J" horiz-adv-x="624" d="M606 358q-20 -78 -60 -145.5t-92.5 -119.5t-111.5 -81.5t-117 -29.5q-53 0 -96 31.5t-72 78.5l117 96q18 -29 40 -48t48 -19q29 0 59.5 17.5t58.5 48t51.5 73.5t37.5 94l285 1061h137z" />
<glyph unicode="K" horiz-adv-x="1193" d="M588 1415l-187 -692q195 174 390.5 346t390.5 346h182l-694 -618q78 -133 157.5 -270.5t163.5 -276.5q33 -57 73 -127t73 -123h-176l-414 690q-16 -16 -35.5 -33.5t-38.5 -33.5q-33 -29 -62.5 -55.5t-66.5 -57.5l-65 -246q-16 -63 -34 -134t-34 -130h-139l377 1415h139z " />
<glyph unicode="L" horiz-adv-x="927" d="M242 139h665l-35 -139h-800l377 1415h135z" />
<glyph unicode="M" horiz-adv-x="1275" d="M1417 1415h129l-379 -1415h-139l299 1124q-135 -154 -276.5 -321.5t-270.5 -321.5h-86l-207 641q-35 -129 -69.5 -264t-69.5 -266l-158 -592h-137l377 1415h125l240 -731z" />
<glyph unicode="N" horiz-adv-x="1099" d="M580 1415l360 -1116l299 1116h139l-377 -1415h-127l-362 1122q-35 -129 -69.5 -263t-69.5 -265l-158 -594h-137l377 1415h125z" />
<glyph unicode="O" horiz-adv-x="1413" d="M1337 1130q-47 74 -125.5 113t-179.5 39q-106 0 -210.5 -45t-193.5 -123t-155.5 -182.5t-99.5 -224.5q-33 -123 -23 -229.5t57.5 -185.5t128 -124t187.5 -45q109 0 214 45t194.5 124t157 185.5t100.5 229.5q35 127 20 236t-72 187zM1184 180q-115 -96 -242 -147t-258 -51 t-233.5 55t-165 152.5t-79 230.5t24.5 287q39 150 125 279.5t200 227t247 153.5t268 56q137 0 240.5 -56t163 -152.5t73 -227.5t-25.5 -280q-43 -160 -130 -294.5t-208 -232.5z" />
<glyph unicode="P" horiz-adv-x="983" d="M403 680l-86 -326q-23 -86 -46 -178t-46 -176h-135l377 1415h418q86 0 152.5 -28.5t108.5 -77.5t56.5 -115t-6.5 -139q-20 -78 -70.5 -146.5t-120 -120t-151.5 -80t-168 -28.5h-283zM565 1280l-123 -461h283q55 0 109.5 17.5t99.5 49.5t79 75t46 94q12 45 1 86t-40 71.5 t-74 49t-102 18.5h-279z" />
<glyph unicode="Q" horiz-adv-x="1361" d="M1280 1151q-45 68 -113.5 106.5t-162.5 38.5q-96 0 -192.5 -42t-180.5 -115.5t-147.5 -173t-94.5 -211.5q-29 -106 -21.5 -200.5t44.5 -166.5t101.5 -118t150.5 -56q-16 29 -68 27l33 125q80 2 129 -40t55 -102q84 20 165 68.5t149.5 118t119.5 157.5t78 187 q31 117 19.5 219t-64.5 178zM1141 268q-80 -68 -169 -110.5t-184 -63.5q-2 -41 6.5 -67.5t26.5 -26.5q16 0 33.5 18.5t38.5 42.5l78 -88q-51 -47 -96.5 -76.5t-90.5 -29.5q-33 0 -58.5 17.5t-42.5 47t-24.5 69.5t-5.5 83q-115 8 -204 62.5t-143 143.5t-68.5 207.5 t22.5 256.5q39 143 120 265t187.5 212t228.5 141t242 51q123 0 218.5 -51t152.5 -142t72.5 -213t-21.5 -263q-39 -145 -123.5 -270.5t-195.5 -215.5z" />
<glyph unicode="R" horiz-adv-x="970" d="M377 639q-43 -162 -85 -319.5t-85 -319.5h-137l376 1415h418q86 0 153.5 -27.5t110.5 -76.5t57.5 -116t-5.5 -142q-20 -78 -71.5 -144.5t-120 -118t-151.5 -80t-169 -28.5h-136q39 -63 80 -128l82 -130q61 -100 130 -215t128 -209h-178zM549 1282l-123 -461h279 q55 0 109 17.5t100.5 49.5t80 74t45.5 91q12 45 1 87t-40.5 73.5t-74.5 50t-103 18.5h-274z" />
<glyph unicode="S" horiz-adv-x="993" d="M250 289q31 -78 95.5 -123t160.5 -45q57 0 114.5 18.5t105.5 50t84 75.5t50 95q12 47 1 91.5t-39.5 81t-71.5 62.5t-97 36q-84 12 -149.5 48t-107.5 89t-56 121.5t6 142.5q23 84 76 154.5t127 123t163 82t181 29.5q123 0 208 -46t138 -132l-135 -90q-35 63 -97.5 99 t-148.5 36q-59 0 -118.5 -19.5t-110.5 -53t-88 -78.5t-52 -97q-14 -51 -4.5 -98t38 -85t74.5 -61.5t108 -29.5q84 -10 148.5 -47t104 -90.5t52 -121t-8.5 -140.5q-23 -80 -75 -151t-124.5 -123t-159.5 -81.5t-177 -29.5q-131 0 -220 59t-130 158z" />
<glyph unicode="T" horiz-adv-x="1177" d="M991 1280l-168 -625q-43 -162 -87 -328.5t-85 -326.5h-137l340 1280h-446l36 135h1026l-36 -135h-443z" />
<glyph unicode="U" horiz-adv-x="1224" d="M311 369q-4 -47 17.5 -91.5t65.5 -79t105.5 -55t137.5 -20.5q72 0 142.5 20.5t131 55t105.5 79t67 91.5l281 1046h139l-282 -1048q-25 -80 -86.5 -150t-146.5 -122t-186.5 -82.5t-203.5 -30.5q-109 0 -196 30.5t-145 82.5t-84 122t-9 150l282 1048h146z" />
<glyph unicode="V" horiz-adv-x="1308" d="M438 1415h144l123 -1179q80 127 158.5 246.5t158.5 248.5q111 172 221.5 345t216.5 339h146l-899 -1415h-127z" />
<glyph unicode="W" horiz-adv-x="1873" d="M1237 0h-129l-57 520q-41 -66 -83 -130t-83 -130q-39 -61 -83 -131t-81 -129h-127l-145 1415h145l123 -1184q35 55 72.5 116t72.5 116l168 266q-8 80 -15 165t-18 167q-8 86 -16 179t-14 175h143l57 -559q8 -80 16.5 -154.5t16.5 -150.5q8 -88 15.5 -157.5t17.5 -162.5 q72 115 143.5 228.5t147.5 230.5q113 180 231.5 364.5t231.5 360.5h147z" />
<glyph unicode="X" horiz-adv-x="1107" d="M434 1415h158l184 -563q57 66 114.5 134.5t117.5 133.5q63 72 128.5 147.5t127.5 147.5h157l-602 -706q29 -84 54.5 -169t52.5 -173q29 -88 59.5 -184.5t58.5 -182.5h-157l-195 586q-66 -82 -134.5 -162t-139.5 -164q-53 -63 -111.5 -130t-109.5 -130h-158l612 723z" />
<glyph unicode="Y" horiz-adv-x="1394" d="M1714 1415l-794 -782l-82 -307q-23 -80 -43.5 -165t-40.5 -161h-142l166 633q-25 53 -51.5 108.5t-52.5 114.5q-31 66 -66 139.5t-70.5 146t-69.5 143.5t-62 130h182l297 -645q45 45 86 87t86 87q117 117 238.5 236.5t238.5 234.5h180z" />
<glyph unicode="Z" horiz-adv-x="1122" d="M315 139h701l-35 -139h-954l1136 1276h-714l38 139h963z" />
<glyph unicode="[" horiz-adv-x="430" d="M356 135h35l-33 -135q-27 0 -55.5 8t-50 23.5t-32.5 38t-5 49.5l125 469q8 27 -5 43t-36 16h-68l37 135h68q23 0 45 18.5t29 41.5l120 450q20 47 78 75t121 28l-37 -140q-14 0 -24.5 -3t-12.5 1l-116 -440q-20 -33 -45 -54.5t-62 -27.5l-8 -31q29 -8 45 -28.5t18 -48.5z " />
<glyph unicode="\" horiz-adv-x="759" d="M430 1395h145l140 -1395h-148z" />
<glyph unicode="]" horiz-adv-x="374" d="M236 621q33 70 98 79q2 6 5 14.5t7 18.5q-29 10 -45 30.5t-14 49.5l119 442h-37l37 140q72 0 109.5 -30t33.5 -73v-12l-117 -438q-6 -23 3 -41.5t34 -18.5h68l-37 -135h-68q-25 0 -43 -16.5t-27 -42.5l-124 -469q-6 -27 -28 -48.5t-51.5 -37t-62.5 -24.5t-61 -9l33 135 q31 0 36 2z" />
<glyph unicode="^" horiz-adv-x="1128" d="M928 1407l372 -512l-124 -98l-302 415q-63 -49 -125.5 -98t-127.5 -100q-68 -53 -139.5 -109.5t-137.5 -107.5l-70 100z" />
<glyph unicode="_" horiz-adv-x="1050" d="M68 0l32 135h871l-33 -135h-870z" />
<glyph unicode="`" horiz-adv-x="417" d="M332 1294h223l107 -223h-103z" />
<glyph unicode="a" horiz-adv-x="835" d="M584 0l12 49q-55 -33 -110.5 -50t-114.5 -17q-70 0 -124 25.5t-89 68.5t-46.5 101.5t7.5 123.5q18 68 60 126t100.5 102t126 70t137.5 26h207l10 32q27 98 -3 169t-108 75q-41 0 -68.5 -5t-58.5 -15q-6 -2 -10 -2t-8 -2t-11.5 -3.5t-17.5 -5.5q-8 -4 -24 -4v123q4 2 15 6 t15 6q53 16 96.5 26.5t110.5 10.5q63 -2 110.5 -30.5t75 -77.5t36 -112.5t-8.5 -135.5l-4 -23q-49 -178 -88 -321q-16 -61 -32.5 -119.5t-30 -106t-21.5 -78t-8 -32.5h-133zM504 487q-41 0 -81 -15t-75 -40.5t-59.5 -59.5t-34.5 -71q-10 -39 -3 -71.5t28.5 -57.5t54.5 -39 t74 -14q43 0 83.5 14t75.5 39t60.5 58.5t36.5 72.5l51 184h-211z" />
<glyph unicode="b" horiz-adv-x="1071" d="M285 178q23 -12 87 -34.5t160 -26.5q72 2 145 33.5t136.5 85t110.5 124t69 150.5q20 78 11 148.5t-43.5 124t-91 85t-128.5 31.5q-41 0 -89 -10t-91 -23q-51 -14 -100 -30zM240 0h-136l373 1395h137l-110 -410q121 51 274 51q102 0 180 -42t125 -114.5t60.5 -168 t-15.5 -201.5q-29 -109 -92 -204t-149 -166.5t-187.5 -114.5t-203.5 -45q-78 4 -139.5 17t-108.5 40z" />
<glyph unicode="c" horiz-adv-x="978" d="M997 758q-39 63 -99 102t-138 39q-74 0 -146.5 -30.5t-135 -84t-109.5 -124t-68 -152.5q-23 -80 -13.5 -150.5t43.5 -124t90 -84t130 -30.5q72 0 150.5 35.5t152.5 101.5l76 -96q-100 -82 -206 -130t-210 -48q-100 0 -178 42t-125 113.5t-60.5 166.5t15.5 204t93.5 205 t150.5 167.5t186 113.5t201 42q106 0 189 -50t136 -130z" />
<glyph unicode="d" horiz-adv-x="1030" d="M1004 836q-31 16 -98.5 38.5t-147.5 22.5q-76 -2 -149.5 -34t-137 -84t-111 -120.5t-67.5 -146.5q-20 -80 -11 -150.5t44.5 -125t93 -87t133.5 -34.5q47 0 96 10t90 22q47 14 88 35zM788 37q-59 -25 -129.5 -39t-146.5 -18q-102 2 -180 45t-126 114.5t-61.5 167.5 t15.5 205t93 203t150 164.5t187.5 112.5t204.5 42q82 0 141 -11t106 -42l111 414h137l-372 -1395h-138z" />
<glyph unicode="e" horiz-adv-x="933" d="M512 119q37 0 81 9t88 22.5t84 32t71 36.5l20 -129q-72 -43 -163 -69.5t-169 -36.5q-10 -2 -27.5 -2h-25.5q-86 0 -152.5 37.5t-107.5 104t-53.5 157t10.5 194.5l8 35q29 109 87.5 205t134 167.5t161.5 113.5t172 42t151.5 -35.5t102.5 -101t44 -157t-21 -201.5l-21 -76 h-680q-10 -72 -1 -134.5t36 -110.5t70 -75.5t100 -27.5zM887 602q6 63 -5.5 117.5t-37 94.5t-63.5 62.5t-87 22.5t-100 -21.5t-97 -60.5t-86 -93t-67 -122h543z" />
<glyph unicode="f" horiz-adv-x="671" d="M932 1255q-37 10 -56.5 11.5t-31.5 1.5q-37 -2 -74 -21.5t-68.5 -51.5t-57.5 -76t-38 -93l-6 -25h254l-37 -137h-254l-229 -864h-133q45 164 86 322q18 68 36.5 140.5t38 143t37 137t33.5 121.5h-145l37 137h143l12 48q23 72 66 136t97 112.5t116.5 77t122.5 28.5 q29 0 55.5 -1t73.5 -7z" />
<glyph unicode="g" horiz-adv-x="1128" d="M465 276h9t15 3q10 2 23.5 3t30.5 1q86 0 155.5 -26t114.5 -71t61.5 -105.5t-2.5 -129.5q-18 -70 -67 -132.5t-118 -108.5t-152.5 -72.5t-169.5 -26.5q-84 0 -153 26.5t-113 72.5t-61.5 108.5t1.5 132.5q23 86 96.5 160.5t171.5 117.5q-2 18 1 38t9 42q8 27 21.5 52.5 t30.5 44.5q-102 102 -58 268q20 74 69.5 140.5t119 115.5t152.5 77.5t169 28.5q49 0 83 -6t63 -16h391l-166 -135h-70q20 -41 26.5 -94.5t-9.5 -110.5q-20 -76 -70.5 -141.5t-120 -113.5t-151.5 -76t-168 -28q-33 0 -55.5 4.5t-43.5 8.5q-16 4 -30.5 6t-24.5 2 q-14 0 -27.5 -5t-17.5 -18q-6 -25 6.5 -31t28.5 -6zM172 -49q-10 -41 3 -79t44 -66.5t78 -45t102 -16.5q59 0 116.5 16.5t104 45t79 66.5t42.5 79q10 39 -2 77t-42.5 65.5t-79 45t-107.5 17.5q-55 0 -111.5 -17.5t-102.5 -45t-80 -65.5t-44 -77zM446 674q-12 -47 -1.5 -88 t40 -72t75.5 -49.5t104 -18.5q59 0 115.5 18.5t102.5 49.5t79.5 72t46.5 88q12 49 1.5 91t-40 72.5t-76.5 48t-107 17.5q-57 0 -112.5 -17.5t-101.5 -48t-80 -72.5t-46 -91z" />
<glyph unicode="h" horiz-adv-x="931" d="M584 1399l-125 -461q63 51 127.5 75.5t142.5 24.5q74 0 129 -29.5t89 -82t43 -121t-9 -148.5l-170 -651h-135l176 651q10 51 3 96.5t-30.5 78t-59.5 52t-83 19.5q-41 0 -83 -19.5t-81 -50t-72.5 -70.5t-54.5 -81q-18 -66 -40.5 -154t-47.5 -182l-92 -346h-135l373 1399 h135z" />
<glyph unicode="i" horiz-adv-x="348" d="M373 1024h133l-270 -1024h-134zM428 1286q10 35 40 57.5t64 22.5q33 0 53.5 -22.5t10.5 -57.5q-10 -31 -42 -55.5t-65 -24.5q-35 0 -53 24.5t-8 55.5z" />
<glyph unicode="j" horiz-adv-x="724" d="M702 1278q10 35 39 56.5t64 21.5q29 0 48 -21.5t9 -56.5t-40.5 -57.5t-59.5 -22.5q-35 0 -52.5 22.5t-7.5 57.5zM29 -242q27 -4 49 -6q18 -2 34.5 -3t20.5 -1q37 2 75 21.5t69.5 52.5t57 75t38.5 89l278 1040h135l-284 -1059q-25 -72 -67 -135t-95 -110.5t-116.5 -76 t-127.5 -30.5q-16 0 -34.5 1t-36.5 3q-6 2 -14.5 3t-33.5 1z" />
<glyph unicode="k" horiz-adv-x="901" d="M434 731q43 29 89 60.5t89 60.5l246 172h209l-426 -289q25 -86 52.5 -177t56.5 -177q29 -94 59.5 -194.5t58.5 -186.5h-157l-195 641q-31 -23 -62.5 -43t-66.5 -43l-72 -268q-18 -72 -37.5 -146.5t-35.5 -140.5h-138l373 1395h135z" />
<glyph unicode="l" horiz-adv-x="331" d="M516 1538h135l-409 -1538h-136z" />
<glyph unicode="m" horiz-adv-x="1513" d="M459 934q63 53 127.5 76.5t136.5 23.5q98 0 161.5 -49t92.5 -129q78 94 173 138t173 44q72 0 127 -29.5t89 -80.5t44 -121t-8 -150l-172 -653h-137l176 653q12 49 5 94.5t-28.5 78t-57.5 52t-83 19.5q-43 0 -86 -18.5t-82 -49t-70.5 -69.5t-52.5 -80l-182 -680h-135 l174 649q25 104 -22.5 174t-145.5 70q-41 0 -82 -18.5t-80 -49t-71.5 -69.5t-53.5 -80q-8 -31 -18.5 -73t-22.5 -88t-24.5 -93t-22.5 -84l-90 -342h-137l239 903l31 121h137z" />
<glyph unicode="n" horiz-adv-x="886" d="M446 938q127 102 271 102q72 0 127 -29.5t89 -81.5t44 -122t-8 -150l-170 -657h-135l174 657q12 51 7 96.5t-25.5 78t-54.5 52t-79 19.5q-41 0 -86 -18.5t-87 -48t-78 -69.5t-56 -83q-8 -31 -18.5 -73t-22.5 -88t-24.5 -93t-22.5 -84l-92 -346h-138l271 1024h137z" />
<glyph unicode="o" horiz-adv-x="1050" d="M301 506q-23 -80 -14.5 -150.5t41 -124t88 -84t127.5 -30.5q70 0 140.5 30.5t130.5 84t105.5 124t67.5 150.5q20 82 13 153.5t-39.5 125t-86 84t-122.5 30.5q-72 0 -143.5 -30.5t-133 -84t-108 -125t-66.5 -153.5zM164 506q29 111 93.5 207t148 167.5t183 113.5t199.5 42 q98 0 174 -42t122 -113.5t57.5 -168t-17.5 -206.5q-29 -109 -92 -204t-147 -167t-182.5 -113.5t-196.5 -41.5q-100 0 -177 41.5t-123 113.5t-58.5 167t16.5 204z" />
<glyph unicode="p" horiz-adv-x="1036" d="M250 180q27 -14 95.5 -36.5t148.5 -26.5q76 2 148.5 33.5t135 85t108.5 125t68 151.5q20 80 12 149.5t-41.5 122t-91 83t-131.5 30.5q-41 0 -90 -11.5t-90 -23.5q-49 -14 -98 -33zM465 979q59 23 132 40t142 17q100 -2 179 -45t126.5 -113.5t60.5 -165t-15 -200.5 q-29 -111 -93.5 -207t-150.5 -167.5t-186.5 -113.5t-202.5 -42q-74 0 -136.5 14t-107.5 41l-111 -416h-131l373 1403h131z" />
<glyph unicode="q" horiz-adv-x="1054" d="M1061 1024h135l-375 -1403h-135l113 420q-123 -57 -283 -57q-100 2 -178 45t-125 113.5t-61.5 165.5t14.5 202q29 109 94.5 204t151.5 166.5t186 113.5t201 42q162 0 252 -51zM1012 836q-23 12 -89.5 38.5t-160.5 26.5q-74 0 -146.5 -30.5t-136 -84t-112 -125 t-68.5 -151.5q-23 -80 -12.5 -150.5t45.5 -123t92 -83t129 -32.5q39 0 88 9t92 22q51 12 103 30z" />
<glyph unicode="r" horiz-adv-x="585" d="M772 874q-63 23 -82 23q-41 0 -86 -20.5t-87 -53t-76.5 -70.5t-55.5 -75q-16 -66 -38.5 -154t-49.5 -182l-90 -342h-137l270 1024h137l-22 -90q59 49 126.5 75.5t139.5 26.5q12 0 49 -5t59 -13z" />
<glyph unicode="s" horiz-adv-x="854" d="M883 803q-35 45 -93.5 69.5t-123.5 24.5q-86 0 -156 -38t-86 -99q-16 -59 31 -110.5t139 -67.5q66 -12 117 -42t83.5 -72t44 -94t-2.5 -108q-16 -61 -57.5 -113.5t-98.5 -90t-126 -58t-138 -20.5q-92 0 -176 41t-127 118l125 78q33 -43 88 -72.5t120 -29.5q45 0 87 11 t76 30.5t57.5 46t31.5 59.5q14 57 -37 110.5t-126 76.5q-66 10 -117 40.5t-85 72.5t-47.5 92.5t1.5 103.5q16 61 58 111.5t99.5 86t126 55t140.5 19.5q98 0 178 -42t125 -109z" />
<glyph unicode="t" horiz-adv-x="696" d="M733 1395l-102 -385h262l-37 -138h-262l-232 -872h-133q45 168 86 326q18 68 37 140.5t38.5 144t36.5 139t34 122.5h-148l37 138h144l102 385h137z" />
<glyph unicode="u" horiz-adv-x="921" d="M694 84q-59 -47 -127.5 -74.5t-140.5 -27.5q-74 0 -128 29.5t-88 81.5t-42 123t10 151l170 657h133l-172 -657q-12 -49 -6 -94.5t25.5 -79t54.5 -53t82 -19.5q43 0 87 18.5t84 49t73.5 70.5t54.5 81l182 684h135l-272 -1024h-133z" />
<glyph unicode="v" horiz-adv-x="1024" d="M293 1024h141l117 -809q98 145 196.5 291.5t196.5 292.5q35 53 77 113.5t75 111.5h147l-688 -1024h-121z" />
<glyph unicode="w" horiz-adv-x="1443" d="M950 0l-127 6l-43 328q-45 -68 -93 -136.5t-95 -136.5q-10 -14 -21.5 -30.5t-21.5 -30.5l-119 6l-141 1018h143l113 -805q20 29 42.5 59.5t41.5 59.5q33 47 63.5 93t61.5 93q-8 63 -17.5 134t-19.5 137q-8 53 -16.5 117.5t-14.5 111.5h154l110 -807q131 195 271.5 404.5 t269.5 402.5h147z" />
<glyph unicode="x" horiz-adv-x="909" d="M305 1024h168l135 -373q53 63 108.5 121.5t112.5 122.5q29 31 59 65.5t58 63.5h168l-452 -508q16 -47 33.5 -98t33.5 -101q27 -78 57.5 -161.5t55.5 -155.5h-164l-146 393q-88 -100 -173 -197.5t-171 -195.5h-163l460 530z" />
<glyph unicode="y" horiz-adv-x="980" d="M-4 -240q49 -16 84 -16q80 0 172 83t203 273q-16 113 -35 225.5t-35 227.5q-16 117 -33.5 243t-34.5 240h142l104 -770q53 80 101.5 155t101.5 154q74 113 153.5 232t153.5 229h148l-641 -950l2 2q-18 -29 -38 -57.5t-38 -57.5l-72 -112q-37 -59 -85 -105.5t-101 -79 t-108.5 -49t-104.5 -16.5q-45 0 -94 16z" />
<glyph unicode="z" horiz-adv-x="925" d="M104 123l781 764h-570l35 137h762l-33 -123l-780 -764h575l-32 -137h-768z" />
<glyph unicode="{" horiz-adv-x="456" d="M356 135h35l-33 -135q-27 0 -55.5 8t-50 23.5t-32.5 38t-5 49.5l125 469q8 27 -5 43t-36 16h-68l37 135h68q23 0 45 18.5t29 41.5l120 450q20 47 78 75t121 28l-37 -140q-14 0 -24.5 -3t-12.5 1l-116 -440q-20 -33 -45 -54.5t-62 -27.5l-8 -31q29 -8 45 -28.5t18 -48.5z " />
<glyph unicode="|" horiz-adv-x="268" d="M471 1444h104l-385 -1442h-104z" />
<glyph unicode="}" horiz-adv-x="385" d="M236 621q33 70 98 79q2 6 5 14.5t7 18.5q-29 10 -45 30.5t-14 49.5l119 442h-37l37 140q72 0 109.5 -30t33.5 -73v-12l-117 -438q-6 -23 3 -41.5t34 -18.5h68l-37 -135h-68q-25 0 -43 -16.5t-27 -42.5l-124 -469q-6 -27 -28 -48.5t-51.5 -37t-62.5 -24.5t-61 -9l33 135 q31 0 36 2z" />
<glyph unicode="~" horiz-adv-x="710" d="M682 494q-23 47 -46.5 72.5t-45.5 25.5q-10 0 -26.5 -5t-26.5 -9h2q-29 -16 -65 -26.5t-66 -10.5q-37 0 -73 13t-67 42l78 170q23 -41 48.5 -62.5t49.5 -21.5q10 0 22.5 4t25.5 8h-3q33 16 69 25.5t67 9.5q74 0 139 -53z" />
<glyph unicode="&#xa1;" horiz-adv-x="327" d="M442 1329q8 29 34 51.5t59 22.5q29 0 45 -22.5t8 -51.5q-8 -33 -36 -53.5t-56 -20.5q-35 0 -47.5 20.5t-6.5 51.5v2zM223 0h-123l318 1196h123z" />
<glyph unicode="&#xa2;" horiz-adv-x="978" d="M762 1163h145l-37 -135q82 -12 143.5 -58t108.5 -114l-125 -98q-29 47 -69.5 84t-93.5 49l-205 -766q53 12 111.5 47t117.5 84l72 -96q-84 -68 -168 -113t-170 -59l-37 -133h-145l36 135q-84 14 -147 60t-102 116t-48.5 157t17.5 185t83 186t131 158t164 116t181 60z M301 508q-18 -70 -14 -133.5t28.5 -114.5t66.5 -87t101 -48l205 766q-66 -12 -126 -48t-112.5 -86t-91.5 -114.5t-57 -134.5z" />
<glyph unicode="&#xa3;" horiz-adv-x="1138" d="M559 584l-121 -449h654l-33 -135h-789l154 584h-234l37 135h234l180 676h135l-180 -676h354l-37 -135h-354z" />
<glyph unicode="&#xa4;" horiz-adv-x="1705" />
<glyph unicode="&#xa5;" horiz-adv-x="1394" d="M422 362h283l20 84h-283l37 140h283l10 37q-53 117 -115.5 243.5t-121.5 253.5q-31 66 -67 140.5t-65 134.5h183l288 -635q158 156 321 318.5t321 316.5h180l-785 -772l-10 -37h285l-37 -140h-285l-20 -84h284l-36 -139h-285q-4 -16 -7 -24.5t-7.5 -26.5t-14.5 -57 t-30 -115h-140l60 223h-283z" />
<glyph unicode="&#xa6;" horiz-adv-x="268" d="M297 795l174 649h104l-174 -649h-104zM383 721l-193 -719h-104l193 719h104z" />
<glyph unicode="&#xa7;" horiz-adv-x="780" d="M864 995q-74 41 -157 41q-45 0 -89 -14q10 -43 40 -86t81 -72q92 -53 130 -140t12 -185q-14 -53 -50 -101.5t-81 -83.5q-2 -12 -4.5 -24.5l-4.5 -22.5q-16 -61 -53 -110.5t-86 -82t-104.5 -50t-108.5 -17.5q-96 0 -182 49l57 76q35 -20 71 -28.5t75 -8.5q41 0 79.5 11.5 t72.5 33t58.5 53t36.5 74.5q-35 -16 -66.5 -20t-62.5 -4q-49 0 -95 11t-85 36l58 80q74 -39 149 -39q57 0 107 20q-10 49 -40 93t-81 73q-94 51 -133 143.5t-15 184.5q33 113 135 178q0 29 9 53q14 57 49 103.5t81 78t101 48t113 16.5q94 0 182 -47l-59 -84q-37 23 -77 32 t-77 9q-78 0 -143.5 -40t-88.5 -118v-2q0 -2 -2 -4q57 18 119 18q98 0 187 -47zM760 471q14 16 22.5 34.5t14.5 37.5q18 70 -12.5 139.5t-104.5 112.5q-57 29 -93 76t-48 100q-20 -16 -37 -43t-23 -51q-16 -66 14.5 -134.5t104.5 -111.5q59 -31 95 -80t46 -102q9 6 21 22z M618 659q-70 39 -98 98.5t-12 119.5q4 8 8 17t8 17q37 -94 138 -147v2q66 -39 94 -100.5t12 -122.5q-6 -20 -14 -33q-39 94 -136 152v-3zM965 1096q-55 29 -111.5 45t-110.5 16q-41 0 -79 -6q25 43 73.5 66.5t104.5 23.5q72 0 164 -51l100 141q-59 33 -112.5 47.5 t-104.5 14.5q-61 0 -122.5 -18.5t-113 -54.5t-89.5 -87t-56 -117q-4 -10 -6 -19.5t-4 -21.5q-100 -74 -133 -190q-27 -100 14 -200.5t141 -158.5l2 2q78 -45 103 -118q-14 -4 -30.5 -6.5t-31.5 -2.5q-35 0 -77 13.5t-85 36.5l-96 -136q53 -35 107.5 -50t107.5 -15 q23 0 42.5 1t41.5 7q-29 -47 -79 -69.5t-107 -22.5q-74 0 -156 47l-98 -129q113 -70 215 -70q59 0 120.5 19.5t116 57.5t95.5 92.5t59 123.5q2 8 3 16.5t3 18.5q43 39 81 91t52 106q29 104 -13 200.5t-138 153.5q-35 23 -59.5 51.5t-36.5 59.5q10 2 36 2q78 0 166 -52z M870 911q-45 25 -80.5 39.5t-68.5 18.5q23 -25 57 -47q104 -59 147.5 -165t12.5 -218q-16 -59 -51 -111.5t-82 -95.5l-6 -25q-20 -78 -65.5 -138t-105 -101t-127 -62.5t-130.5 -21.5q-55 0 -119 20.5t-133 63.5l143 186q51 -29 91 -42t73 -13q55 0 96 20h-10 q-53 0 -116.5 19.5t-131.5 64.5l137 186q47 -27 90.5 -41t77.5 -14q-27 37 -67 64q-53 31 -91 74.5t-59.5 95t-25.5 106.5t10 111q31 117 133 202l8 29q18 74 61.5 131.5t99.5 97t123.5 60t135.5 20.5q53 0 116.5 -19.5t137.5 -59.5l-143 -199q-109 61 -174 61 q-23 0 -45.5 -5t-43.5 -13h7q53 0 118.5 -20.5t137.5 -57.5zM637 688q33 -16 58.5 -38.5t43.5 -47.5q-4 37 -29.5 73t-68.5 60v-2q-35 16 -60.5 39t-45.5 47q8 -35 32.5 -69.5t71.5 -61.5h-2z" />
<glyph unicode="&#xa8;" horiz-adv-x="538" d="M397 1286q10 35 40 57.5t65 22.5q33 0 53 -22.5t10 -57.5q-10 -31 -41.5 -55.5t-64.5 -24.5q-35 0 -53.5 24.5t-8.5 55.5zM657 1286q10 35 39 57.5t64 22.5t54.5 -22.5t8.5 -57.5q-10 -31 -40.5 -55.5t-65.5 -24.5t-52.5 24.5t-7.5 55.5z" />
<glyph unicode="&#xa9;" horiz-adv-x="1705" />
<glyph unicode="&#xaa;" horiz-adv-x="366" d="M399 623q-35 -10 -61 -11q-63 0 -95 42t-16 102q16 57 69.5 96t119.5 39h37q2 16 -4.5 28.5t-16.5 12.5q-23 0 -47.5 -5t-71.5 -18l13 107q39 10 69.5 15t65.5 5q53 0 80.5 -45t11.5 -117q-4 -8 -14.5 -45.5t-22.5 -82t-22.5 -81t-12.5 -44.5zM377 809q-23 0 -43.5 -17.5 t-24.5 -33.5q-6 -23 5.5 -42.5t33.5 -19.5q23 0 44.5 19.5t27.5 42.5l12 51h-55z" />
<glyph unicode="&#xab;" horiz-adv-x="1089" d="M1192 1038l63 -104l-559 -383l49 -80q53 -90 106.5 -184t100.5 -181l-121 -90l-315 553zM864 1038l62 -104l-557 -383q29 -53 59.5 -104.5t60.5 -106.5q33 -57 69 -118.5t67 -115.5l-121 -90l-318 553z" />
<glyph unicode="&#xac;" horiz-adv-x="1355" d="M1333 317h-135l94 353h-1042l37 135h1177z" />
<glyph unicode="&#xad;" horiz-adv-x="862" d="M205 530l37 136h723l-37 -136h-723z" />
<glyph unicode="&#xae;" horiz-adv-x="1705" />
<glyph unicode="&#xb0;" horiz-adv-x="512" d="M455 1184q-10 -41 15.5 -75t68.5 -34q39 0 79.5 34t51.5 75q12 43 -10.5 78.5t-61.5 35.5q-43 0 -87 -35.5t-56 -78.5zM344 1184q27 94 106.5 156.5t176.5 62.5q90 0 134 -62.5t17 -156.5q-12 -45 -37.5 -84t-61.5 -67.5t-79 -45t-88 -16.5q-96 0 -143.5 61.5 t-24.5 151.5z" />
<glyph unicode="&#xb1;" horiz-adv-x="925" d="M680 598h-135l78 293h-293l37 137h292l78 293h135l-77 -293h295l-37 -137h-295zM170 299l35 135h723l-35 -135h-723z" />
<glyph unicode="&#xb2;" horiz-adv-x="573" d="M698 727l-30 -113h-461l24 97l404 346q23 16 40 42.5t23 49.5q14 55 -20.5 96t-87.5 41q-51 0 -150 -72l-61 89q66 45 126 72.5t116 27.5q55 0 96 -20.5t66.5 -54.5t33.5 -81t-6 -98q-12 -47 -47 -97.5t-68 -80.5l-282 -244h284z" />
<glyph unicode="&#xb3;" horiz-adv-x="542" d="M311 778q18 -25 46 -43t61 -18q49 0 99 33.5t65 83.5q12 47 -17.5 80.5t-77.5 39.5h-127l31 113h131q25 2 49.5 12.5t46 25.5t37 34.5t21.5 38.5q10 39 -22.5 70.5t-82.5 31.5q-70 0 -163 -76l-60 86q125 104 254 105q104 0 158.5 -62.5t32.5 -154.5q-16 -57 -47 -99.5 t-84 -72.5q27 -33 36 -78t-4 -94q-12 -49 -42.5 -90.5t-71.5 -72t-90.5 -48t-100.5 -17.5q-68 0 -116 29t-80 78l81 65h37z" />
<glyph unicode="&#xb4;" horiz-adv-x="428" d="M428 1071h-106l227 223h217z" />
<glyph unicode="&#xb5;" horiz-adv-x="1015" d="M184 -379h-135l375 1403h137l-194 -727q-4 -14 8 -44t37.5 -58.5t62.5 -51t80 -22.5q47 0 92 19.5t84 53t67.5 78.5t43.5 95q23 78 44 157.5t46 163.5q8 31 20.5 76t25.5 93t24.5 92t19.5 75h135l-180 -657q-23 -80 -69 -151t-107.5 -123t-134 -81.5t-146.5 -29.5 q-66 0 -121 27.5t-90 74.5z" />
<glyph unicode="&#xb6;" horiz-adv-x="782" d="M559 0l373 1393h133l-373 -1393h-133zM668 1270q-72 -10 -131.5 -70.5t-81.5 -142.5q-23 -84 4.5 -144.5t93.5 -68.5zM354 0l187 702q-61 6 -110.5 37t-80.5 77t-40 106.5t9 126.5q18 72 62.5 135t104 110t129 74t141.5 27h106l-373 -1395h-135z" />
<glyph unicode="&#xb7;" horiz-adv-x="460" d="M268 635q6 23 21.5 45t38 40.5t49 30t53.5 11.5t48.5 -11.5t34.5 -30t19.5 -41t-0.5 -44.5q-6 -25 -23 -46.5t-41 -37.5t-50.5 -26.5t-52.5 -10.5q-53 0 -82 37t-15 84z" />
<glyph unicode="&#xb9;" horiz-adv-x="538" d="M348 1165l336 230h119l-170 -637h-137l118 446q-43 -31 -89 -59.5t-87 -57.5q4 2 -5 -5t-13 -11z" />
<glyph unicode="&#xba;" horiz-adv-x="475" d="M350 815q-10 -41 11.5 -74.5t58.5 -33.5q35 0 71.5 33.5t47.5 74.5q12 45 -6.5 81t-53.5 36q-37 0 -77 -36t-52 -81zM246 815q12 47 38.5 88t62.5 71t77 46t84 16q82 0 123 -62.5t14 -158.5q-12 -45 -37.5 -83t-59.5 -66.5t-74 -45t-81 -16.5q-86 0 -128 60.5t-19 150.5z " />
<glyph unicode="&#xbb;" horiz-adv-x="1073" d="M823 569l-610 -553l-78 90l498 445q-55 59 -112.5 122.5t-114.5 125.5h2q-29 33 -65 67.5t-64 65.5l118 106zM1153 569l-612 -553l-76 90l496 445q-53 59 -111.5 122.5t-116.5 125.5h2q-29 33 -63.5 67.5t-63.5 65.5l117 106z" />
<glyph unicode="&#xbc;" horiz-adv-x="782" d="M795 690l-295 -348h125l41 147h96l-41 -147h96l-24 -94h-97l-30 -111q-8 -31 -16.5 -69.5t-16.5 -67.5h-96l63 248h-244l21 74l344 409zM279 907l188 129h76l-168 -624h-96l131 487q-10 -8 -23.5 -16.5t-24.5 -16.5q-8 -4 -13 -7t-21 -17z" />
<glyph unicode="&#xbd;" horiz-adv-x="727" d="M254 909l188 129h76l-168 -626h-96l131 489q-10 -8 -23.5 -16t-23.5 -17q-8 -4 -13.5 -7t-21.5 -17zM410 94h280l-22 -94h-420l18 78l377 323q20 16 36.5 42t22.5 49q16 59 -15.5 99t-90.5 40q-57 0 -133 -58l-51 68q53 41 108 63.5t103 22.5q49 0 88 -18.5t62.5 -50 t29.5 -74.5t-6 -92q-12 -45 -42 -85t-67 -75z" />
<glyph unicode="&#xbe;" horiz-adv-x="937" d="M229 461q14 -31 43 -48.5t64 -17.5q57 0 106.5 35t63.5 84q8 33 -6.5 57.5t-44 40t-71.5 19.5t-91 -4l29 100h118q53 4 97.5 32.5t56.5 74.5q12 47 -19.5 78.5t-87.5 31.5q-72 0 -149 -65l-49 67q53 43 110.5 67.5t112.5 24.5q47 0 86 -16t63.5 -44t34 -64.5t-3.5 -79.5 q-14 -49 -48 -89t-81 -65q31 -29 42 -72t-3 -94q-12 -45 -41 -84t-68.5 -68.5t-86 -46t-95.5 -16.5q-55 0 -98 26.5t-70 73.5zM504 250l20 76l350 409l72 -41l-291 -348h121l39 148h96l-39 -148h97l-27 -96h-96l-66 -246h-96l66 246h-246z" />
<glyph unicode="&#xbf;" horiz-adv-x="884" d="M854 1395l16 -645l-32 -121h-220q-49 -2 -99 -21.5t-92 -53.5t-72.5 -80t-45.5 -99q-14 -51 -6 -97.5t32.5 -82t64.5 -56t92 -20.5q66 0 137 43t137 112l72 -98q-82 -88 -181.5 -142t-201.5 -54q-80 0 -141.5 31.5t-99.5 85t-49 126t11 152.5q20 80 69.5 150.5t115 125 t142.5 86t152 31.5h72q-2 74 -5 153.5t-5 161.5t-4 161t-4 151h145zM862 1550q-10 -35 -38.5 -58.5t-59.5 -23.5q-37 0 -54.5 24t-7.5 58q10 37 39 60.5t66 23.5q31 0 48 -23.5t7 -60.5z" />
<glyph unicode="&#xc0;" d="M965 702q-4 59 -10.5 112.5t-12.5 107.5v-2q-10 66 -13 114.5t-11 122.5q-29 -47 -58 -90t-55 -88q-47 -72 -88 -135.5t-90 -141.5h338zM934 1415h108l144 -1415h-144l-63 563h-438q-86 -135 -180.5 -281.5t-180.5 -281.5h-143zM762 1685h223l107 -223h-103z" />
<glyph unicode="&#xc1;" d="M965 702q-4 59 -10.5 112.5t-12.5 107.5v-2q-10 66 -13 114.5t-11 122.5q-29 -47 -58 -90t-55 -88q-47 -72 -88 -135.5t-90 -141.5h338zM934 1415h108l144 -1415h-144l-63 563h-438q-86 -135 -180.5 -281.5t-180.5 -281.5h-143zM1036 1462h-106l227 223h217z" />
<glyph unicode="&#xc2;" d="M965 702q-4 59 -10.5 112.5t-12.5 107.5v-2q-10 66 -13 114.5t-11 122.5q-29 -47 -58 -90t-55 -88q-47 -72 -88 -135.5t-90 -141.5h338zM934 1415h108l144 -1415h-144l-63 563h-438q-86 -135 -180.5 -281.5t-180.5 -281.5h-143z" />
<glyph unicode="&#xc3;" d="M1176 1438q-41 100 -95 100q-10 0 -25.5 -4t-25.5 -8h2q-66 -39 -135 -39q-35 0 -72 14.5t-67 42.5l78 172q25 -41 50 -63.5t48 -22.5q12 0 27.5 5t25.5 10h-2q29 16 64.5 24t66.5 8q37 0 74 -12t72 -41zM983 731q-4 59 -10 112.5t-12 106.5v-2q-10 66 -13.5 115 t-11.5 123q-29 -47 -57.5 -90t-55.5 -88q-47 -72 -88 -135.5t-90 -141.5h338zM952 1444h109l143 -1415h-143l-64 563h-438q-86 -135 -180 -281.5t-180 -281.5h-144z" />
<glyph unicode="&#xc4;" d="M965 702q-4 59 -10.5 112.5t-12.5 107.5v-2q-10 66 -13 114.5t-11 122.5q-29 -47 -58 -90t-55 -88q-47 -72 -88 -135.5t-90 -141.5h338zM934 1415h108l144 -1415h-144l-63 563h-438q-86 -135 -180.5 -281.5t-180.5 -281.5h-143zM790 1517q10 35 40 57.5t65 22.5 q33 0 53 -22.5t10 -57.5q-10 -31 -41.5 -55.5t-64.5 -24.5q-35 0 -53.5 24.5t-8.5 55.5zM1050 1517q10 35 39 57.5t64 22.5t54.5 -22.5t8.5 -57.5q-10 -31 -40.5 -55.5t-65.5 -24.5t-52.5 24.5t-7.5 55.5z" />
<glyph unicode="&#xc5;" d="M965 702q-4 59 -10.5 112.5t-12.5 107.5v-2q-10 66 -13 114.5t-11 122.5q-29 -47 -58 -90t-55 -88q-47 -72 -88 -135.5t-90 -141.5h338zM934 1415h108l144 -1415h-144l-63 563h-438q-86 -135 -180.5 -281.5t-180.5 -281.5h-143z" />
<glyph unicode="&#xc6;" horiz-adv-x="2213" d="M1397 1280h-402q-45 -72 -92 -146.5t-92 -146.5q-47 -76 -88 -141.5t-90 -143.5h592zM2257 1415l-37 -135h-702l-123 -459h600l-37 -139h-600l-146 -543h703l-35 -139h-840l148 563h-641q-43 -68 -86 -136.5t-88 -137.5l2 2q-47 -72 -96.5 -147.5t-90.5 -143.5h-147 l899 1415h1317z" />
<glyph unicode="&#xc7;" horiz-adv-x="1298" d="M1397 1112q-57 84 -137 130t-179 46q-106 0 -212.5 -47t-196.5 -127t-159 -187.5t-101 -226.5q-31 -117 -20 -222t58.5 -186t128 -128t189.5 -47q98 0 201.5 46t201.5 126l74 -94q-123 -104 -256 -155.5t-264 -53.5q-4 -4 1 -2t1 -2q27 -16 49.5 -50t9.5 -77 q-8 -33 -46 -71t-122 -77l-116 109q12 0 37.5 2t53.5 7t49.5 13t25.5 21q2 10 -4.5 16t-16.5 10t-22.5 5t-20.5 1h-45l31 107q-98 27 -173 91.5t-118 156.5t-51 207.5t26 246.5q41 154 127 286t201 229.5t248 152.5t268 55q129 0 232.5 -57t169.5 -162z" />
<glyph unicode="&#xc8;" horiz-adv-x="993" d="M989 682h-600l-145 -543h700l-35 -139h-837l377 1415h837l-37 -135h-700l-123 -459h600zM621 1685h223l107 -223h-103z" />
<glyph unicode="&#xc9;" horiz-adv-x="993" d="M989 682h-600l-145 -543h700l-35 -139h-837l377 1415h837l-37 -135h-700l-123 -459h600zM866 1462h-106l227 223h217z" />
<glyph unicode="&#xca;" horiz-adv-x="993" d="M989 682h-600l-145 -543h700l-35 -139h-837l377 1415h837l-37 -135h-700l-123 -459h600zM958 1763l184 -246l-114 -88l-115 162l-207 -162l-59 90z" />
<glyph unicode="&#xcb;" horiz-adv-x="993" d="M989 682h-600l-145 -543h700l-35 -139h-837l377 1415h837l-37 -135h-700l-123 -459h600zM676 1519q10 35 40 57.5t65 22.5q33 0 53 -22.5t10 -57.5q-10 -31 -41.5 -55.5t-64.5 -24.5q-35 0 -53.5 24.5t-8.5 55.5zM936 1519q10 35 39 57.5t64 22.5t54.5 -22.5t8.5 -57.5 q-10 -31 -40.5 -55.5t-65.5 -24.5t-52.5 24.5t-7.5 55.5z" />
<glyph unicode="&#xcc;" horiz-adv-x="268" d="M229 0h-139l377 1415h139zM326 1685h223l107 -223h-103z" />
<glyph unicode="&#xcd;" horiz-adv-x="315" d="M213 0h-139l377 1415h139zM567 1462h-106l227 223h217z" />
<glyph unicode="&#xce;" horiz-adv-x="282" d="M213 0h-139l377 1415h139z" />
<glyph unicode="&#xcf;" horiz-adv-x="282" d="M213 0h-139l377 1415h139zM329 1517q10 35 40 57.5t65 22.5q33 0 53 -22.5t10 -57.5q-10 -31 -41.5 -55.5t-64.5 -24.5q-35 0 -53.5 24.5t-8.5 55.5zM589 1517q10 35 39 57.5t64 22.5t54.5 -22.5t8.5 -57.5q-10 -31 -40.5 -55.5t-65.5 -24.5t-52.5 24.5t-7.5 55.5z" />
<glyph unicode="&#xd0;" horiz-adv-x="1337" d="M215 541l37 135h131l199 739h530q104 -2 180 -57t118 -150.5t47 -223.5t-34 -273t-111.5 -273.5t-164.5 -223.5t-197.5 -152.5t-210.5 -61.5h-534l141 541h-131zM682 1276l-160 -600h342l-37 -135h-342l-106 -402h96t96 2q51 0 102.5 1t100.5 1q76 2 153 47.5t146.5 122 t124.5 179t86 219.5t31 219t-29 179t-83 121t-130 46h-391z" />
<glyph unicode="&#xd1;" horiz-adv-x="1099" d="M580 1415l360 -1116l299 1116h139l-377 -1415h-127l-362 1122q-35 -129 -69.5 -263t-69.5 -265l-158 -594h-137l377 1415h125zM1122 1393q-20 47 -44.5 72.5t-47.5 25.5q-10 0 -26.5 -5t-26.5 -9h2q-27 -16 -62.5 -26.5t-66.5 -10.5q-35 0 -72 13.5t-67 41.5l78 170 q43 -84 96 -84q16 0 49 15h-2q70 33 135 33q35 0 71 -13.5t68 -40.5z" />
<glyph unicode="&#xd2;" horiz-adv-x="1413" d="M1337 1130q-47 74 -125.5 113t-179.5 39q-106 0 -210.5 -45t-193.5 -123t-155.5 -182.5t-99.5 -224.5q-33 -123 -23 -229.5t57.5 -185.5t128 -124t187.5 -45q109 0 214 45t194.5 124t157 185.5t100.5 229.5q35 127 20 236t-72 187zM1184 180q-115 -96 -242 -147t-258 -51 t-233.5 55t-165 152.5t-79 230.5t24.5 287q39 150 125 279.5t200 227t247 153.5t268 56q137 0 240.5 -56t163 -152.5t73 -227.5t-25.5 -280q-43 -160 -130 -294.5t-208 -232.5zM807 1685h223l107 -223h-103z" />
<glyph unicode="&#xd3;" horiz-adv-x="1413" d="M1337 1130q-47 74 -125.5 113t-179.5 39q-106 0 -210.5 -45t-193.5 -123t-155.5 -182.5t-99.5 -224.5q-33 -123 -23 -229.5t57.5 -185.5t128 -124t187.5 -45q109 0 214 45t194.5 124t157 185.5t100.5 229.5q35 127 20 236t-72 187zM1184 180q-115 -96 -242 -147t-258 -51 t-233.5 55t-165 152.5t-79 230.5t24.5 287q39 150 125 279.5t200 227t247 153.5t268 56q137 0 240.5 -56t163 -152.5t73 -227.5t-25.5 -280q-43 -160 -130 -294.5t-208 -232.5zM1149 1462h-106l227 223h217z" />
<glyph unicode="&#xd4;" horiz-adv-x="1413" d="M1337 1130q-47 74 -125.5 113t-179.5 39q-106 0 -210.5 -45t-193.5 -123t-155.5 -182.5t-99.5 -224.5q-33 -123 -23 -229.5t57.5 -185.5t128 -124t187.5 -45q109 0 214 45t194.5 124t157 185.5t100.5 229.5q35 127 20 236t-72 187zM1184 180q-115 -96 -242 -147t-258 -51 t-233.5 55t-165 152.5t-79 230.5t24.5 287q39 150 125 279.5t200 227t247 153.5t268 56q137 0 240.5 -56t163 -152.5t73 -227.5t-25.5 -280q-43 -160 -130 -294.5t-208 -232.5zM1167 1763l184 -246l-114 -88l-115 162l-207 -162l-59 90z" />
<glyph unicode="&#xd5;" horiz-adv-x="1413" d="M1337 1130q-47 74 -125.5 113t-179.5 39q-106 0 -210.5 -45t-193.5 -123t-155.5 -182.5t-99.5 -224.5q-33 -123 -23 -229.5t57.5 -185.5t128 -124t187.5 -45q109 0 214 45t194.5 124t157 185.5t100.5 229.5q35 127 20 236t-72 187zM1184 180q-115 -96 -242 -147t-258 -51 t-233.5 55t-165 152.5t-79 230.5t24.5 287q39 150 125 279.5t200 227t247 153.5t268 56q137 0 240.5 -56t163 -152.5t73 -227.5t-25.5 -280q-43 -160 -130 -294.5t-208 -232.5zM1278 1395q-20 47 -44.5 72.5t-47.5 25.5q-10 0 -26.5 -5t-26.5 -9h2q-27 -16 -62.5 -26.5 t-66.5 -10.5q-35 0 -72 13.5t-67 41.5l78 170q43 -84 96 -84q16 0 49 15h-2q70 33 135 33q35 0 71 -13.5t68 -40.5z" />
<glyph unicode="&#xd6;" horiz-adv-x="1413" d="M1337 1130q-47 74 -125.5 113t-179.5 39q-106 0 -210.5 -45t-193.5 -123t-155.5 -182.5t-99.5 -224.5q-33 -123 -23 -229.5t57.5 -185.5t128 -124t187.5 -45q109 0 214 45t194.5 124t157 185.5t100.5 229.5q35 127 20 236t-72 187zM1184 180q-115 -96 -242 -147t-258 -51 t-233.5 55t-165 152.5t-79 230.5t24.5 287q39 150 125 279.5t200 227t247 153.5t268 56q137 0 240.5 -56t163 -152.5t73 -227.5t-25.5 -280q-43 -160 -130 -294.5t-208 -232.5zM886 1519q10 35 40 57.5t65 22.5q33 0 53 -22.5t10 -57.5q-10 -31 -41.5 -55.5t-64.5 -24.5 q-35 0 -53.5 24.5t-8.5 55.5zM1146 1519q10 35 39 57.5t64 22.5t54.5 -22.5t8.5 -57.5q-10 -31 -40.5 -55.5t-65.5 -24.5t-52.5 24.5t-7.5 55.5z" />
<glyph unicode="&#xd7;" horiz-adv-x="751" d="M233 332l-69 96l262 209l-150 205l119 98l154 -207l262 207l72 -96l-265 -207q10 -14 21.5 -27.5t22.5 -29.5q29 -35 58.5 -76t51.5 -76l-121 -96l-153 209z" />
<glyph unicode="&#xd8;" horiz-adv-x="1413" d="M1184 180q-115 -96 -242 -147t-258 -51q-94 0 -168 24v-6h-154l39 68q-61 43 -106 108.5t-67.5 148.5t-23.5 180t27 202q39 150 125 279.5t200 227t247 153.5t268 56q43 0 87 -7t83 -19q4 4 7 9t7 9h144l-45 -74q129 -98 176 -264t-8 -370q-43 -160 -130 -294.5 t-208 -232.5zM1337 1130q-16 23 -31.5 41.5t-35.5 34.5q-49 -76 -99.5 -154.5t-97.5 -154.5q-121 -190 -238.5 -377.5t-238.5 -378.5q29 -10 59.5 -14t67.5 -4q109 0 214 45t194.5 124t157 185.5t100.5 229.5q35 127 20 236t-72 187zM1032 1282q-106 0 -210.5 -45 t-193.5 -123t-155.5 -182.5t-99.5 -224.5q-45 -166 -14.5 -298.5t122.5 -207.5q98 160 199.5 316.5t200.5 311.5q70 111 137 216.5t139 218.5q-29 10 -59.5 14t-65.5 4z" />
<glyph unicode="&#xd9;" horiz-adv-x="1224" d="M311 369q-4 -47 17.5 -91.5t65.5 -79t105.5 -55t137.5 -20.5q72 0 142.5 20.5t131 55t105.5 79t67 91.5l281 1046h139l-282 -1048q-25 -80 -86.5 -150t-146.5 -122t-186.5 -82.5t-203.5 -30.5q-109 0 -196 30.5t-145 82.5t-84 122t-9 150l282 1048h146zM750 1685h223 l107 -223h-103z" />
<glyph unicode="&#xda;" horiz-adv-x="1224" d="M311 369q-4 -47 17.5 -91.5t65.5 -79t105.5 -55t137.5 -20.5q72 0 142.5 20.5t131 55t105.5 79t67 91.5l281 1046h139l-282 -1048q-25 -80 -86.5 -150t-146.5 -122t-186.5 -82.5t-203.5 -30.5q-109 0 -196 30.5t-145 82.5t-84 122t-9 150l282 1048h146zM1028 1462h-106 l227 223h217z" />
<glyph unicode="&#xdb;" horiz-adv-x="1224" d="M311 369q-4 -47 17.5 -91.5t65.5 -79t105.5 -55t137.5 -20.5q72 0 142.5 20.5t131 55t105.5 79t67 91.5l281 1046h139l-282 -1048q-25 -80 -86.5 -150t-146.5 -122t-186.5 -82.5t-203.5 -30.5q-109 0 -196 30.5t-145 82.5t-84 122t-9 150l282 1048h146zM1073 1763 l184 -246l-114 -88l-115 162l-207 -162l-59 90z" />
<glyph unicode="&#xdc;" horiz-adv-x="1224" d="M311 369q-4 -47 17.5 -91.5t65.5 -79t105.5 -55t137.5 -20.5q72 0 142.5 20.5t131 55t105.5 79t67 91.5l281 1046h139l-282 -1048q-25 -80 -86.5 -150t-146.5 -122t-186.5 -82.5t-203.5 -30.5q-109 0 -196 30.5t-145 82.5t-84 122t-9 150l282 1048h146zM792 1517 q10 35 40 57.5t65 22.5q33 0 53 -22.5t10 -57.5q-10 -31 -41.5 -55.5t-64.5 -24.5q-35 0 -53.5 24.5t-8.5 55.5zM1052 1517q10 35 39 57.5t64 22.5t54.5 -22.5t8.5 -57.5q-10 -31 -40.5 -55.5t-65.5 -24.5t-52.5 24.5t-7.5 55.5z" />
<glyph unicode="&#xdd;" horiz-adv-x="1394" d="M1714 1415l-794 -782l-82 -307q-23 -80 -43.5 -165t-40.5 -161h-142l166 633q-25 53 -51.5 108.5t-52.5 114.5q-31 66 -66 139.5t-70.5 146t-69.5 143.5t-62 130h182l297 -645q45 45 86 87t86 87q117 117 238.5 236.5t238.5 234.5h180zM1130 1462h-106l227 223h217z" />
<glyph unicode="&#xde;" horiz-adv-x="1095" d="M510 997q129 59 281 60q104 -2 184 -45t128 -116t61.5 -169t-15.5 -205q-31 -113 -96.5 -211t-152.5 -171.5t-190.5 -115.5t-207.5 -42q-78 0 -138.5 17t-111.5 44l-115 -428h-135l483 1802h138zM299 211q-6 -18 9.5 -33.5t48 -28t79.5 -19.5t103 -9q74 2 148.5 33.5 t138 86t111.5 126t71 153.5q20 80 11 151.5t-44 126t-92.5 86t-130.5 31.5q-51 0 -98.5 -7t-87.5 -19t-67.5 -27.5t-39.5 -32.5z" />
<glyph unicode="&#xdf;" horiz-adv-x="1064" d="M565 1262l-123 -453h318q51 2 101 19.5t91 48t72 71.5t43 90q12 43 3 82t-33.5 70t-64.5 49t-89 23h-318zM137 -334h-137l461 1729h457q78 -2 140 -31t101 -78t51.5 -113.5t-6.5 -134.5q-25 -94 -90 -170.5t-153 -128.5q72 -53 101.5 -143t2.5 -190q-23 -82 -74 -154 t-120.5 -127t-153.5 -87t-172 -34h-174l-101 131h310q57 2 113.5 25.5t102.5 60.5t80.5 84t49.5 101q14 51 5 98t-40 84t-81 59.5t-118 26.5h-284z" />
<glyph unicode="&#xe0;" horiz-adv-x="831" d="M627 0l12 49q-55 -33 -110.5 -50t-114.5 -17q-70 0 -124 25.5t-89 68.5t-46.5 101.5t7.5 123.5q18 68 60 126t100.5 102t126 70t137.5 26h207l10 32q27 98 -3 169t-108 75q-41 0 -68.5 -5t-58.5 -15q-6 -2 -10 -2t-8 -2t-11.5 -3.5t-17.5 -5.5q-8 -4 -24 -4v123q4 2 15 6 t15 6q53 16 96.5 26.5t110.5 10.5q63 -2 110.5 -30.5t75 -77.5t36 -112.5t-8.5 -135.5l-4 -23q-49 -178 -88 -321q-16 -61 -32.5 -119.5t-30 -106t-21.5 -78t-8 -32.5h-133zM547 487q-41 0 -81 -15t-75 -40.5t-59.5 -59.5t-34.5 -71q-10 -39 -3 -71.5t28.5 -57.5t54.5 -39 t74 -14q43 0 83.5 14t75.5 39t60.5 58.5t36.5 72.5l51 184h-211zM563 1294h223l107 -223h-103z" />
<glyph unicode="&#xe1;" horiz-adv-x="831" d="M627 0l12 49q-55 -33 -110.5 -50t-114.5 -17q-70 0 -124 25.5t-89 68.5t-46.5 101.5t7.5 123.5q18 68 60 126t100.5 102t126 70t137.5 26h207l10 32q27 98 -3 169t-108 75q-41 0 -68.5 -5t-58.5 -15q-6 -2 -10 -2t-8 -2t-11.5 -3.5t-17.5 -5.5q-8 -4 -24 -4v123q4 2 15 6 t15 6q53 16 96.5 26.5t110.5 10.5q63 -2 110.5 -30.5t75 -77.5t36 -112.5t-8.5 -135.5l-4 -23q-49 -178 -88 -321q-16 -61 -32.5 -119.5t-30 -106t-21.5 -78t-8 -32.5h-133zM547 487q-41 0 -81 -15t-75 -40.5t-59.5 -59.5t-34.5 -71q-10 -39 -3 -71.5t28.5 -57.5t54.5 -39 t74 -14q43 0 83.5 14t75.5 39t60.5 58.5t36.5 72.5l51 184h-211zM774 1071h-106l227 223h217z" />
<glyph unicode="&#xe2;" horiz-adv-x="831" d="M627 0l12 49q-55 -33 -110.5 -50t-114.5 -17q-70 0 -124 25.5t-89 68.5t-46.5 101.5t7.5 123.5q18 68 60 126t100.5 102t126 70t137.5 26h207l10 32q27 98 -3 169t-108 75q-41 0 -68.5 -5t-58.5 -15q-6 -2 -10 -2t-8 -2t-11.5 -3.5t-17.5 -5.5q-8 -4 -24 -4v123q4 2 15 6 t15 6q53 16 96.5 26.5t110.5 10.5q63 -2 110.5 -30.5t75 -77.5t36 -112.5t-8.5 -135.5l-4 -23q-49 -178 -88 -321q-16 -61 -32.5 -119.5t-30 -106t-21.5 -78t-8 -32.5h-133zM547 487q-41 0 -81 -15t-75 -40.5t-59.5 -59.5t-34.5 -71q-10 -39 -3 -71.5t28.5 -57.5t54.5 -39 t74 -14q43 0 83.5 14t75.5 39t60.5 58.5t36.5 72.5l51 184h-211zM848 1372l184 -246l-114 -88l-115 162l-207 -162l-59 90z" />
<glyph unicode="&#xe3;" horiz-adv-x="831" d="M958 1079q-49 78 -100 78q-12 0 -26.5 -4t-26.5 -8h2q-29 -16 -62.5 -23.5t-62.5 -7.5q-80 0 -143 45l73 158q27 -35 51.5 -55.5t47.5 -20.5q12 0 25.5 4t25.5 8q31 16 63.5 21.5t61.5 5.5q41 0 75.5 -10t69.5 -35zM641 29l12 49q-55 -33 -110.5 -50.5t-114.5 -17.5 q-70 0 -124 25.5t-89 68.5t-46 101.5t7 124.5q18 68 60.5 126t100.5 102t125.5 69.5t137.5 25.5h207l10 33q27 98 -3 169t-107 75q-41 0 -69 -5t-58 -16q-6 -2 -10.5 -2t-8.5 -2t-11 -3t-18 -5q-8 -4 -24 -4v123q4 2 15.5 6t15.5 6q53 16 96 26.5t110 10.5 q63 -2 110.5 -30.5t75 -78t36 -113t-8.5 -134.5l-4 -23q-49 -178 -88 -321q-16 -61 -32.5 -120t-29.5 -106t-21.5 -77.5t-8.5 -32.5h-133zM561 516q-41 0 -81 -15.5t-74.5 -41t-59 -59t-35.5 -70.5q-10 -39 -3 -72t28.5 -57.5t54.5 -39t74 -14.5q43 0 84 14.5t75.5 39 t60.5 58.5t36 73l51 184h-211z" />
<glyph unicode="&#xe4;" horiz-adv-x="831" d="M618 1257q8 31 39 55.5t66 24.5q33 0 52.5 -24.5t10.5 -55.5q-10 -35 -41.5 -58t-64.5 -23q-35 0 -53.5 23t-8.5 58zM879 1257q8 31 37.5 55.5t64.5 24.5t53.5 -24.5t9.5 -55.5q-10 -35 -40.5 -58t-65.5 -23t-52 23t-7 58zM641 29l12 49q-55 -33 -110.5 -50.5 t-114.5 -17.5q-70 0 -124 25.5t-89 68.5t-46 101.5t7 124.5q18 68 60.5 126t100.5 102t125.5 69.5t137.5 25.5h207l10 33q27 98 -3 169t-107 75q-41 0 -69 -5t-58 -16q-6 -2 -10.5 -2t-8.5 -2t-11 -3t-18 -5q-8 -4 -24 -4v123q4 2 15.5 6t15.5 6q53 16 96 26.5t110 10.5 q63 -2 110.5 -30.5t75 -78t36 -113t-8.5 -134.5l-4 -23q-49 -178 -88 -321q-16 -61 -32.5 -120t-29.5 -106t-21.5 -77.5t-8.5 -32.5h-133zM561 516q-41 0 -81 -15.5t-74.5 -41t-59 -59t-35.5 -70.5q-10 -39 -3 -72t28.5 -57.5t54.5 -39t74 -14.5q43 0 84 14.5t75.5 39 t60.5 58.5t36 73l51 184h-211z" />
<glyph unicode="&#xe6;" horiz-adv-x="1521" d="M631 47q-53 -33 -110.5 -50t-114.5 -17q-72 0 -127.5 25.5t-90 68.5t-46 101t7.5 126q18 68 60 126t100.5 101t127 69t140.5 26h196q8 20 23 43q23 100 -12 164.5t-109 68.5q-117 0 -252 -37l-2 131q76 20 148.5 31.5t144.5 11.5q86 -4 141 -49t78 -127q80 86 171 132 t183 46q86 0 151.5 -40t102.5 -109.5t43 -163.5t-22 -205l-21 -74h-674l-14 -53q0 -55 14.5 -105t42 -88t67.5 -60.5t87 -22.5q31 0 66.5 7t74.5 19.5t75 26.5t67 27l26 -119q-74 -35 -146.5 -58.5t-146.5 -35.5q-10 -2 -24.5 -2h-28.5q-160 0 -246 120q-2 -31 7.5 -53 t44.5 -49h-216zM1440 580q8 68 0 126t-33 101t-64.5 67.5t-91.5 24.5q-51 0 -103 -23.5t-99.5 -65.5t-85 -101.5t-58.5 -128.5h535zM729 487h-188q-43 0 -84 -15t-75 -40.5t-58.5 -59.5t-34.5 -71q-23 -78 22 -130t131 -52q41 0 82 14t77 39t61.5 57.5t35.5 71.5l15 51 q-2 27 2 57.5t12 65.5z" />
<glyph unicode="&#xe7;" horiz-adv-x="1009" d="M584 -25q29 -14 50 -49t11 -78q-10 -31 -48 -70.5t-116 -80.5l-104 104q18 2 42.5 5.5t46 9.5t38 13t18.5 15q8 27 -16.5 35t-40.5 8q-2 0 -5 -1t-7 -1h-37l33 107q-78 18 -137.5 65t-94.5 116t-42 155t20 182q29 109 93 204t150 166.5t187.5 113.5t203.5 42 q104 0 187.5 -48t136.5 -134l-121 -94q-43 63 -104.5 101t-134.5 38q-74 0 -147 -30.5t-136.5 -83t-110.5 -124t-67 -151.5q-23 -82 -13.5 -152.5t44 -124t91 -84t130.5 -30.5q72 0 151.5 35.5t151.5 97.5l74 -96q-86 -72 -182.5 -118t-190.5 -56z" />
<glyph unicode="&#xe8;" horiz-adv-x="933" d="M512 119q37 0 81 9t88 22.5t84 32t71 36.5l20 -129q-72 -43 -163 -69.5t-169 -36.5q-10 -2 -27.5 -2h-25.5q-86 0 -152.5 37.5t-107.5 104t-53.5 157t10.5 194.5l8 35q29 109 87.5 205t134 167.5t161.5 113.5t172 42t151.5 -35.5t102.5 -101t44 -157t-21 -201.5l-21 -76 h-680q-10 -72 -1 -134.5t36 -110.5t70 -75.5t100 -27.5zM887 602q6 63 -5.5 117.5t-37 94.5t-63.5 62.5t-87 22.5t-100 -21.5t-97 -60.5t-86 -93t-67 -122h543zM561 1294h223l107 -223h-103z" />
<glyph unicode="&#xe9;" horiz-adv-x="933" d="M512 119q37 0 81 9t88 22.5t84 32t71 36.5l20 -129q-72 -43 -163 -69.5t-169 -36.5q-10 -2 -27.5 -2h-25.5q-86 0 -152.5 37.5t-107.5 104t-53.5 157t10.5 194.5l8 35q29 109 87.5 205t134 167.5t161.5 113.5t172 42t151.5 -35.5t102.5 -101t44 -157t-21 -201.5l-21 -76 h-680q-10 -72 -1 -134.5t36 -110.5t70 -75.5t100 -27.5zM887 602q6 63 -5.5 117.5t-37 94.5t-63.5 62.5t-87 22.5t-100 -21.5t-97 -60.5t-86 -93t-67 -122h543zM795 1071h-106l227 223h217z" />
<glyph unicode="&#xea;" horiz-adv-x="933" d="M512 119q37 0 81 9t88 22.5t84 32t71 36.5l20 -129q-72 -43 -163 -69.5t-169 -36.5q-10 -2 -27.5 -2h-25.5q-86 0 -152.5 37.5t-107.5 104t-53.5 157t10.5 194.5l8 35q29 109 87.5 205t134 167.5t161.5 113.5t172 42t151.5 -35.5t102.5 -101t44 -157t-21 -201.5l-21 -76 h-680q-10 -72 -1 -134.5t36 -110.5t70 -75.5t100 -27.5zM887 602q6 63 -5.5 117.5t-37 94.5t-63.5 62.5t-87 22.5t-100 -21.5t-97 -60.5t-86 -93t-67 -122h543zM821 1372l184 -246l-114 -88l-115 162l-207 -162l-59 90z" />
<glyph unicode="&#xeb;" horiz-adv-x="933" d="M512 119q37 0 81 9t88 22.5t84 32t71 36.5l20 -129q-72 -43 -163 -69.5t-169 -36.5q-10 -2 -27.5 -2h-25.5q-86 0 -152.5 37.5t-107.5 104t-53.5 157t10.5 194.5l8 35q29 109 87.5 205t134 167.5t161.5 113.5t172 42t151.5 -35.5t102.5 -101t44 -157t-21 -201.5l-21 -76 h-680q-10 -72 -1 -134.5t36 -110.5t70 -75.5t100 -27.5zM887 602q6 63 -5.5 117.5t-37 94.5t-63.5 62.5t-87 22.5t-100 -21.5t-97 -60.5t-86 -93t-67 -122h543zM587 1286q10 35 40 57.5t65 22.5q33 0 53 -22.5t10 -57.5q-10 -31 -41.5 -55.5t-64.5 -24.5q-35 0 -53.5 24.5 t-8.5 55.5zM847 1286q10 35 39 57.5t64 22.5t54.5 -22.5t8.5 -57.5q-10 -31 -40.5 -55.5t-65.5 -24.5t-52.5 24.5t-7.5 55.5z" />
<glyph unicode="&#xec;" horiz-adv-x="432" d="M434 1024h133l-270 -1024h-133zM311 1323h224l106 -223h-102z" />
<glyph unicode="&#xed;" horiz-adv-x="432" d="M377 1024h135l-270 -1024h-136zM455 1100h-107l227 223h218z" />
<glyph unicode="&#xee;" horiz-adv-x="362" d="M377 1024h133l-270 -1024h-134zM555 1401l184 -246l-114 -88l-115 162l-207 -162l-59 90z" />
<glyph unicode="&#xef;" horiz-adv-x="362" d="M377 1024h133l-270 -1024h-134zM342 1286q10 35 40 57.5t64 22.5q35 0 54.5 -22.5t9.5 -57.5q-10 -31 -41 -55.5t-66 -24.5t-53 24.5t-8 55.5zM526 1286q10 35 39 57.5t66 22.5q33 0 52 -22.5t9 -57.5q-10 -31 -40.5 -55.5t-63.5 -24.5q-37 0 -54.5 24.5t-7.5 55.5z" />
<glyph unicode="&#xf0;" horiz-adv-x="1001" d="M322 975q25 88 79 166t127.5 136t160.5 93t177 35q88 0 154.5 -34t110 -92t58.5 -135t-1 -163q-12 -63 -31.5 -136t-36.5 -138l-14 -52q-23 -80 -47.5 -154.5t-57.5 -146.5q-37 -82 -97 -149.5t-134 -116.5t-156 -75.5t-163 -26.5q-100 0 -181.5 53t-128.5 139l148 98 q31 -72 87 -111.5t126 -39.5q59 0 115.5 20.5t106.5 55.5t91 83t68 103v-2q29 68 52 141.5t46 149.5q-74 -55 -165 -91t-183 -36q-86 0 -153.5 31.5t-110.5 87t-58.5 131t6.5 162.5zM451 965q-12 -59 -1 -109.5t39.5 -89.5t74.5 -60.5t106 -21.5q61 0 122.5 22.5t112.5 62.5 t90 94.5t56 115.5q14 57 3.5 109.5t-41 92.5t-77.5 62.5t-105 22.5q-63 0 -124.5 -24.5t-112.5 -66.5t-89 -96.5t-54 -113.5z" />
<glyph unicode="&#xf1;" horiz-adv-x="886" d="M922 1065q-20 39 -47 59.5t-50 20.5q-14 0 -27.5 -3t-23.5 -7h2q-33 -16 -64.5 -23.5t-64.5 -7.5q-35 0 -72.5 10t-70.5 33l76 158q23 -35 48 -55.5t46 -20.5q14 0 28.5 4t26.5 8h-2q31 16 63.5 23.5t65.5 7.5q35 0 70 -13.5t73 -37.5zM465 967q127 102 270 102 q72 0 127.5 -29.5t89 -82t44 -122t-8.5 -149.5l-170 -657h-135l174 657q12 51 7 96t-25.5 78t-54 52.5t-78.5 19.5q-41 0 -86.5 -18.5t-87.5 -48t-77.5 -69.5t-56.5 -83q-8 -31 -18 -73t-22.5 -88t-25 -93t-22.5 -84l-92 -346h-137l270 1024h137z" />
<glyph unicode="&#xf2;" horiz-adv-x="1079" d="M301 506q-23 -80 -14.5 -150.5t41 -124t88 -84t127.5 -30.5q70 0 140.5 30.5t130.5 84t105.5 124t67.5 150.5q20 82 13 153.5t-39.5 125t-86 84t-122.5 30.5q-72 0 -143.5 -30.5t-133 -84t-108 -125t-66.5 -153.5zM164 506q29 111 93.5 207t148 167.5t183 113.5t199.5 42 q98 0 174 -42t122 -113.5t57.5 -168t-17.5 -206.5q-29 -109 -92 -204t-147 -167t-182.5 -113.5t-196.5 -41.5q-100 0 -177 41.5t-123 113.5t-58.5 167t16.5 204zM588 1294h223l107 -223h-103z" />
<glyph unicode="&#xf3;" horiz-adv-x="1079" d="M301 506q-23 -80 -14.5 -150.5t41 -124t88 -84t127.5 -30.5q70 0 140.5 30.5t130.5 84t105.5 124t67.5 150.5q20 82 13 153.5t-39.5 125t-86 84t-122.5 30.5q-72 0 -143.5 -30.5t-133 -84t-108 -125t-66.5 -153.5zM164 506q29 111 93.5 207t148 167.5t183 113.5t199.5 42 q98 0 174 -42t122 -113.5t57.5 -168t-17.5 -206.5q-29 -109 -92 -204t-147 -167t-182.5 -113.5t-196.5 -41.5q-100 0 -177 41.5t-123 113.5t-58.5 167t16.5 204zM850 1071h-106l227 223h217z" />
<glyph unicode="&#xf4;" horiz-adv-x="1050" d="M301 506q-23 -80 -14.5 -150.5t41 -124t88 -84t127.5 -30.5q70 0 140.5 30.5t130.5 84t105.5 124t67.5 150.5q20 82 13 153.5t-39.5 125t-86 84t-122.5 30.5q-72 0 -143.5 -30.5t-133 -84t-108 -125t-66.5 -153.5zM164 506q29 111 93.5 207t148 167.5t183 113.5t199.5 42 q98 0 174 -42t122 -113.5t57.5 -168t-17.5 -206.5q-29 -109 -92 -204t-147 -167t-182.5 -113.5t-196.5 -41.5q-100 0 -177 41.5t-123 113.5t-58.5 167t16.5 204zM881 1372l184 -246l-114 -88l-115 162l-207 -162l-59 90z" />
<glyph unicode="&#xf5;" horiz-adv-x="1050" d="M301 506q-23 -80 -14.5 -150.5t41 -124t88 -84t127.5 -30.5q70 0 140.5 30.5t130.5 84t105.5 124t67.5 150.5q20 82 13 153.5t-39.5 125t-86 84t-122.5 30.5q-72 0 -143.5 -30.5t-133 -84t-108 -125t-66.5 -153.5zM164 506q29 111 93.5 207t148 167.5t183 113.5t199.5 42 q98 0 174 -42t122 -113.5t57.5 -168t-17.5 -206.5q-29 -109 -92 -204t-147 -167t-182.5 -113.5t-196.5 -41.5q-100 0 -177 41.5t-123 113.5t-58.5 167t16.5 204zM1026 1069q-20 47 -44.5 72.5t-47.5 25.5q-10 0 -26.5 -5t-26.5 -9h2q-27 -16 -62.5 -26.5t-66.5 -10.5 q-35 0 -72 13.5t-67 41.5l78 170q43 -84 96 -84q16 0 49 15h-2q70 33 135 33q35 0 71 -13.5t68 -40.5z" />
<glyph unicode="&#xf6;" horiz-adv-x="1079" d="M301 506q-23 -80 -14.5 -150.5t41 -124t88 -84t127.5 -30.5q70 0 140.5 30.5t130.5 84t105.5 124t67.5 150.5q20 82 13 153.5t-39.5 125t-86 84t-122.5 30.5q-72 0 -143.5 -30.5t-133 -84t-108 -125t-66.5 -153.5zM164 506q29 111 93.5 207t148 167.5t183 113.5t199.5 42 q98 0 174 -42t122 -113.5t57.5 -168t-17.5 -206.5q-29 -109 -92 -204t-147 -167t-182.5 -113.5t-196.5 -41.5q-100 0 -177 41.5t-123 113.5t-58.5 167t16.5 204zM671 1286q10 35 40 57.5t65 22.5q33 0 53 -22.5t10 -57.5q-10 -31 -41.5 -55.5t-64.5 -24.5q-35 0 -53.5 24.5 t-8.5 55.5zM931 1286q10 35 39 57.5t64 22.5t54.5 -22.5t8.5 -57.5q-10 -31 -40.5 -55.5t-65.5 -24.5t-52.5 24.5t-7.5 55.5z" />
<glyph unicode="&#xf7;" horiz-adv-x="870" d="M444 451h181l-47 -181h-181zM573 928h181l-47 -178h-181zM211 559l37 135h723l-37 -135h-723z" />
<glyph unicode="&#xf8;" horiz-adv-x="1050" d="M164 506q29 111 93.5 207t148 167.5t183 113.5t199.5 42q104 0 183.5 -50t130.5 -136l-131 -88q-39 63 -96.5 100t-122.5 37q-72 0 -143.5 -30.5t-133 -84t-107.5 -125t-67 -153.5q-16 -55 -18 -109.5t12 -101.5l-127 -90q-20 76 -22 150.5t18 150.5zM987 506 q16 61 12 121.5t-22 117.5l131 93q29 -76 34 -160t-18 -172q-29 -109 -92 -204t-147 -167t-182.5 -113.5t-196.5 -41.5q-113 0 -198 55t-132 153l125 93q37 -76 100.5 -120t141.5 -44q70 0 140.5 30.5t130.5 84t105 124t68 150.5z" />
<glyph unicode="&#xf9;" horiz-adv-x="921" d="M694 84q-59 -47 -127.5 -74.5t-140.5 -27.5q-74 0 -128 29.5t-88 81.5t-42 123t10 151l170 657h133l-172 -657q-12 -49 -6 -94.5t25.5 -79t54.5 -53t82 -19.5q43 0 87 18.5t84 49t73.5 70.5t54.5 81l182 684h135l-272 -1024h-133zM512 1294h223l107 -223h-103z" />
<glyph unicode="&#xfa;" horiz-adv-x="921" d="M694 84q-59 -47 -127.5 -74.5t-140.5 -27.5q-74 0 -128 29.5t-88 81.5t-42 123t10 151l170 657h133l-172 -657q-12 -49 -6 -94.5t25.5 -79t54.5 -53t82 -19.5q43 0 87 18.5t84 49t73.5 70.5t54.5 81l182 684h135l-272 -1024h-133zM741 1071h-106l227 223h217z" />
<glyph unicode="&#xfb;" horiz-adv-x="921" d="M694 84q-59 -47 -127.5 -74.5t-140.5 -27.5q-74 0 -128 29.5t-88 81.5t-42 123t10 151l170 657h133l-172 -657q-12 -49 -6 -94.5t25.5 -79t54.5 -53t82 -19.5q43 0 87 18.5t84 49t73.5 70.5t54.5 81l182 684h135l-272 -1024h-133zM815 1372l184 -246l-114 -88l-115 162 l-207 -162l-59 90z" />
<glyph unicode="&#xfc;" horiz-adv-x="921" d="M694 84q-59 -47 -127.5 -74.5t-140.5 -27.5q-74 0 -128 29.5t-88 81.5t-42 123t10 151l170 657h133l-172 -657q-12 -49 -6 -94.5t25.5 -79t54.5 -53t82 -19.5q43 0 87 18.5t84 49t73.5 70.5t54.5 81l182 684h135l-272 -1024h-133zM581 1286q10 35 40 57.5t65 22.5 q33 0 53 -22.5t10 -57.5q-10 -31 -41.5 -55.5t-64.5 -24.5q-35 0 -53.5 24.5t-8.5 55.5zM841 1286q10 35 39 57.5t64 22.5t54.5 -22.5t8.5 -57.5q-10 -31 -40.5 -55.5t-65.5 -24.5t-52.5 24.5t-7.5 55.5z" />
<glyph unicode="&#xfd;" horiz-adv-x="1095" d="M45 -240q49 -16 84 -16q80 0 172 83t203 273q-16 113 -35 225.5t-35 227.5q-16 117 -33.5 243t-34.5 240h142l104 -770q53 80 101.5 155t101.5 154q74 113 153.5 232t153.5 229h148l-641 -950l2 2q-18 -29 -38 -57.5t-38 -57.5l-72 -112q-37 -59 -85 -105.5t-101 -79 t-108.5 -49t-104.5 -16.5q-45 0 -94 16zM870 1071h-106l227 223h217z" />
<glyph unicode="&#xfe;" horiz-adv-x="1058" d="M506 985q61 27 130 41t146 14q102 -2 180 -45t126.5 -113.5t61.5 -165.5t-15 -202q-31 -111 -95.5 -208t-150.5 -168.5t-187.5 -113.5t-203.5 -42q-78 0 -137.5 17t-106.5 42l-113 -422h-137l475 1778h137zM299 207q-6 -16 9.5 -31.5t48 -28t78.5 -19.5t100 -9 q74 2 146.5 33.5t136 85t110.5 124t67 150.5q20 78 11 148.5t-43.5 124t-91 85t-128.5 31.5q-96 0 -176 -25.5t-108 -56.5z" />
<glyph unicode="&#xff;" horiz-adv-x="1095" d="M45 -240q49 -16 84 -16q80 0 172 83t203 273q-16 113 -35 225.5t-35 227.5q-16 117 -33.5 243t-34.5 240h142l104 -770q53 80 101.5 155t101.5 154q74 113 153.5 232t153.5 229h148l-641 -950l2 2q-18 -29 -38 -57.5t-38 -57.5l-72 -112q-37 -59 -85 -105.5t-101 -79 t-108.5 -49t-104.5 -16.5q-45 0 -94 16zM690 1286q10 35 40 57.5t65 22.5q33 0 53 -22.5t10 -57.5q-10 -31 -41.5 -55.5t-64.5 -24.5q-35 0 -53.5 24.5t-8.5 55.5zM950 1286q10 35 39 57.5t64 22.5t54.5 -22.5t8.5 -57.5q-10 -31 -40.5 -55.5t-65.5 -24.5t-52.5 24.5 t-7.5 55.5z" />
<glyph unicode="&#x152;" horiz-adv-x="2162" d="M1192 180q-115 -96 -242 -147t-262 -51q-129 0 -230.5 55t-164 152.5t-78.5 230.5t25 287q39 150 125 279.5t199.5 227t245.5 153.5t265 56q334 0 438 -264l70 256h842l-37 -135h-702l-123 -459h600l-37 -139h-600l-146 -543h703l-35 -139h-842l66 254q-18 -16 -37.5 -36 t-42.5 -38zM1346 1130q-47 74 -126 113t-184 39q-104 0 -207.5 -45t-192.5 -123t-156.5 -182.5t-100.5 -224.5q-33 -123 -22.5 -229.5t57.5 -185.5t127 -124t186 -45q100 0 199.5 43t186.5 115.5t156.5 170t110.5 205.5l25 99q23 115 6.5 208.5t-65.5 165.5z" />
<glyph unicode="&#x153;" horiz-adv-x="1802" d="M1341 117q31 0 72 9t84 22.5t84 30t72 28.5l20 -119q-70 -35 -155.5 -63.5t-159.5 -40.5q-10 -2 -24.5 -2h-28.5q-121 0 -200 72.5t-106 189.5q-47 -55 -104 -103.5t-119.5 -84.5t-129 -56t-130.5 -20q-98 0 -175 41.5t-124 113.5t-59.5 167t16.5 204q29 111 93.5 207 t149.5 167.5t184 113.5t198 42q63 0 118.5 -20.5t98.5 -55t74.5 -82t50.5 -102.5q43 57 93 105.5t105.5 83t112.5 54t113 19.5q86 0 151.5 -40t102 -109.5t43 -163.5t-22.5 -205l-20 -74h-686q-12 -72 -3 -132t36.5 -103t71.5 -68.5t103 -25.5zM311 506 q-23 -80 -14.5 -150.5t41.5 -124t88 -84t127 -30.5q70 0 139.5 30.5t130 84t105.5 124t67 150.5q20 82 13 153.5t-38.5 125t-85 84t-122.5 30.5q-72 0 -143.5 -30.5t-133 -84t-108 -125t-66.5 -153.5zM1716 580q8 68 0 126t-32.5 101t-64.5 67.5t-91 24.5q-47 0 -97.5 -24.5 t-97.5 -67.5t-89 -101.5t-73 -125.5h545z" />
<glyph unicode="&#x178;" horiz-adv-x="1394" d="M1714 1415l-794 -782l-82 -307q-23 -80 -43.5 -165t-40.5 -161h-142l166 633q-25 53 -51.5 108.5t-52.5 114.5q-31 66 -66 139.5t-70.5 146t-69.5 143.5t-62 130h182l297 -645q45 45 86 87t86 87q117 117 238.5 236.5t238.5 234.5h180zM870 1497q10 35 40 57.5t65 22.5 q33 0 53 -22.5t10 -57.5q-10 -31 -41.5 -55.5t-64.5 -24.5q-35 0 -53.5 24.5t-8.5 55.5zM1130 1497q10 35 39 57.5t64 22.5t54.5 -22.5t8.5 -57.5q-10 -31 -40.5 -55.5t-65.5 -24.5t-52.5 24.5t-7.5 55.5z" />
<glyph unicode="&#x2c6;" horiz-adv-x="548" d="M641 1372l184 -246l-114 -88l-115 162l-207 -162l-59 90z" />
<glyph unicode="&#x2dc;" horiz-adv-x="684" d="M827 1069q-20 47 -44.5 72.5t-47.5 25.5q-10 0 -26.5 -5t-26.5 -9h2q-27 -16 -62.5 -26.5t-66.5 -10.5q-35 0 -72 13.5t-67 41.5l78 170q43 -84 96 -84q16 0 49 15h-2q70 33 135 33q35 0 71 -13.5t68 -40.5z" />
<glyph unicode="&#x2000;" horiz-adv-x="881" />
<glyph unicode="&#x2001;" horiz-adv-x="1763" />
<glyph unicode="&#x2002;" horiz-adv-x="881" />
<glyph unicode="&#x2003;" horiz-adv-x="1763" />
<glyph unicode="&#x2004;" horiz-adv-x="587" />
<glyph unicode="&#x2005;" horiz-adv-x="440" />
<glyph unicode="&#x2006;" horiz-adv-x="293" />
<glyph unicode="&#x2007;" horiz-adv-x="293" />
<glyph unicode="&#x2008;" horiz-adv-x="220" />
<glyph unicode="&#x2009;" horiz-adv-x="352" />
<glyph unicode="&#x200a;" horiz-adv-x="97" />
<glyph unicode="&#x2010;" horiz-adv-x="862" d="M205 530l37 136h723l-37 -136h-723z" />
<glyph unicode="&#x2011;" horiz-adv-x="862" d="M205 530l37 136h723l-37 -136h-723z" />
<glyph unicode="&#x2012;" horiz-adv-x="862" d="M205 530l37 136h723l-37 -136h-723z" />
<glyph unicode="&#x2013;" horiz-adv-x="851" d="M205 530l37 136h723l-37 -136h-723z" />
<glyph unicode="&#x2014;" horiz-adv-x="1089" d="M209 530l37 136h944l-37 -136h-944z" />
<glyph unicode="&#x2018;" horiz-adv-x="307" d="M532 1090l-149 -62l-27 150l164 223l49 -29l-63 -160z" />
<glyph unicode="&#x2019;" horiz-adv-x="325" d="M459 1384l149 11l-24 -160l-222 -180l-32 43l106 141z" />
<glyph unicode="&#x201a;" horiz-adv-x="352" d="M172 180h150l-43 -164l-240 -166l-21 56l117 131z" />
<glyph unicode="&#x201c;" horiz-adv-x="446" d="M666 1239q6 -29 11 -61.5t13 -61.5q0 -4 1 -9t1 -9l-53 -43l-123 180l62 160l145 -11zM524 1239q6 -29 11.5 -61.5t13.5 -61.5q0 -4 1 -9t1 -9l-53 -43l-123 180l61 160l146 -11z" />
<glyph unicode="&#x201d;" horiz-adv-x="485" d="M459 1384l149 11l-24 -160l-222 -180l-28 43l104 141zM600 1384l150 11l-25 -160l-221 -180l-29 43l105 141z" />
<glyph unicode="&#x201e;" horiz-adv-x="473" d="M150 182h149l-43 -159l-233 -168l-21 51l113 131zM297 182h145l-43 -164l-235 -168l-19 54l113 133z" />
<glyph unicode="&#x2022;" horiz-adv-x="428" d="M268 770q8 31 27.5 57.5t46.5 47t56.5 33t60.5 12.5q59 0 92 -45.5t16 -104.5q-6 -29 -25.5 -54.5t-46 -45t-57 -31.5t-59.5 -12q-59 0 -92 44t-19 99z" />
<glyph unicode="&#x2026;" horiz-adv-x="890" d="M113 180h180l-45 -180h-180zM393 180h180l-45 -180h-180zM674 180h180l-45 -180h-180z" />
<glyph unicode="&#x202f;" horiz-adv-x="352" />
<glyph unicode="&#x2039;" horiz-adv-x="720" d="M846 1024l72 -96l-529 -420q35 -47 70 -95t73 -100q39 -53 82 -109.5t80 -105.5l-121 -100l-376 510z" />
<glyph unicode="&#x203a;" horiz-adv-x="702" d="M805 508l-649 -510l-70 100l528 410q-72 102 -152.5 210.5t-152.5 209.5l123 96z" />
<glyph unicode="&#x205f;" horiz-adv-x="440" />
<glyph unicode="&#x20ac;" horiz-adv-x="1525" d="M1497 225q-133 -109 -281.5 -176t-295.5 -67q-119 0 -213.5 38.5t-161 108.5t-100 166t-29.5 211h-211l37 137h192v6q2 10 5 22.5t5 18.5q4 18 11.5 39t13.5 37l2 6h-195l37 139h219q61 111 147.5 201t188 154.5t212 100.5t220.5 36q147 0 260 -67.5t187 -176.5l-125 -98 q-61 94 -149.5 148.5t-208.5 54.5q-82 0 -164 -27t-159 -73t-143.5 -111.5t-117.5 -141.5h651l-37 -139h-684q-10 -18 -16 -38.5t-12 -43.5q-6 -16 -7 -33q-4 -6 -3 -9t1 -5h687l-37 -137h-658q6 -80 37 -150.5t82 -123t120.5 -82t151.5 -29.5q119 0 238 56t233 157z" />
<glyph unicode="&#x2122;" horiz-adv-x="854" d="M522 930h-116l90 338h-117l31 110h346l-31 -110h-113zM1108 1378l-121 -448h-115l54 198q-20 -23 -33.5 -41t-24.5 -28h-63l-21 65l-53 -194h-115l121 448h92l52 -155q14 16 35.5 42.5t35.5 43.5q6 6 12.5 13t12.5 15q10 10 20.5 21.5t18.5 19.5h92z" />
<glyph unicode="&#x25fc;" horiz-adv-x="1024" d="M0 1024h1024v-1024h-1024v1024z" />
<glyph unicode="&#xfb01;" horiz-adv-x="1034" d="M932 1255q-37 10 -56.5 11.5t-31.5 1.5q-37 -2 -74 -21.5t-68.5 -51.5t-57.5 -76t-38 -93l-6 -25h252l-266 -1001h-133l229 864h-119l-112 -418q-29 -111 -59 -226.5t-58 -219.5h-131l229 864h-145l37 137h143l12 48q23 72 66 136t97 112.5t116.5 77t122.5 28.5 q29 0 55.5 -1t73.5 -7z" />
<glyph unicode="&#xfb02;" horiz-adv-x="1003" d="M1004 1403l-373 -1403h-139l229 864h-158l-112 -418q-29 -111 -59 -226.5t-58 -219.5h-131l229 864h-145l37 137h143q0 4 1 7.5t1 7.5v6l8 27q23 74 66 137t97 111.5t116.5 76t124.5 29.5h123zM600 1001h158l69 265q-72 -14 -134 -81t-87 -159zM844 1268h45l-45 61 l-13 -49z" />
</font>
</defs>
</svg>
