<?xml version="1.0" standalone="no"?>
<!DOCTYPE svg PUBLIC "-//W3C//DTD SVG 1.1//EN" "http://www.w3.org/Graphics/SVG/1.1/DTD/svg11.dtd" >
<svg xmlns="http://www.w3.org/2000/svg" xmlns:xlink="http://www.w3.org/1999/xlink" version="1.1">
<metadata></metadata>
<defs>
<font id="new_ciclesemi_italic" horiz-adv-x="1220" >
<font-face units-per-em="2048" ascent="1638" descent="-410" />
<missing-glyph horiz-adv-x="526" />
<glyph horiz-adv-x="0" />
<glyph unicode="&#xd;" horiz-adv-x="526" />
<glyph unicode=" "  horiz-adv-x="526" />
<glyph unicode="&#x09;" horiz-adv-x="526" />
<glyph unicode="&#xa0;" horiz-adv-x="526" />
<glyph unicode="!" horiz-adv-x="360" d="M231 43q-6 -25 -28.5 -43t-46.5 -18q-27 0 -39.5 18t-5.5 43q8 27 29.5 44t47.5 17q29 0 39.5 -17t3.5 -42v-2zM487 1405h99l-324 -1208h-98z" />
<glyph unicode="&#x22;" horiz-adv-x="444" d="M436 1405h121l-20 -141l-136 -183l-22 31zM586 1405h121l-21 -141l-135 -183l-23 31z" />
<glyph unicode="#" horiz-adv-x="1462" d="M287 555h205q41 66 81.5 129.5t83.5 128.5h-397l123 115h344q59 96 123.5 192.5t124.5 190.5h119l-242 -383h446q59 96 123 192.5t123 190.5h119l-242 -383h242l-123 -115h-188q-41 -66 -84 -129t-84 -129h381l-127 -115h-328q-66 -106 -136.5 -220t-135.5 -220h-123 l276 440h-450q-66 -106 -137.5 -220t-137.5 -220h-121l277 440h-260zM614 555h449q41 66 82 129.5t82 128.5h-447z" />
<glyph unicode="$" horiz-adv-x="954" d="M760 1294q-53 -12 -102.5 -36.5t-90.5 -58.5t-70.5 -76t-41.5 -87q-25 -92 19 -168.5t142 -105.5zM551 100q51 8 101 30t91 54.5t72 75.5t45 92q27 98 -20 177t-148 102zM924 1497l-23 -86q109 -4 184.5 -49t122.5 -119l-108 -72q-33 55 -92.5 92t-135.5 42l-151 -566 q72 -16 128 -52t91 -86t45 -111.5t-8 -131.5q-18 -72 -63.5 -134t-107 -111.5t-135 -82t-151.5 -42.5l-33 -119h-110l31 115h-11q-104 10 -179 65t-109 135l108 72q25 -59 82 -108.5t139 -53.5l148 551q-74 16 -129.5 52t-88 86.5t-42 112.5t9.5 132q18 72 62 134.5 t103.5 111.5t133.5 83t153 48l25 92h111z" />
<glyph unicode="%" horiz-adv-x="1583" d="M1509 1405h131l-1189 -1403h-127zM479 1022q-12 -47 -8 -89t22.5 -75t50 -51.5t72.5 -18.5q39 0 79 18.5t75 51.5t61.5 75t38.5 89q12 49 8 92t-21 74t-47 49t-69 18q-41 0 -83 -18t-76.5 -49t-62.5 -74t-40 -92zM367 1022q18 72 59 134.5t96.5 109.5t119 73.5 t128.5 26.5q63 0 111.5 -26.5t78 -73.5t35.5 -109.5t-12 -134.5t-59 -134.5t-94.5 -108.5t-117 -73.5t-126.5 -27.5q-66 0 -115 27.5t-79 73.5t-36.5 108.5t11.5 134.5zM1065 350q-12 -49 -8 -91t21.5 -73.5t48 -50t69.5 -18.5q41 0 83 18.5t77 50t62.5 73.5t39.5 91t8 92 t-22.5 74t-50 49.5t-72.5 18.5q-39 0 -79 -18.5t-74.5 -49.5t-62.5 -74t-40 -92zM954 350q20 72 61.5 135.5t94.5 109.5t115.5 72.5t124.5 26.5q63 0 113 -26.5t80 -72.5t38 -109.5t-12 -135.5q-18 -72 -59.5 -134t-96.5 -108.5t-119.5 -74t-128.5 -27.5q-61 0 -108 27.5 t-77 74t-37 108.5t11 134z" />
<glyph unicode="&#x26;" horiz-adv-x="1222" d="M502 0q-92 0 -162 31.5t-113 85t-56 124t7 148.5q33 117 138.5 219.5t289.5 175.5q12 6 18.5 8.5t20.5 8.5q-4 6 -7 14t-7 14q-37 55 -56.5 97.5t-26.5 77t-4 62.5t9 56q14 55 52 107.5t90.5 93.5t119 65.5t139.5 24.5q68 0 118 -22.5t81 -60.5t39 -88t-6 -107 q-12 -45 -34 -87t-58.5 -83t-91 -81t-130.5 -79l-55 -33q49 -94 96.5 -179t98.5 -181l19 19t16 20v-2q4 4 9 10t9 10q29 29 59.5 64.5t57.5 89.5l94 -19q-51 -86 -109.5 -154.5t-105.5 -119.5q16 -41 26.5 -63.5t24.5 -47.5h-2q8 -16 19.5 -36.5t23.5 -47.5l-41 -155 q-25 35 -45 66.5t-35 53.5q-8 12 -22.5 36t-32.5 50v2q-4 10 -6 11.5t-6 11.5q-8 -8 -13.5 -14.5t-15.5 -14.5q-98 -98 -210.5 -141t-223.5 -41zM1077 1135q23 80 -21 131t-130 51q-39 0 -81 -16.5t-79 -43t-65.5 -61.5t-38.5 -74q-10 -43 -1 -80.5t33 -78.5l66 -107 q10 6 18 10t19 11q59 29 108 63.5t85 69t58.5 67.5t28.5 58zM920 289q-59 109 -117 216t-117 216q-186 -86 -281.5 -169t-117.5 -167q-14 -53 -3 -104.5t43.5 -91t84 -64.5t116.5 -25q88 -2 187.5 45.5t179.5 120.5zM682 731q2 -4 2 -5t2 -5l6 3l6 3z" />
<glyph unicode="'" horiz-adv-x="247" d="M453 1395l125 10l-21 -143l-209 -172l-20 28l104 139z" />
<glyph unicode="(" horiz-adv-x="532" d="M721 1300q-51 -47 -102.5 -119.5t-97.5 -164.5t-87 -200.5t-72 -225.5q-35 -129 -52 -245t-17 -213t16.5 -170t48.5 -114l-96 -108q-41 55 -63.5 141t-26.5 196.5t12.5 241t55.5 271.5q37 135 88 262t112.5 235.5t129 195.5t135.5 142z" />
<glyph unicode=")" horiz-adv-x="503" d="M557 1425q37 -57 58.5 -144t25.5 -195.5t-11.5 -234.5t-51.5 -261q-39 -141 -92.5 -271.5t-117 -241t-133 -196.5t-139.5 -141l-37 108q55 41 110.5 114t108 170t97.5 213t80 245q31 117 47 225.5t19 200.5t-8 164.5t-36 119.5z" />
<glyph unicode="*" horiz-adv-x="964" d="M739 772h-110l57 221q-49 -39 -100 -79t-99 -74l-59 75l203 160h-221l30 111h222l-117 157l100 80l115 -157l59 223h111l-60 -223l201 157l59 -77l-200 -158h223l-31 -113h-225q27 -39 58.5 -80t58.5 -80l-99 -75l-116 157z" />
<glyph unicode="+" horiz-adv-x="925" d="M578 242h-111l82 303h-301l28 110h302l81 301h111l-82 -301h303l-28 -110h-304z" />
<glyph unicode="," horiz-adv-x="354" d="M182 156h125l-39 -148l-225 -153l-12 34l116 129z" />
<glyph unicode="-" horiz-adv-x="862" d="M219 545l29 110h715l-29 -110h-715z" />
<glyph unicode="." horiz-adv-x="296" d="M113 156h155l-39 -156h-155z" />
<glyph unicode="/" horiz-adv-x="774" d="M197 0h-121l887 1405h118z" />
<glyph unicode="0" horiz-adv-x="1200" d="M377 698q-35 -127 -32 -236.5t37 -191.5t95.5 -129t145.5 -47q86 0 172 47t162.5 129t137 191.5t95.5 236.5q33 125 32 234.5t-34 191.5t-94.5 129t-147.5 47q-84 0 -171 -47t-163.5 -129t-139 -191.5t-95.5 -234.5zM264 698q39 147 116 278.5t173 227.5t205.5 152.5 t216.5 56.5q106 0 186 -56.5t124 -152.5t49 -227t-34 -279q-41 -147 -115.5 -277t-170.5 -228.5t-206 -154.5t-216 -56t-186 56t-124 154.5t-51.5 228.5t33.5 277z" />
<glyph unicode="1" horiz-adv-x="626" d="M371 1135l399 270h100l-372 -1405h-111l334 1255q-92 -61 -194.5 -131.5t-194.5 -130.5z" />
<glyph unicode="2" horiz-adv-x="972" d="M940 111l-29 -111h-835l26 102l754 652q53 45 91 99t54 118q18 70 8 129t-43.5 104t-88 70.5t-123.5 25.5q-70 0 -140.5 -27.5t-134.5 -76.5l-59 80q86 61 179 99t183 38q92 0 164 -35t117 -95t59.5 -140t-10.5 -172q-23 -86 -76 -162t-123 -135q-164 -143 -325.5 -281.5 t-327.5 -281.5h680z" />
<glyph unicode="3" horiz-adv-x="882" d="M412 1274q82 68 164.5 102.5t183.5 34.5q88 0 157.5 -30.5t113.5 -84t58.5 -124t-6.5 -152.5q-29 -106 -106.5 -179t-181.5 -120q39 -27 67.5 -67t45 -87t18.5 -98t-11 -100q-23 -76 -75 -143.5t-124.5 -118t-158.5 -80t-174 -29.5q-51 0 -100.5 15.5t-92.5 41 t-76.5 60.5t-52.5 73l103 76q29 -61 100.5 -107t149.5 -46q66 0 128 20.5t114.5 55t90 81.5t54.5 101q12 49 2 99t-40 91t-76 68.5t-103 34.5h-125l30 110h58q23 0 41 1t22 1q61 4 119.5 22.5t107 50.5t83 75t49.5 98q14 57 4 108.5t-43 90t-84 60t-115 21.5 q-78 0 -139.5 -25.5t-120.5 -80.5z" />
<glyph unicode="4" horiz-adv-x="968" d="M233 602l682 809l80 -57l-624 -740h428q20 74 39.5 155t40.5 153h108l-80 -308h142l-31 -110h-141l-134 -504h-108l133 504h-563z" />
<glyph unicode="5" horiz-adv-x="1032" d="M309 700l236 705h731l-29 -113h-620q-39 -102 -73 -194t-75 -197q76 53 163 83t173 30q96 0 161.5 -40t100.5 -107.5t39 -160t-24 -196.5q-29 -104 -88.5 -197.5t-139.5 -163t-174 -109.5t-188 -40q-111 0 -195 57.5t-121 153.5l103 80q27 -82 89 -131t150 -49 q72 0 142.5 31.5t132 85t107.5 126t69 156.5q23 82 22.5 154.5t-24 126t-71.5 84t-120 30.5q-49 0 -101 -14t-101 -42t-92 -66t-76 -83h-107z" />
<glyph unicode="6" horiz-adv-x="1036" d="M1073 408q-25 -90 -80 -168t-128.5 -134.5t-161 -89t-177.5 -32.5q-86 0 -152.5 31.5t-108.5 88t-56 132t6 165.5v-2q10 66 28.5 137.5t37.5 139.5l12 43q23 90 50.5 171t62.5 157t91 142t125.5 115.5t148.5 79t159 31.5q111 0 193.5 -49t129.5 -143l-125 -66 q-31 66 -90 106t-137 40q-59 0 -119.5 -21.5t-114 -59.5t-97.5 -91.5t-70 -114.5q-33 -74 -61.5 -155t-51.5 -167l-4 -16q74 72 168 115t194 47q88 0 159 -31t117 -86t62.5 -131t-6.5 -166zM967 422q14 66 4 122t-43 97t-84 64.5t-117 23.5q-68 0 -132.5 -26.5t-117.5 -71.5 t-93 -104.5t-58 -125.5q-16 -63 -6 -119.5t42.5 -98.5t84 -66.5t114.5 -24.5q66 0 130.5 24.5t118.5 67.5t94 99.5t57 119.5z" />
<glyph unicode="7" horiz-adv-x="907" d="M1020 1292h-600l29 113h784l-1030 -1405h-129z" />
<glyph unicode="8" horiz-adv-x="940" d="M160 395q14 57 45 111.5t72.5 100.5t90 85t101.5 66q-66 47 -89.5 122.5t1.5 174.5q20 74 66.5 139.5t110 113.5t137 76.5t149.5 28.5q78 0 138 -28.5t98 -76.5t49.5 -114t-9.5 -139q-25 -98 -88 -174t-155 -123q80 -53 111.5 -149.5t-1.5 -213.5q-23 -86 -75 -160.5 t-123.5 -131t-155.5 -89t-172 -32.5q-84 0 -150.5 32.5t-107.5 89t-53.5 131t10.5 160.5zM492 1055q-12 -51 -4 -95.5t33.5 -78t66.5 -53t94 -19.5t105.5 19.5t96.5 53t76.5 78t45.5 95.5q14 51 6 96t-34 78t-68 52t-95 19t-104.5 -19t-95.5 -52t-76.5 -78t-46.5 -96z M272 395q-16 -61 -7 -115.5t40 -95.5t78 -65.5t109 -24.5q63 0 125.5 24.5t114.5 65.5t90 95.5t55 115.5q16 61 8 116.5t-39 97.5t-80 65.5t-113 23.5q-61 0 -121.5 -23.5t-112.5 -65.5t-91.5 -97.5t-55.5 -116.5z" />
<glyph unicode="9" horiz-adv-x="1001" d="M334 987q23 88 77 166t127.5 136.5t160.5 92t178 33.5q86 0 152.5 -33.5t108.5 -92t57 -134.5t-1 -162q-12 -66 -31.5 -140.5t-36.5 -139.5l-14 -54q-23 -82 -48.5 -158.5t-57.5 -148.5q-37 -82 -97.5 -149.5t-133.5 -115.5t-154.5 -74.5t-163.5 -26.5q-102 0 -182 50 t-123 130l124 84q31 -72 90.5 -111t135.5 -39q63 0 123.5 21.5t114 58.5t97.5 88t72 111q63 147 107 313l6 25q-76 -66 -176.5 -110t-202.5 -44q-84 0 -151.5 32t-110.5 87t-58.5 130t7.5 161zM436 977q-12 -63 -1 -118.5t44 -96.5t82 -64.5t113 -23.5q68 0 133 24.5 t120.5 67.5t95.5 100.5t58 124.5q16 63 5 119.5t-42.5 98.5t-83 66.5t-112.5 24.5q-68 0 -134.5 -26.5t-121.5 -70.5t-96.5 -103.5t-59.5 -122.5z" />
<glyph unicode=":" horiz-adv-x="372" d="M150 156h155l-39 -156h-155zM381 1024h156l-41 -156h-156z" />
<glyph unicode=";" horiz-adv-x="346" d="M381 1024h154l-41 -156h-154zM160 156h125l-37 -148l-228 -153l-10 34l115 129z" />
<glyph unicode="&#x3c;" horiz-adv-x="675" d="M817 1018l60 -78l-543 -432q76 -102 156.5 -211t158.5 -211l-102 -82l-371 504z" />
<glyph unicode="=" horiz-adv-x="901" d="M371 901h694l-31 -117h-694zM268 514h695l-31 -115h-694z" />
<glyph unicode="&#x3e;" horiz-adv-x="688" d="M782 508l-641 -504l-57 82l541 422q-78 106 -157 216t-157 216l105 78z" />
<glyph unicode="?" horiz-adv-x="839" d="M369 0l-15 649l29 101h203q55 2 108.5 23.5t98.5 58t78.5 86t48.5 104.5q16 57 9 108.5t-34 90.5t-70 60.5t-98 21.5q-74 0 -146.5 -43t-131.5 -111l-60 80q76 84 172 134t195 50q78 0 138 -30.5t97 -84t47.5 -125t-10.5 -151.5q-20 -78 -67.5 -146.5t-112 -122t-140 -84 t-153.5 -30.5h-88q4 -152 10 -320.5t10 -318.5h-118zM352 -178q10 31 35 49t51 18q31 0 45.5 -18t3.5 -49q-8 -29 -31.5 -50.5t-54.5 -21.5q-27 0 -42 21.5t-7 50.5z" />
<glyph unicode="@" horiz-adv-x="1636" d="M938 -184q-92 -25 -186 -25q-145 0 -259 55.5t-184.5 151.5t-91 225t18.5 275q39 147 129 277t211.5 225.5t265 150.5t288.5 55q143 0 254 -51t178.5 -139t87 -205t-17.5 -246q-25 -92 -64.5 -170t-80.5 -137q-47 -68 -96 -123q-43 -45 -95.5 -71.5t-99.5 -26.5 q-39 0 -67.5 15.5t-48 40t-31 54t-17.5 58.5q-20 -6 -52 -14.5t-66.5 -16.5t-70.5 -15t-63 -9q-37 -4 -81 7t-77.5 43.5t-47 88t9.5 141.5q10 47 41 107q45 96 102 159.5t120.5 102.5t127 54t123.5 15q35 0 84 -2t92 -6q51 -4 102 -6q-63 -129 -103 -212t-62.5 -133 t-33 -72.5t-12.5 -30.5l-4 -9q-18 -51 -19 -96t9 -78t30.5 -51t47.5 -18q49 0 96 50t86 117.5t64.5 136t35.5 103.5q29 106 15.5 202.5t-66.5 170.5t-143 117t-215 43q-123 0 -243 -47.5t-222 -128t-178 -189t-109 -231.5t-15.5 -230.5t76 -187.5t153.5 -127t218 -47 q35 0 81 6t106 25zM799 272q49 -2 104 7.5t88 21.5q18 41 37 82t39 82q35 72 65.5 137.5t65.5 136.5h-65q-18 0 -40 1t-44 1q-80 2 -156 -43t-139 -174q-25 -51 -33 -86q-12 -45 -9 -76.5t15 -51t32 -29t40 -9.5z" />
<glyph unicode="A" d="M993 688q-14 137 -28.5 259t-26.5 261q-86 -135 -166 -260t-166 -260h387zM948 1415h92l144 -1415h-117l-63 575h-469q-90 -141 -183.5 -287.5t-183.5 -287.5h-117z" />
<glyph unicode="B" horiz-adv-x="1048" d="M520 0h-420l377 1415h457q78 -2 139.5 -30.5t100 -76.5t51 -113t-5.5 -134q-27 -98 -99.5 -179t-165.5 -130q84 -51 116 -143.5t3 -200.5q-23 -82 -74 -155t-120.5 -127t-152.5 -87t-171 -35h2zM559 1307l-133 -498h344q57 2 111.5 21.5t99.5 53.5t78 79t47 98 q12 47 4 90t-35.5 77t-72 54.5t-99.5 24.5h-344zM584 113q63 2 123.5 26.5t111.5 64.5t88 92t54 112q14 55 4.5 106t-39 90t-76.5 63.5t-109 28.5h-344l-157 -583h344z" />
<glyph unicode="C" horiz-adv-x="1208" d="M1372 1141q-55 80 -139 125t-189 45q-109 0 -217 -47t-202.5 -129t-167 -193t-105.5 -235q-33 -123 -22.5 -235t58.5 -194.5t132 -132t199 -49.5q104 0 208.5 45t205.5 123l57 -76q-117 -96 -246 -151t-256 -55t-228.5 57t-164 155.5t-80.5 230.5t23 282 q39 143 123.5 273t198.5 228.5t247 156.5t268 58q129 0 230.5 -55t164.5 -151z" />
<glyph unicode="D" horiz-adv-x="1177" d="M526 1303l-319 -1190q104 0 209.5 2t210.5 2q80 2 161.5 50t154.5 128t131.5 187.5t90.5 228.5q33 121 32 228.5t-31.5 187t-88 126.5t-137.5 50h-414zM444 1415h527q102 -2 178 -57t118 -150.5t46 -223.5t-35 -273t-110.5 -273.5t-164 -223.5t-197 -152.5t-208.5 -61.5 h-530z" />
<glyph unicode="E" horiz-adv-x="993" d="M991 696h-612l-158 -583h715l-27 -113h-827l377 1415h827l-31 -108h-714l-133 -498h612z" />
<glyph unicode="F" horiz-adv-x="997" d="M997 696h-610q-47 -172 -93 -348t-91 -348h-113l377 1415h827l-28 -106h-715l-135 -500h610z" />
<glyph unicode="G" horiz-adv-x="1236" d="M1178 174q-113 -92 -239 -142t-255 -50q-133 0 -236.5 56t-165 154.5t-78 229.5t24.5 278q39 150 126 281t202 229.5t248 155.5t266 57q129 0 230.5 -54t166.5 -152l-100 -78q-55 80 -139 125t-189 45q-111 0 -221 -47.5t-205.5 -129t-167 -193.5t-106.5 -239 t-21.5 -237.5t63.5 -193.5t135 -131t196 -48q96 0 191 37t179 98l101 377h-383l28 109h496l-139 -521z" />
<glyph unicode="H" horiz-adv-x="1142" d="M389 696q-47 -172 -93 -348t-91 -348h-113l377 1415h113l-164 -606h737l164 606h111l-377 -1415h-111l184 696h-737z" />
<glyph unicode="I" horiz-adv-x="282" d="M201 0h-113l377 1415h113z" />
<glyph unicode="J" horiz-adv-x="624" d="M600 352q-20 -76 -60 -143.5t-91.5 -117.5t-108.5 -79.5t-113 -29.5q-51 0 -90 27.5t-65 70.5l94 78q16 -29 39.5 -46.5t52.5 -17.5q33 0 66.5 18.5t64.5 52.5t56.5 81t39.5 102l287 1067h113z" />
<glyph unicode="K" horiz-adv-x="1193" d="M571 1415l-196 -731l823 731h150l-695 -616q113 -195 234 -399.5t237 -399.5h-145l-422 713q-59 -51 -114.5 -100.5t-114.5 -100.5q-33 -125 -67 -256t-66 -256h-113l377 1415h112z" />
<glyph unicode="L" horiz-adv-x="927" d="M219 113h678l-27 -113h-788l377 1415h110z" />
<glyph unicode="M" horiz-adv-x="1275" d="M1440 1415h108l-379 -1415h-112l313 1184q-145 -170 -294.5 -345t-293.5 -347h-69l-226 692q-78 -297 -156.5 -593t-156.5 -591h-113l377 1415h107l248 -760z" />
<glyph unicode="N" horiz-adv-x="1099" d="M569 1415l379 -1179l318 1179h112l-377 -1415h-106l-381 1186q-80 -297 -159 -594t-156 -592h-111l377 1415h104z" />
<glyph unicode="O" horiz-adv-x="1413" d="M1368 1149q-49 78 -132 119t-189 41q-111 0 -220.5 -47.5t-203 -128t-165 -191.5t-104.5 -235q-35 -127 -23.5 -239t60.5 -195t134 -130t196 -47q115 0 225.5 47t203.5 130t163.5 195t105.5 239q35 133 21.5 246.5t-72.5 195.5zM1190 180q-115 -96 -242 -147t-258 -51 q-129 0 -231.5 55t-165 152.5t-78.5 230.5t25 287q39 150 125 279.5t199.5 227t246.5 153.5t266 56q137 0 240.5 -56t163 -152.5t73 -227.5t-25.5 -280q-43 -160 -130 -294.5t-208 -232.5z" />
<glyph unicode="P" horiz-adv-x="983" d="M393 694q-45 -172 -91 -347t-91 -347h-111l377 1415h412q84 0 150.5 -27.5t108.5 -75.5t56.5 -112.5t-6.5 -138.5q-20 -78 -69.5 -144.5t-118 -115.5t-150.5 -78t-166 -29h-301zM557 1307l-133 -500h301q59 0 117.5 19.5t107.5 53t85 80t50 101.5q14 49 3 94t-42.5 79 t-81 53.5t-110.5 19.5h-297z" />
<glyph unicode="Q" horiz-adv-x="1361" d="M1307 1169q-47 72 -119 113t-170 41q-100 0 -201.5 -45t-189.5 -122t-156 -180.5t-98 -221.5q-31 -115 -22 -215.5t52 -177t116 -122.5t171 -53q-4 25 -22.5 42.5t-53.5 15.5l29 100q78 2 121 -41t39 -108q90 20 177 71t162 125t130 166t84 197q35 123 20.5 230 t-69.5 185zM1145 270q-82 -70 -175 -114.5t-190 -61.5q-4 -53 6.5 -88t36.5 -35q18 0 38 16.5t36 39.5l61 -70q-43 -41 -82.5 -66.5t-80.5 -25.5q-33 0 -57.5 17.5t-40 48t-21.5 70.5t-2 85q-115 6 -207 60.5t-148.5 143.5t-72 207.5t21.5 256.5q39 143 120 265t186.5 212 t227.5 141t242 51q121 0 216.5 -51t152.5 -142t72.5 -213t-21.5 -263q-39 -143 -123.5 -268.5t-195.5 -215.5z" />
<glyph unicode="R" horiz-adv-x="970" d="M371 676l-178 -676h-113l377 1415h411q84 0 150.5 -27.5t109.5 -75.5t57.5 -113.5t-5.5 -139.5q-20 -76 -69.5 -141.5t-118 -114.5t-150.5 -78t-166 -29h-168q104 -170 213.5 -349t214.5 -347h-145zM541 1309l-135 -500h299q59 0 118.5 19.5t108.5 53t85 79t50 98.5 q14 51 3 96t-43 79t-81 54.5t-110 20.5h-295z" />
<glyph unicode="S" horiz-adv-x="993" d="M236 258q29 -76 97 -120t171 -44q61 0 122.5 19.5t114 55.5t90 83t52.5 102q14 53 4 101.5t-40 87.5t-77 64.5t-106 35.5q-86 10 -152 45t-108 88t-55 121t7 141q23 82 76 153t127 122t161 79.5t179 28.5q121 0 203 -44t133 -124l-111 -73q-35 63 -98 99t-154 36 q-63 0 -126.5 -20.5t-119 -57.5t-96.5 -86t-55 -104t-5 -105.5t40 -90.5t80 -65.5t115 -31.5q82 -12 146 -47t104 -88.5t52.5 -119t-6.5 -139.5q-23 -80 -75 -148.5t-123.5 -119.5t-158.5 -80.5t-175 -29.5q-129 0 -217 56t-125 148z" />
<glyph unicode="T" horiz-adv-x="1177" d="M991 1307q-86 -326 -173 -653.5t-173 -653.5h-113l347 1307h-455l31 108h1018l-31 -108h-451z" />
<glyph unicode="U" horiz-adv-x="1224" d="M293 360q-8 -53 14.5 -100t67.5 -84t111.5 -58.5t148.5 -21.5q78 0 153.5 21.5t140 58.5t111.5 84t70 100l283 1055h112l-282 -1055q-25 -78 -85.5 -146.5t-145.5 -120.5t-185 -81.5t-203 -29.5q-109 0 -194.5 29.5t-143 81.5t-83 121t-9.5 146l283 1055h118z" />
<glyph unicode="V" horiz-adv-x="1308" d="M453 1415h116l127 -1235q195 307 395.5 618.5t393.5 616.5h119l-899 -1415h-109z" />
<glyph unicode="W" horiz-adv-x="1873" d="M1243 0h-113l-61 561q-86 -141 -176 -281.5t-176 -279.5h-111l-145 1415h119l127 -1237q86 137 174 276.5t174 276.5q-16 168 -32.5 342t-33.5 342h117l55 -561q18 -176 37 -336t35 -338q195 307 394.5 618.5t391.5 616.5h121z" />
<glyph unicode="X" horiz-adv-x="1107" d="M455 1415h127l192 -590q127 147 255 295t255 295h129l-602 -704q53 -174 112.5 -355.5t112.5 -355.5h-129l-200 612q-129 -154 -260.5 -306t-260.5 -306h-127l613 723z" />
<glyph unicode="Y" horiz-adv-x="1394" d="M1706 1415l-791 -778q-41 -156 -84 -318.5t-83 -318.5h-115l168 637q-88 184 -187.5 389t-185.5 389h150l307 -667q166 166 336 333.5t338 333.5h147z" />
<glyph unicode="Z" horiz-adv-x="1122" d="M281 113h727l-27 -113h-932l1159 1303h-741l31 112h942z" />
<glyph unicode="[" horiz-adv-x="430" d="M342 109q0 2 35 2l-27 -111q-23 0 -47 8t-42.5 21.5t-28 34t-3.5 45.5l129 481q8 33 -7 54.5t-46 21.5h-55l29 110h55q31 0 58.5 22.5t35.5 53.5l123 461q18 41 68.5 66.5t103.5 25.5l-31 -115q-33 0 -33 6l-127 -471q-18 -29 -43.5 -50t-60.5 -25l-16 -56q63 -10 67 -73 l-137 -512v0z" />
<glyph unicode="\" horiz-adv-x="759" d="M449 1405h118l142 -1405h-121z" />
<glyph unicode="]" horiz-adv-x="374" d="M248 618q37 72 100 76q8 25 21 56q-29 6 -47.5 27.5t-18.5 47.5l125 465h-39l31 115q63 0 95 -26.5t28 -65.5l2 -13l-121 -448q-8 -31 4 -53.5t43 -22.5h55l-28 -110h-56q-31 0 -55.5 -21.5t-32.5 -54.5l-129 -481q-6 -25 -25.5 -44.5t-45 -34t-54 -22.5t-53.5 -8l27 111 q16 0 25.5 1t15.5 3z" />
<glyph unicode="^" horiz-adv-x="1128" d="M936 1411l369 -506l-105 -80l-307 428q-135 -104 -273.5 -213.5t-273.5 -214.5l-55 82z" />
<glyph unicode="_" horiz-adv-x="1050" d="M76 0l26 111h867l-27 -111h-866z" />
<glyph unicode="`" horiz-adv-x="417" d="M375 1303h178l96 -201h-76z" />
<glyph unicode="a" horiz-adv-x="835" d="M608 0l17 63q-55 -37 -119 -59t-129 -22q-68 0 -122 24.5t-88 67.5t-45 100t5 121q18 66 60 124t99.5 101t125 68.5t135.5 25.5h225l12 48q14 53 13.5 100t-17 83t-46 57.5t-70.5 23.5q-53 0 -84 -7.5t-72 -17.5q-6 -2 -20.5 -6t-18.5 -6l-2 104q33 10 59.5 18.5t51 13.5 t52 8t64.5 3q61 -2 108.5 -30.5t75 -75.5t35 -110.5t-9.5 -135.5l-6 -22q-49 -180 -88 -324q-16 -61 -32.5 -120.5t-30 -107t-21.5 -78t-8 -32.5h-109zM741 500q-84 0 -129 1t-66.5 1h-25.5h-4q-45 0 -90 -16.5t-83 -45t-65.5 -65.5t-39.5 -80q-23 -86 27 -143.5t143 -57.5 q47 0 92 15.5t83 43t64.5 64.5t38.5 80z" />
<glyph unicode="b" horiz-adv-x="1071" d="M264 162q8 -6 31.5 -16.5t58.5 -21.5t80 -20.5t98 -11.5q78 2 156 35t144.5 90t117.5 132t74 161q23 82 12.5 157.5t-47.5 132t-97.5 90.5t-137.5 34q-47 0 -99.5 -11.5t-99.5 -25.5q-53 -16 -106 -35zM223 0h-108l374 1405h113l-115 -432q127 63 297 63q102 0 180 -42 t125.5 -114.5t60.5 -168t-15 -201.5q-29 -109 -93.5 -204t-149.5 -166.5t-186.5 -114.5t-203.5 -45q-86 4 -154.5 20t-114.5 47z" />
<glyph unicode="c" horiz-adv-x="978" d="M1020 784q-37 63 -100.5 101.5t-145.5 38.5q-78 0 -155.5 -33t-144 -89.5t-117 -132t-72.5 -161.5q-23 -86 -13.5 -161t46 -131t97 -89t138.5 -33t159 35t152 98l62 -77q-94 -78 -196.5 -123t-207.5 -45q-100 0 -178 42t-125 113.5t-60.5 166.5t15.5 204t93.5 205 t150.5 167.5t186.5 113.5t200.5 42q106 0 187 -47t130 -123z" />
<glyph unicode="d" horiz-adv-x="1030" d="M1036 852q-12 6 -36.5 18.5t-59.5 23.5t-78 19.5t-90 8.5q-80 -2 -160 -36t-146.5 -89.5t-116.5 -129t-73 -155.5q-23 -86 -12.5 -161t47.5 -132t99.5 -92t142.5 -37q57 0 111.5 11.5t95.5 25.5q49 16 92 37zM819 45q-59 -27 -138 -44t-161 -21q-102 2 -180 44 t-126 114.5t-61.5 167.5t15.5 206q29 109 93.5 203t150.5 164.5t187 112.5t204 42q88 0 152.5 -15t111.5 -50l117 436h112l-374 -1405h-113z" />
<glyph unicode="e" horiz-adv-x="933" d="M512 94q41 0 86 8.5t88 21.5t83 29.5t69 34.5l16 -104q-66 -41 -155 -65.5t-169 -34.5q-10 -2 -26.5 -2h-26.5q-86 0 -151.5 37.5t-106.5 104t-54 157t9 192.5l10 37q29 109 87.5 205t134 167.5t161.5 113.5t170 42q86 0 150.5 -35.5t101.5 -101t44 -157t-21 -201.5 l-19 -64h-702q-14 -78 -5 -148.5t37.5 -122.5t77 -83t111.5 -31zM915 590q8 72 -2 133t-37.5 105t-70.5 70t-98 26t-112.5 -23.5t-108 -68t-93.5 -105.5t-69 -137h591z" />
<glyph unicode="f" horiz-adv-x="671" d="M944 1294q-25 6 -44 7.5t-36 1.5q-41 -2 -83 -22.5t-76.5 -56.5t-62.5 -83t-42 -101l-10 -39h262l-31 -112h-262q-59 -217 -118.5 -444.5t-116.5 -444.5h-111q45 170 88 332q18 70 38.5 143.5t40 147t38 141t35.5 125.5h-150l31 112h147q0 6 4 23q2 8 4 14l9 25 q20 72 62 135.5t96.5 111.5t116 75.5t120.5 27.5q29 0 53.5 -1t61.5 -5z" />
<glyph unicode="g" horiz-adv-x="1128" d="M461 256h11t17 2q12 2 24.5 3t29.5 1q86 0 155.5 -25.5t113.5 -69.5t60.5 -104.5t-2.5 -128.5q-18 -68 -67 -129t-118 -106t-151.5 -71.5t-168.5 -26.5q-84 0 -152 26.5t-111 71.5t-60 106.5t1 128.5q23 88 99.5 164t176.5 117q-4 18 -0.5 41t9.5 47q18 66 61 105 q-111 102 -67 270q20 74 69 139.5t118 113.5t150.5 76.5t167.5 28.5q47 0 82 -6t66 -16h373l-136 -111h-96q27 -45 35 -102.5t-8 -122.5q-20 -74 -69.5 -139.5t-118 -112.5t-150.5 -74.5t-168 -27.5q-29 0 -52.5 4t-43.5 8q-37 10 -60 10q-18 0 -37.5 -8t-25.5 -31 q-10 -35 6.5 -43t36.5 -8zM152 -66q-12 -45 1 -86t46.5 -71.5t83 -49t110.5 -18.5q66 0 127.5 18.5t111.5 49t85 71.5t47 86t-1 86t-47 72t-85 49.5t-117 18.5q-61 0 -120.5 -18.5t-110 -49.5t-85 -72t-46.5 -86zM432 678q-12 -51 -1 -96t43 -79t81 -53.5t111 -19.5 q63 0 124.5 19.5t111.5 53.5t86 79t48 96q14 53 3 98t-42.5 79t-83 53.5t-114.5 19.5q-61 0 -121 -19.5t-110 -53.5t-86 -79t-50 -98z" />
<glyph unicode="h" horiz-adv-x="931" d="M571 1409l-133 -496q66 59 140.5 92t156.5 33q74 0 128.5 -29.5t88 -80.5t41.5 -120t-10 -146l-170 -656h-111l177 656q12 55 5 104t-33 85t-66 56.5t-91 20.5q-43 0 -89 -19.5t-89 -52.5t-79 -76t-58 -90q-18 -66 -42 -158t-49.5 -189t-50 -188.5t-40.5 -154.5h-111 l375 1409h110z" />
<glyph unicode="i" horiz-adv-x="348" d="M387 1024h109l-271 -1024h-108zM449 1309q8 29 33.5 48t56.5 19q29 0 45 -19.5t8 -47.5q-8 -27 -35 -47.5t-55 -20.5q-31 0 -46 20.5t-7 47.5z" />
<glyph unicode="j" horiz-adv-x="724" d="M727 1298q10 31 33.5 49.5t54.5 18.5q25 0 41 -18.5t6 -49.5q-6 -29 -31.5 -48t-50.5 -19q-31 0 -45 19t-8 48zM29 -279q20 -2 41 -4q16 -2 31.5 -3t23.5 -1q43 2 84 23.5t77 56.5t62.5 81t40.5 97l283 1055h110l-288 -1073q-23 -72 -65 -133.5t-94 -108.5t-113.5 -75.5 t-125.5 -30.5q-16 0 -32.5 1t-32.5 3q-8 2 -15.5 3t-25.5 1z" />
<glyph unicode="k" horiz-adv-x="901" d="M414 707q117 80 231.5 159.5t228.5 157.5h170l-413 -281q55 -180 114.5 -371.5t116.5 -371.5h-131l-203 668q-39 -27 -75.5 -52.5t-77.5 -52.5q-37 -137 -75 -281.5t-73 -281.5h-112l374 1405h111z" />
<glyph unicode="l" horiz-adv-x="331" d="M528 1534h111l-408 -1534h-110z" />
<glyph unicode="m" horiz-adv-x="1513" d="M432 909q66 59 140.5 92t152.5 33q100 0 166.5 -56t89.5 -142q78 109 177 155.5t183 46.5q72 0 127.5 -29.5t88 -79.5t42 -119t-9.5 -148l-172 -658h-112l176 658q12 55 6 103t-29.5 84t-62.5 56.5t-90 20.5q-47 0 -94.5 -19.5t-90.5 -51.5t-77.5 -75t-55.5 -90 l-184 -686h-111l176 653q12 55 5 104.5t-31.5 84.5t-65.5 55.5t-92 20.5q-45 0 -91 -19.5t-87 -51.5t-76 -75t-57 -90q-18 -66 -42 -158t-49.5 -188t-49 -186.5t-39.5 -153.5h-113l242 913l28 111h113z" />
<glyph unicode="n" horiz-adv-x="886" d="M426 913q66 61 141.5 94t155.5 33q72 0 127 -29.5t88 -80.5t42 -120t-9 -148l-170 -662h-111l174 662q14 55 9 104t-27.5 85t-59 56.5t-88.5 20.5q-45 0 -94 -19.5t-94 -51.5t-83 -75t-60 -92q-18 -66 -42 -158t-49.5 -189t-50 -188.5t-41.5 -154.5h-112l270 1024h113z " />
<glyph unicode="o" horiz-adv-x="1050" d="M285 506q-23 -86 -14.5 -161t43 -131t93 -89t136.5 -33q76 0 150.5 33t139 89t113.5 131t72 161t14.5 162.5t-43.5 133t-92 89.5t-133 33q-78 0 -153.5 -33t-140 -89.5t-113.5 -133t-72 -162.5zM172 506q29 111 93.5 207t148.5 167.5t183 113.5t198 42q98 0 173.5 -42 t122 -113.5t57.5 -168t-18 -206.5q-29 -109 -92 -204t-147 -167t-182.5 -113.5t-196.5 -41.5t-175 41.5t-123 113.5t-58.5 167t16.5 204z" />
<glyph unicode="p" horiz-adv-x="1036" d="M229 162q8 -4 33 -15.5t59.5 -22.5t78.5 -20.5t94 -11.5q80 2 157.5 36t144 90t117 132t72.5 162q23 86 13.5 161t-46.5 130t-97 87t-140 32q-55 0 -109.5 -12.5t-97.5 -26.5q-51 -16 -96 -37zM444 969q59 27 140.5 47t160.5 20q100 -2 179.5 -44t126.5 -113.5t60 -166 t-15 -200.5q-29 -111 -93.5 -207t-150.5 -167.5t-186.5 -113.5t-202.5 -42q-84 0 -151.5 17t-110.5 48l-117 -436h-107l375 1413h107z" />
<glyph unicode="q" horiz-adv-x="1054" d="M1090 1024h110l-377 -1413h-110l116 442q-133 -70 -305 -69q-100 2 -178 44t-125 113.5t-61.5 165.5t14.5 203t94.5 204t151.5 166.5t186.5 113.5t200.5 42q84 0 153.5 -16t116.5 -45zM1044 852q-8 6 -31.5 18.5t-58 24.5t-80 21.5t-96.5 9.5q-78 0 -156.5 -33t-146 -89 t-119 -132t-73.5 -162q-23 -86 -12.5 -161t48 -130t98 -88t138.5 -35q47 0 99.5 10.5t99.5 22.5q53 14 106 35z" />
<glyph unicode="r" horiz-adv-x="585" d="M778 905q-23 8 -40 12.5t-33 4.5q-47 0 -96.5 -22.5t-93.5 -56.5t-82 -76t-58 -81q-18 -66 -42 -158t-49.5 -188t-49 -186.5t-39.5 -153.5h-113l270 1024h113l-31 -115q66 61 140.5 94t154.5 33q10 0 44 -4t50 -10z" />
<glyph unicode="s" horiz-adv-x="854" d="M903 829q-35 45 -94 69t-131 24q-96 0 -172 -43t-94 -113q-18 -68 33 -124t149 -73q68 -10 120 -38.5t83.5 -70.5t43 -93.5t-2.5 -106.5q-16 -61 -57.5 -112.5t-98.5 -87t-123.5 -56t-136.5 -20.5q-94 0 -176 37.5t-121 107.5l102 66q31 -43 89.5 -72t129.5 -29 q49 0 94.5 12.5t83.5 34t64.5 52t36.5 67.5q8 33 -2 65.5t-35.5 60.5t-62.5 48.5t-80 30.5q-66 10 -117 40t-85 70.5t-46 91t2 101.5q16 59 57 108.5t97.5 84t125 54t138.5 19.5q96 0 174 -39t121 -100z" />
<glyph unicode="t" horiz-adv-x="696" d="M727 1405l-104 -395h268l-31 -113h-268q-59 -221 -118.5 -448.5t-119.5 -448.5h-110q45 170 88 334q37 141 79 293.5t72 269.5h-151l30 113h148l104 395h113z" />
<glyph unicode="u" horiz-adv-x="921" d="M729 109q-66 -57 -142.5 -92t-154.5 -35q-72 0 -127 29.5t-87 81.5t-41 121t11 148l170 662h109l-172 -662q-12 -55 -7 -103t27.5 -84t60.5 -57.5t89 -21.5q45 0 94 19.5t93 52.5t80 76t56 90l185 690h110l-272 -1024h-109z" />
<glyph unicode="v" horiz-adv-x="1024" d="M307 1024h117l121 -856q143 215 287.5 429t287.5 427h123l-688 -1024h-106z" />
<glyph unicode="w" horiz-adv-x="1443" d="M958 0l-110 6l-47 367q-61 -92 -127 -186.5t-127 -186.5l-107 6l-141 1018h119l121 -854q59 90 118.5 176t118.5 178q-16 123 -33.5 251t-33.5 249h127l114 -854q141 211 286.5 427t287.5 427h123z" />
<glyph unicode="x" horiz-adv-x="909" d="M326 1024h139l141 -397q86 98 180.5 200.5t180.5 196.5h137l-453 -510q43 -123 90 -257t93 -257h-136l-153 416q-92 -104 -182.5 -208t-182.5 -208h-135l463 530z" />
<glyph unicode="y" horiz-adv-x="980" d="M-8 -279q53 -18 107.5 -11t112.5 48t121.5 121t135.5 207q-35 236 -69.5 475.5t-67.5 474.5h117l108 -815q133 201 270.5 407t270.5 408h121l-648 -958l2 2q-37 -59 -74.5 -116.5t-76.5 -117.5q-37 -59 -85 -104t-100.5 -77t-105.5 -48t-102 -16q-45 0 -82 12z" />
<glyph unicode="z" horiz-adv-x="925" d="M109 106l823 805h-600l28 113h754l-27 -106l-823 -805h606l-26 -113h-760z" />
<glyph unicode="{" horiz-adv-x="456" d="M342 109q0 2 35 2l-27 -111q-23 0 -47 8t-42.5 21.5t-28 34t-3.5 45.5l129 481q8 33 -7 54.5t-46 21.5h-55l29 110h55q31 0 58.5 22.5t35.5 53.5l123 461q18 41 68.5 66.5t103.5 25.5l-31 -115q-33 0 -33 6l-127 -471q-18 -29 -43.5 -50t-60.5 -25l-16 -56q63 -10 67 -73 l-137 -512v0z" />
<glyph unicode="|" horiz-adv-x="268" d="M489 1456h80l-389 -1454h-80z" />
<glyph unicode="}" horiz-adv-x="385" d="M248 618q37 72 100 76q8 25 21 56q-29 6 -47.5 27.5t-18.5 47.5l125 465h-39l31 115q63 0 95 -26.5t28 -65.5l2 -13l-121 -448q-8 -31 4 -53.5t43 -22.5h55l-28 -110h-56q-31 0 -55.5 -21.5t-32.5 -54.5l-129 -481q-6 -25 -25.5 -44.5t-45 -34t-54 -22.5t-53.5 -8l27 111 q16 0 25.5 1t15.5 3z" />
<glyph unicode="~" horiz-adv-x="710" d="M694 530q-39 78 -94 78q-10 0 -28.5 -6t-30.5 -10q-29 -16 -64 -26.5t-63 -10.5q-76 0 -127 49l59 137q41 -70 96 -69q12 0 29.5 6t30.5 10q29 16 63.5 24.5t63.5 8.5q74 0 131 -47z" />
<glyph unicode="&#xa1;" horiz-adv-x="327" d="M463 1352q8 25 28.5 43t47.5 18q25 0 39 -18.5t6 -42.5q-6 -27 -30 -44.5t-48 -17.5q-29 0 -38 17.5t-5 42.5v2zM213 0h-98l319 1200h98z" />
<glyph unicode="&#xa2;" horiz-adv-x="978" d="M782 1167h121l-37 -137q86 -10 149.5 -54t106.5 -110l-102 -82q-29 51 -75 87t-107 47l-222 -820q66 10 127.5 44t122.5 85l60 -77q-82 -66 -166 -110t-172 -54l-37 -136h-121l37 138q-86 12 -153.5 57t-107.5 114.5t-49.5 159t17.5 189.5t85 190t135 160t168 115t183 57 zM285 508q-20 -78 -14.5 -146.5t33.5 -124t77 -91t115 -48.5l221 820q-72 -12 -140.5 -48t-127 -90.5t-101.5 -124t-63 -147.5z" />
<glyph unicode="&#xa3;" horiz-adv-x="1138" d="M553 600l-131 -489h672l-27 -111h-782l157 600h-239l28 111h240l186 694h111l-186 -694h364l-28 -111h-365z" />
<glyph unicode="&#xa4;" horiz-adv-x="1705" />
<glyph unicode="&#xa5;" horiz-adv-x="1394" d="M432 356h291l29 103h-291l31 114h290l15 58q-86 184 -184.5 388t-186.5 386h149l304 -664q166 166 334.5 333t334.5 331h148l-785 -774l-14 -58h291l-31 -114h-291l-28 -103h290l-30 -114h-291q-10 -35 -17.5 -65t-13.5 -57.5t-14 -56t-17 -63.5h-114l61 242h-291z" />
<glyph unicode="&#xa6;" horiz-adv-x="268" d="M317 817l172 639h80l-172 -639h-80zM371 713l-191 -711h-80l191 711h80z" />
<glyph unicode="&#xa7;" horiz-adv-x="780" d="M864 995q-74 41 -157 41q-45 0 -89 -14q10 -43 40 -86t81 -72q92 -53 130 -140t12 -185q-14 -53 -50 -101.5t-81 -83.5q-2 -12 -4.5 -24.5l-4.5 -22.5q-16 -61 -53 -110.5t-86 -82t-104.5 -50t-108.5 -17.5q-96 0 -182 49l57 76q35 -20 71 -28.5t75 -8.5q41 0 79.5 11.5 t72.5 33t58.5 53t36.5 74.5q-35 -16 -66.5 -20t-62.5 -4q-49 0 -95 11t-85 36l58 80q74 -39 149 -39q57 0 107 20q-10 49 -40 93t-81 73q-94 51 -133 143.5t-15 184.5q33 113 135 178q0 29 9 53q14 57 49 103.5t81 78t101 48t113 16.5q94 0 182 -47l-59 -84q-37 23 -77 32 t-77 9q-78 0 -143.5 -40t-88.5 -118v-2q0 -2 -2 -4q57 18 119 18q98 0 187 -47zM760 471q14 16 22.5 34.5t14.5 37.5q18 70 -12.5 139.5t-104.5 112.5q-57 29 -93 76t-48 100q-20 -16 -37 -43t-23 -51q-16 -66 14.5 -134.5t104.5 -111.5q59 -31 95 -80t46 -102q9 6 21 22z M618 659q-70 39 -98 98.5t-12 119.5q4 8 8 17t8 17q37 -94 138 -147v2q66 -39 94 -100.5t12 -122.5q-6 -20 -14 -33q-39 94 -136 152v-3zM965 1096q-55 29 -111.5 45t-110.5 16q-41 0 -79 -6q25 43 73.5 66.5t104.5 23.5q72 0 164 -51l100 141q-59 33 -112.5 47.5 t-104.5 14.5q-61 0 -122.5 -18.5t-113 -54.5t-89.5 -87t-56 -117q-4 -10 -6 -19.5t-4 -21.5q-100 -74 -133 -190q-27 -100 14 -200.5t141 -158.5l2 2q78 -45 103 -118q-14 -4 -30.5 -6.5t-31.5 -2.5q-35 0 -77 13.5t-85 36.5l-96 -136q53 -35 107.5 -50t107.5 -15 q23 0 42.5 1t41.5 7q-29 -47 -79 -69.5t-107 -22.5q-74 0 -156 47l-98 -129q113 -70 215 -70q59 0 120.5 19.5t116 57.5t95.5 92.5t59 123.5q2 8 3 16.5t3 18.5q43 39 81 91t52 106q29 104 -13 200.5t-138 153.5q-35 23 -59.5 51.5t-36.5 59.5q10 2 36 2q78 0 166 -52z M870 911q-45 25 -80.5 39.5t-68.5 18.5q23 -25 57 -47q104 -59 147.5 -165t12.5 -218q-16 -59 -51 -111.5t-82 -95.5l-6 -25q-20 -78 -65.5 -138t-105 -101t-127 -62.5t-130.5 -21.5q-55 0 -119 20.5t-133 63.5l143 186q51 -29 91 -42t73 -13q55 0 96 20h-10 q-53 0 -116.5 19.5t-131.5 64.5l137 186q47 -27 90.5 -41t77.5 -14q-27 37 -67 64q-53 31 -91 74.5t-59.5 95t-25.5 106.5t10 111q31 117 133 202l8 29q18 74 61.5 131.5t99.5 97t123.5 60t135.5 20.5q53 0 116.5 -19.5t137.5 -59.5l-143 -199q-109 61 -174 61 q-23 0 -45.5 -5t-43.5 -13h7q53 0 118.5 -20.5t137.5 -57.5zM637 688q33 -16 58.5 -38.5t43.5 -47.5q-4 37 -29.5 73t-68.5 60v-2q-35 16 -60.5 39t-45.5 47q8 -35 32.5 -69.5t71.5 -61.5h-2z" />
<glyph unicode="&#xa8;" horiz-adv-x="538" d="M416 1309q8 29 34.5 48t55.5 19t45 -19.5t8 -47.5q-8 -27 -34.5 -47.5t-55.5 -20.5t-45 20.5t-8 47.5zM682 1309q8 29 34.5 48t55.5 19t45.5 -19.5t7.5 -47.5q-8 -27 -34.5 -47.5t-55.5 -20.5t-45 20.5t-8 47.5z" />
<glyph unicode="&#xa9;" horiz-adv-x="1705" />
<glyph unicode="&#xaa;" horiz-adv-x="366" d="M406 637v2q-27 -10 -62 -10q-59 0 -88 39t-14 94q14 53 64 89t112 36h55q4 27 -4 49t-27 22q-25 0 -49 -4t-59 -14l8 80q31 8 58.5 12t62.5 4q49 0 74.5 -42t9.5 -109q-4 -16 -10 -35q-4 -16 -10.5 -35.5t-10.5 -42.5q-10 -35 -8 -77t14 -58h-116zM393 811 q-25 0 -47 -16.5t-27 -32.5q-4 -20 8.5 -36.5t37.5 -16.5q23 0 46 16t27 37l15 49h-60z" />
<glyph unicode="&#xab;" horiz-adv-x="1089" d="M1208 1032l49 -86l-571 -391q66 -113 134.5 -229.5t129.5 -229.5l-102 -73l-311 546zM870 1032l50 -86l-572 -391q66 -113 133.5 -229.5t130.5 -229.5l-102 -73l-311 546z" />
<glyph unicode="&#xac;" horiz-adv-x="1355" d="M1348 326h-111l98 362h-1073l29 111h1184z" />
<glyph unicode="&#xad;" horiz-adv-x="862" d="M219 545l29 110h715l-29 -110h-715z" />
<glyph unicode="&#xae;" horiz-adv-x="1705" />
<glyph unicode="&#xb0;" horiz-adv-x="512" d="M446 1202q-6 -25 -1.5 -47t17.5 -39.5t34.5 -28t46.5 -10.5q20 0 44.5 10.5t46 28t39 40t23.5 46.5q14 51 -13.5 92t-70.5 41q-25 0 -51 -11t-50 -29.5t-41.5 -43t-23.5 -49.5zM362 1202q12 45 39 84t63 66.5t79 44t90 16.5q86 0 129 -59.5t18 -151.5q-12 -43 -37.5 -80 t-60.5 -64.5t-76 -44t-84 -16.5q-92 0 -137.5 60.5t-22.5 144.5z" />
<glyph unicode="&#xb1;" horiz-adv-x="925" d="M678 614h-111l80 301h-301l31 113h301l80 301h110l-80 -301h304l-31 -113h-303zM182 307l29 111h715l-29 -111h-715z" />
<glyph unicode="&#xb2;" horiz-adv-x="573" d="M692 719l-24 -88h-445l21 80l407 350q27 20 46.5 50t25.5 56q16 63 -20.5 109.5t-98.5 46.5q-63 0 -151 -68l-50 70q57 41 112.5 64.5t111.5 23.5q53 0 94 -19.5t65.5 -53t31.5 -77.5t-7 -96q-12 -47 -45 -95t-68 -79l-317 -274h311z" />
<glyph unicode="&#xb3;" horiz-adv-x="542" d="M305 772q16 -27 47 -45t66 -18q27 0 56.5 10t56 28.5t46 42t27.5 52.5q14 53 -18.5 93t-83.5 46h-119l23 88h120q27 2 55.5 13.5t53 28.5t42 40t23.5 45q12 47 -23.5 84t-92.5 37q-35 0 -78 -18.5t-88 -55.5l-47 70q111 92 235 92q100 0 154.5 -60.5t32.5 -148.5 q-31 -119 -144 -174q31 -33 44.5 -80t-1.5 -100q-12 -47 -41.5 -87t-69.5 -69t-88.5 -46t-97.5 -17q-66 0 -110.5 25.5t-73.5 70.5l68 53h26z" />
<glyph unicode="&#xb4;" horiz-adv-x="428" d="M434 1102h-78l205 201h176z" />
<glyph unicode="&#xb5;" horiz-adv-x="1015" d="M168 -389h-111l377 1413h113l-195 -733q-4 -16 9.5 -49t41 -65t67.5 -56.5t87 -24.5q51 0 100.5 21.5t91.5 57.5t73.5 84t47.5 103q43 162 90.5 331t90.5 331h110l-182 -662q-23 -80 -69 -148.5t-106.5 -120.5t-131 -81.5t-144.5 -29.5q-78 0 -135 34.5t-90 92.5z" />
<glyph unicode="&#xb6;" horiz-adv-x="782" d="M561 0l375 1403h108l-374 -1403h-109zM694 1305q-41 -2 -80 -21.5t-72.5 -51.5t-59 -73t-38.5 -88q-12 -47 -9 -88t20.5 -72.5t46 -50t67.5 -20.5zM375 0l192 721q-63 6 -114.5 34.5t-84 75t-43 106.5t8.5 126q18 72 61 134.5t101.5 108.5t127 72.5t140.5 26.5h94 l-375 -1405h-108z" />
<glyph unicode="&#xb7;" horiz-adv-x="460" d="M283 639q6 20 20 40.5t34.5 37t45.5 27t49 10.5q49 0 76 -37t16 -78q-10 -43 -56 -77t-95 -34t-74.5 34t-15.5 77z" />
<glyph unicode="&#xb9;" horiz-adv-x="538" d="M371 1184l325 221h103l-168 -627h-113l129 477q-53 -37 -110.5 -74.5t-108.5 -72.5z" />
<glyph unicode="&#xba;" horiz-adv-x="475" d="M338 823q-12 -47 13.5 -86t70.5 -39q41 0 84 39t55 86q14 53 -7.5 94t-61.5 41q-23 0 -47.5 -11t-46 -29.5t-38 -43t-22.5 -51.5zM260 823q12 45 38 85t59.5 68t73.5 44t81 16q78 0 116 -60.5t13 -152.5q-12 -43 -36.5 -79.5t-56.5 -64.5t-70 -43t-77 -15q-84 0 -124 58 t-17 144z" />
<glyph unicode="&#xbb;" horiz-adv-x="1073" d="M817 569l-606 -546l-61 73l509 459q-88 98 -180 196.5t-182 194.5l98 86zM1155 569l-606 -546l-62 73l510 459q-88 98 -180 196.5t-182 194.5l98 86z" />
<glyph unicode="&#xbc;" horiz-adv-x="782" d="M788 688l-311 -364h168l41 151h70l-41 -151h98l-18 -70h-99q-16 -61 -32.5 -127t-32.5 -127h-70l66 254h-252l14 59l346 406zM299 918l172 118h59l-163 -612h-70l137 514q-25 -16 -51.5 -32.5t-48.5 -33.5z" />
<glyph unicode="&#xbd;" horiz-adv-x="727" d="M274 920l172 118h60l-164 -614h-70l138 516q-23 -16 -49.5 -32.5t-51.5 -33.5zM377 68h305l-14 -68h-404l12 59l383 330q23 18 41.5 46t26.5 57q18 68 -17.5 112.5t-103.5 44.5q-33 0 -66.5 -14t-68.5 -39l-35 49q47 35 95.5 54.5t95.5 19.5q98 0 146 -65.5t24 -161.5 q-12 -45 -41 -84t-64 -70z" />
<glyph unicode="&#xbe;" horiz-adv-x="937" d="M219 438q16 -29 45 -45t68 -16q66 0 121 40t71 97q10 37 -3 65.5t-44 46t-74 23.5t-92 -2l21 72h106q59 4 110.5 39t65.5 84q14 53 -20.5 91t-97.5 38q-80 0 -154 -62l-35 49q96 80 205 80q45 0 83 -15t61.5 -42t31.5 -62.5t-2 -76.5q-14 -53 -53 -94t-92 -64 q37 -29 52 -73t1 -97q-12 -43 -40 -81t-65.5 -65.5t-83 -44t-92.5 -16.5q-53 0 -94 23.5t-63 62.5zM526 256l17 61l346 406l53 -31l-307 -364h162l41 151h71l-41 -151h99l-19 -72h-98l-68 -252h-71l67 252h-252z" />
<glyph unicode="&#xbf;" horiz-adv-x="884" d="M852 1405l16 -653l-28 -105h-211q-53 -2 -106.5 -23.5t-99.5 -59.5t-81 -87t-49 -106q-16 -55 -8 -105.5t35.5 -88.5t71.5 -60.5t100 -22.5q74 0 147.5 42t134.5 110l57 -82q-76 -82 -172 -133t-198 -51q-78 0 -139.5 30.5t-99.5 85t-49 125t11 150.5q20 78 69.5 148.5 t114 124.5t140.5 86t151 32h95q-4 154 -9.5 323.5t-9.5 319.5h117zM862 1579q-8 -29 -32.5 -49.5t-51.5 -20.5q-33 0 -46 20.5t-5 49.5q10 33 32.5 52.5t55.5 19.5q27 0 42 -19.5t5 -52.5z" />
<glyph unicode="&#xc0;" d="M993 688q-14 137 -28.5 259t-26.5 261q-86 -135 -166 -260t-166 -260h387zM948 1415h92l144 -1415h-117l-63 575h-469q-90 -141 -183.5 -287.5t-183.5 -287.5h-117zM805 1694h178l96 -201h-76z" />
<glyph unicode="&#xc1;" d="M993 688q-14 137 -28.5 259t-26.5 261q-86 -135 -166 -260t-166 -260h387zM948 1415h92l144 -1415h-117l-63 575h-469q-90 -141 -183.5 -287.5t-183.5 -287.5h-117zM1042 1493h-78l205 201h176z" />
<glyph unicode="&#xc2;" d="M993 688q-14 137 -28.5 259t-26.5 261q-86 -135 -166 -260t-166 -260h387zM948 1415h92l144 -1415h-117l-63 575h-469q-90 -141 -183.5 -287.5t-183.5 -287.5h-117z" />
<glyph unicode="&#xc3;" d="M1192 1491q-35 78 -94 78q-12 0 -29.5 -5t-30.5 -10q-29 -16 -63.5 -26t-65.5 -10q-35 0 -68.5 12t-62.5 37l64 137q20 -33 44.5 -51.5t51.5 -18.5q12 0 30.5 6.5t28.5 10.5q29 16 65 24t64 8q74 0 134 -47zM1001 702q-14 137 -28.5 259t-26.5 262q-86 -135 -166 -260 t-166 -261h387zM956 1430h93l143 -1416h-117l-63 576h-469q-90 -141 -183.5 -287.5t-183.5 -288.5h-117z" />
<glyph unicode="&#xc4;" d="M993 688q-14 137 -28.5 259t-26.5 261q-86 -135 -166 -260t-166 -260h387zM948 1415h92l144 -1415h-117l-63 575h-469q-90 -141 -183.5 -287.5t-183.5 -287.5h-117zM809 1540q8 29 34.5 48t55.5 19t45 -19.5t8 -47.5q-8 -27 -34.5 -47.5t-55.5 -20.5t-45 20.5t-8 47.5z M1075 1540q8 29 34.5 48t55.5 19t45.5 -19.5t7.5 -47.5q-8 -27 -34.5 -47.5t-55.5 -20.5t-45 20.5t-8 47.5z" />
<glyph unicode="&#xc5;" d="M993 688q-14 137 -28.5 259t-26.5 261q-86 -135 -166 -260t-166 -260h387zM948 1415h92l144 -1415h-117l-63 575h-469q-90 -141 -183.5 -287.5t-183.5 -287.5h-117z" />
<glyph unicode="&#xc6;" horiz-adv-x="2213" d="M1430 1307h-437q-98 -160 -191 -309.5t-192 -309.5h637zM2271 1415l-30 -108h-717l-133 -498h612l-29 -113h-612l-158 -583h717l-27 -113h-829l152 575h-678q-90 -141 -184.5 -287.5t-182.5 -287.5h-119l899 1415h1319z" />
<glyph unicode="&#xc7;" horiz-adv-x="1298" d="M1421 1141q-55 82 -137 128t-186 46q-113 0 -223.5 -49t-206 -133t-168 -196t-105.5 -237q-33 -123 -20.5 -233.5t61.5 -194.5t134 -133t198 -49q104 0 209.5 46t204.5 124l59 -76q-123 -100 -253 -150t-263 -52q-2 -4 -6 -11.5t-8 -11.5q27 -10 53.5 -43t13.5 -78 q-8 -31 -42 -65.5t-107 -69.5l-88 80q10 0 32.5 3t46 9t43 17.5t23.5 29.5q4 14 -4 23.5t-20.5 14.5t-26.5 7t-25 2h-30l30 107q-100 27 -177 90.5t-122 156.5t-53 209.5t27 247.5q41 154 127 286t200.5 229.5t247.5 152.5t266 55q129 0 229.5 -55t164.5 -154z" />
<glyph unicode="&#xc8;" horiz-adv-x="993" d="M991 696h-612l-158 -583h715l-27 -113h-827l377 1415h827l-31 -108h-714l-133 -498h612zM664 1694h178l96 -201h-76z" />
<glyph unicode="&#xc9;" horiz-adv-x="993" d="M991 696h-612l-158 -583h715l-27 -113h-827l377 1415h827l-31 -108h-714l-133 -498h612zM872 1493h-78l205 201h176z" />
<glyph unicode="&#xca;" horiz-adv-x="993" d="M991 696h-612l-158 -583h715l-27 -113h-827l377 1415h827l-31 -108h-714l-133 -498h612zM964 1767l172 -233l-90 -70l-119 166l-211 -166l-49 72z" />
<glyph unicode="&#xcb;" horiz-adv-x="993" d="M991 696h-612l-158 -583h715l-27 -113h-827l377 1415h827l-31 -108h-714l-133 -498h612zM695 1542q8 29 34.5 48t55.5 19t45 -19.5t8 -47.5q-8 -27 -34.5 -47.5t-55.5 -20.5t-45 20.5t-8 47.5zM961 1542q8 29 34.5 48t55.5 19t45.5 -19.5t7.5 -47.5q-8 -27 -34.5 -47.5 t-55.5 -20.5t-45 20.5t-8 47.5z" />
<glyph unicode="&#xcc;" horiz-adv-x="268" d="M217 0h-113l377 1415h113zM369 1694h178l96 -201h-76z" />
<glyph unicode="&#xcd;" horiz-adv-x="315" d="M201 0h-113l377 1415h113zM573 1493h-78l205 201h176z" />
<glyph unicode="&#xce;" horiz-adv-x="282" d="M201 0h-113l377 1415h113z" />
<glyph unicode="&#xcf;" horiz-adv-x="282" d="M201 0h-113l377 1415h113zM348 1540q8 29 34.5 48t55.5 19t45 -19.5t8 -47.5q-8 -27 -34.5 -47.5t-55.5 -20.5t-45 20.5t-8 47.5zM614 1540q8 29 34.5 48t55.5 19t45.5 -19.5t7.5 -47.5q-8 -27 -34.5 -47.5t-55.5 -20.5t-45 20.5t-8 47.5z" />
<glyph unicode="&#xd0;" horiz-adv-x="1337" d="M227 551l29 111h135l203 753h526q102 -2 178 -57t118 -150.5t46 -223.5t-35 -273t-110.5 -273.5t-163.5 -223.5t-196.5 -152.5t-208.5 -61.5h-531l145 551h-135zM676 1303l-172 -641h350l-29 -111h-350l-119 -438q104 0 210 2t210 2q80 2 162 50t154.5 128t131 187.5 t91.5 228.5t32 228.5t-32 187t-88.5 126.5t-136.5 50h-414z" />
<glyph unicode="&#xd1;" horiz-adv-x="1099" d="M569 1415l379 -1179l318 1179h112l-377 -1415h-106l-381 1186q-80 -297 -159 -594t-156 -592h-111l377 1415h104zM1139 1446q-35 78 -92 78q-10 0 -30 -6t-32 -10q-29 -16 -62.5 -26.5t-62.5 -10.5q-74 0 -129 49l62 137q39 -70 96 -69q12 0 28.5 6t28.5 10q66 33 129 33 q72 0 131 -47z" />
<glyph unicode="&#xd2;" horiz-adv-x="1413" d="M1368 1149q-49 78 -132 119t-189 41q-111 0 -220.5 -47.5t-203 -128t-165 -191.5t-104.5 -235q-35 -127 -23.5 -239t60.5 -195t134 -130t196 -47q115 0 225.5 47t203.5 130t163.5 195t105.5 239q35 133 21.5 246.5t-72.5 195.5zM1190 180q-115 -96 -242 -147t-258 -51 q-129 0 -231.5 55t-165 152.5t-78.5 230.5t25 287q39 150 125 279.5t199.5 227t246.5 153.5t266 56q137 0 240.5 -56t163 -152.5t73 -227.5t-25.5 -280q-43 -160 -130 -294.5t-208 -232.5zM850 1694h178l96 -201h-76z" />
<glyph unicode="&#xd3;" horiz-adv-x="1413" d="M1368 1149q-49 78 -132 119t-189 41q-111 0 -220.5 -47.5t-203 -128t-165 -191.5t-104.5 -235q-35 -127 -23.5 -239t60.5 -195t134 -130t196 -47q115 0 225.5 47t203.5 130t163.5 195t105.5 239q35 133 21.5 246.5t-72.5 195.5zM1190 180q-115 -96 -242 -147t-258 -51 q-129 0 -231.5 55t-165 152.5t-78.5 230.5t25 287q39 150 125 279.5t199.5 227t246.5 153.5t266 56q137 0 240.5 -56t163 -152.5t73 -227.5t-25.5 -280q-43 -160 -130 -294.5t-208 -232.5zM1155 1493h-78l205 201h176z" />
<glyph unicode="&#xd4;" horiz-adv-x="1413" d="M1368 1149q-49 78 -132 119t-189 41q-111 0 -220.5 -47.5t-203 -128t-165 -191.5t-104.5 -235q-35 -127 -23.5 -239t60.5 -195t134 -130t196 -47q115 0 225.5 47t203.5 130t163.5 195t105.5 239q35 133 21.5 246.5t-72.5 195.5zM1190 180q-115 -96 -242 -147t-258 -51 q-129 0 -231.5 55t-165 152.5t-78.5 230.5t25 287q39 150 125 279.5t199.5 227t246.5 153.5t266 56q137 0 240.5 -56t163 -152.5t73 -227.5t-25.5 -280q-43 -160 -130 -294.5t-208 -232.5zM1173 1767l172 -233l-90 -70l-119 166l-211 -166l-49 72z" />
<glyph unicode="&#xd5;" horiz-adv-x="1413" d="M1368 1149q-49 78 -132 119t-189 41q-111 0 -220.5 -47.5t-203 -128t-165 -191.5t-104.5 -235q-35 -127 -23.5 -239t60.5 -195t134 -130t196 -47q115 0 225.5 47t203.5 130t163.5 195t105.5 239q35 133 21.5 246.5t-72.5 195.5zM1190 180q-115 -96 -242 -147t-258 -51 q-129 0 -231.5 55t-165 152.5t-78.5 230.5t25 287q39 150 125 279.5t199.5 227t246.5 153.5t266 56q137 0 240.5 -56t163 -152.5t73 -227.5t-25.5 -280q-43 -160 -130 -294.5t-208 -232.5zM1295 1448q-35 78 -92 78q-10 0 -30 -6t-32 -10q-29 -16 -62.5 -26.5t-62.5 -10.5 q-74 0 -129 49l62 137q39 -70 96 -69q12 0 28.5 6t28.5 10q66 33 129 33q72 0 131 -47z" />
<glyph unicode="&#xd6;" horiz-adv-x="1413" d="M1368 1149q-49 78 -132 119t-189 41q-111 0 -220.5 -47.5t-203 -128t-165 -191.5t-104.5 -235q-35 -127 -23.5 -239t60.5 -195t134 -130t196 -47q115 0 225.5 47t203.5 130t163.5 195t105.5 239q35 133 21.5 246.5t-72.5 195.5zM1190 180q-115 -96 -242 -147t-258 -51 q-129 0 -231.5 55t-165 152.5t-78.5 230.5t25 287q39 150 125 279.5t199.5 227t246.5 153.5t266 56q137 0 240.5 -56t163 -152.5t73 -227.5t-25.5 -280q-43 -160 -130 -294.5t-208 -232.5zM905 1542q8 29 34.5 48t55.5 19t45 -19.5t8 -47.5q-8 -27 -34.5 -47.5t-55.5 -20.5 t-45 20.5t-8 47.5zM1171 1542q8 29 34.5 48t55.5 19t45.5 -19.5t7.5 -47.5q-8 -27 -34.5 -47.5t-55.5 -20.5t-45 20.5t-8 47.5z" />
<glyph unicode="&#xd7;" horiz-adv-x="751" d="M238 348l-60 78l271 215l-154 211l98 80l158 -213l268 213l60 -78l-273 -213q39 -53 80 -107.5t78 -107.5l-98 -78l-158 213z" />
<glyph unicode="&#xd8;" horiz-adv-x="1413" d="M1190 180q-115 -96 -242 -147t-258 -51q-100 0 -180 30l-4 -12h-125l37 61q-66 43 -112 109t-70.5 149.5t-24.5 182t29 205.5q39 150 125 279.5t199.5 227t246.5 153.5t266 56q47 0 95.5 -8t89.5 -22q4 6 6 12t6 10h119l-41 -67q135 -96 183 -263t-7 -378 q-43 -160 -130 -294.5t-208 -232.5zM1368 1149q-20 29 -39.5 50.5t-44.5 39.5q-180 -283 -355 -560.5t-356 -557.5q35 -14 71 -19.5t77 -5.5q115 0 225.5 47t203.5 130t163.5 195t105.5 239q35 133 21.5 246.5t-72.5 195.5zM1047 1309q-111 0 -220.5 -47.5t-203 -128 t-165 -191.5t-104.5 -235q-47 -178 -11 -319.5t138 -219.5q180 285 355.5 559t355.5 557q-35 14 -69.5 19.5t-75.5 5.5z" />
<glyph unicode="&#xd9;" horiz-adv-x="1224" d="M293 360q-8 -53 14.5 -100t67.5 -84t111.5 -58.5t148.5 -21.5q78 0 153.5 21.5t140 58.5t111.5 84t70 100l283 1055h112l-282 -1055q-25 -78 -85.5 -146.5t-145.5 -120.5t-185 -81.5t-203 -29.5q-109 0 -194.5 29.5t-143 81.5t-83 121t-9.5 146l283 1055h118zM793 1694 h178l96 -201h-76z" />
<glyph unicode="&#xda;" horiz-adv-x="1224" d="M293 360q-8 -53 14.5 -100t67.5 -84t111.5 -58.5t148.5 -21.5q78 0 153.5 21.5t140 58.5t111.5 84t70 100l283 1055h112l-282 -1055q-25 -78 -85.5 -146.5t-145.5 -120.5t-185 -81.5t-203 -29.5q-109 0 -194.5 29.5t-143 81.5t-83 121t-9.5 146l283 1055h118zM1034 1493 h-78l205 201h176z" />
<glyph unicode="&#xdb;" horiz-adv-x="1224" d="M293 360q-8 -53 14.5 -100t67.5 -84t111.5 -58.5t148.5 -21.5q78 0 153.5 21.5t140 58.5t111.5 84t70 100l283 1055h112l-282 -1055q-25 -78 -85.5 -146.5t-145.5 -120.5t-185 -81.5t-203 -29.5q-109 0 -194.5 29.5t-143 81.5t-83 121t-9.5 146l283 1055h118zM1079 1767 l172 -233l-90 -70l-119 166l-211 -166l-49 72z" />
<glyph unicode="&#xdc;" horiz-adv-x="1224" d="M293 360q-8 -53 14.5 -100t67.5 -84t111.5 -58.5t148.5 -21.5q78 0 153.5 21.5t140 58.5t111.5 84t70 100l283 1055h112l-282 -1055q-25 -78 -85.5 -146.5t-145.5 -120.5t-185 -81.5t-203 -29.5q-109 0 -194.5 29.5t-143 81.5t-83 121t-9.5 146l283 1055h118zM811 1540 q8 29 34.5 48t55.5 19t45 -19.5t8 -47.5q-8 -27 -34.5 -47.5t-55.5 -20.5t-45 20.5t-8 47.5zM1077 1540q8 29 34.5 48t55.5 19t45.5 -19.5t7.5 -47.5q-8 -27 -34.5 -47.5t-55.5 -20.5t-45 20.5t-8 47.5z" />
<glyph unicode="&#xdd;" horiz-adv-x="1394" d="M1706 1415l-791 -778q-41 -156 -84 -318.5t-83 -318.5h-115l168 637q-88 184 -187.5 389t-185.5 389h150l307 -667q166 166 336 333.5t338 333.5h147zM1136 1493h-78l205 201h176z" />
<glyph unicode="&#xde;" horiz-adv-x="1095" d="M492 979q63 33 139 51.5t162 18.5q102 -2 182 -45t127 -115t60.5 -167t-15.5 -204q-31 -111 -95.5 -209t-151.5 -170.5t-188.5 -114.5t-205.5 -42q-86 0 -149.5 21.5t-116.5 47.5l-119 -444h-111l486 1810h112zM283 203q-8 -20 8 -40t51 -34t85 -23.5t110 -11.5 q78 2 156.5 36t146 91.5t119 133t73.5 161.5q23 84 12.5 160t-47 133t-97 91t-138.5 34q-55 0 -106.5 -8t-93.5 -21.5t-72.5 -32t-43.5 -36.5z" />
<glyph unicode="&#xdf;" horiz-adv-x="1064" d="M557 1296l-131 -493h342q55 2 109.5 21.5t98.5 53t76.5 77.5t47.5 98q12 47 4 90t-36 75.5t-71 53t-98 24.5h-342zM117 -344h-113l469 1749h455q78 -2 139 -30.5t100 -77t51.5 -112t-6.5 -132.5q-27 -98 -98.5 -178t-165.5 -130q84 -49 116 -141t3 -201 q-23 -80 -73 -152.5t-118.5 -126.5t-152.5 -86t-170 -34h-174l-80 107h283q61 2 121.5 26.5t111.5 64.5t87 92t52 109q14 55 5 106.5t-41.5 90.5t-87 63.5t-128.5 28.5h-307z" />
<glyph unicode="&#xe0;" horiz-adv-x="831" d="M651 0l17 63q-55 -37 -119 -59t-129 -22q-68 0 -122 24.5t-88 67.5t-45 100t5 121q18 66 60 124t99.5 101t125 68.5t135.5 25.5h225l12 48q14 53 13.5 100t-17 83t-46 57.5t-70.5 23.5q-53 0 -84 -7.5t-72 -17.5q-6 -2 -20.5 -6t-18.5 -6l-2 104q33 10 59.5 18.5t51 13.5 t52 8t64.5 3q61 -2 108.5 -30.5t75 -75.5t35 -110.5t-9.5 -135.5l-6 -22q-49 -180 -88 -324q-16 -61 -32.5 -120.5t-30 -107t-21.5 -78t-8 -32.5h-109zM784 500q-84 0 -129 1t-66.5 1h-25.5h-4q-45 0 -90 -16.5t-83 -45t-65.5 -65.5t-39.5 -80q-23 -86 27 -143.5t143 -57.5 q47 0 92 15.5t83 43t64.5 64.5t38.5 80zM606 1303h178l96 -201h-76z" />
<glyph unicode="&#xe1;" horiz-adv-x="831" d="M651 0l17 63q-55 -37 -119 -59t-129 -22q-68 0 -122 24.5t-88 67.5t-45 100t5 121q18 66 60 124t99.5 101t125 68.5t135.5 25.5h225l12 48q14 53 13.5 100t-17 83t-46 57.5t-70.5 23.5q-53 0 -84 -7.5t-72 -17.5q-6 -2 -20.5 -6t-18.5 -6l-2 104q33 10 59.5 18.5t51 13.5 t52 8t64.5 3q61 -2 108.5 -30.5t75 -75.5t35 -110.5t-9.5 -135.5l-6 -22q-49 -180 -88 -324q-16 -61 -32.5 -120.5t-30 -107t-21.5 -78t-8 -32.5h-109zM784 500q-84 0 -129 1t-66.5 1h-25.5h-4q-45 0 -90 -16.5t-83 -45t-65.5 -65.5t-39.5 -80q-23 -86 27 -143.5t143 -57.5 q47 0 92 15.5t83 43t64.5 64.5t38.5 80zM780 1102h-78l205 201h176z" />
<glyph unicode="&#xe2;" horiz-adv-x="831" d="M651 0l17 63q-55 -37 -119 -59t-129 -22q-68 0 -122 24.5t-88 67.5t-45 100t5 121q18 66 60 124t99.5 101t125 68.5t135.5 25.5h225l12 48q14 53 13.5 100t-17 83t-46 57.5t-70.5 23.5q-53 0 -84 -7.5t-72 -17.5q-6 -2 -20.5 -6t-18.5 -6l-2 104q33 10 59.5 18.5t51 13.5 t52 8t64.5 3q61 -2 108.5 -30.5t75 -75.5t35 -110.5t-9.5 -135.5l-6 -22q-49 -180 -88 -324q-16 -61 -32.5 -120.5t-30 -107t-21.5 -78t-8 -32.5h-109zM784 500q-84 0 -129 1t-66.5 1h-25.5h-4q-45 0 -90 -16.5t-83 -45t-65.5 -65.5t-39.5 -80q-23 -86 27 -143.5t143 -57.5 q47 0 92 15.5t83 43t64.5 64.5t38.5 80zM854 1376l172 -233l-90 -70l-119 166l-211 -166l-49 72z" />
<glyph unicode="&#xe3;" horiz-adv-x="831" d="M975 1126q-18 29 -44 46.5t-54 17.5q-27 0 -62 -14q-29 -16 -60.5 -23.5t-60.5 -7.5q-74 0 -131 41l58 123q43 -61 96 -62q23 0 61 15q29 14 60.5 20t60.5 6q74 0 135 -41zM657 14l17 64q-55 -37 -118.5 -59.5t-129.5 -22.5q-68 0 -122 24.5t-88 67.5t-45 100.5t5 120.5 q18 66 60.5 124.5t99.5 101.5t124.5 68.5t135.5 25.5h225l13 47q14 53 13 100t-17.5 83t-46 57.5t-70.5 23.5q-53 0 -84 -7t-72 -18q-6 -2 -20.5 -6t-18.5 -6l-2 105q33 10 59.5 18t51 13t52.5 8.5t64 3.5q61 -2 108.5 -31t75 -76t35 -110.5t-9.5 -135.5l-6 -22 q-49 -180 -88 -324q-16 -61 -32.5 -120.5t-30 -106.5t-21.5 -78t-8 -33h-109zM791 514q-84 0 -129.5 1t-67 1h-25.5h-4q-45 0 -90 -16.5t-83 -45t-65.5 -65.5t-39.5 -80q-23 -86 27.5 -143t142.5 -57q47 0 92 15t83 43t64.5 64.5t38.5 79.5z" />
<glyph unicode="&#xe4;" horiz-adv-x="831" d="M641 1278q6 27 32.5 47.5t57.5 20.5q29 0 44.5 -20.5t8.5 -47.5q-8 -29 -34.5 -49.5t-55.5 -20.5q-31 0 -46 20.5t-7 49.5zM907 1278q6 27 34 47.5t56 20.5q29 0 44.5 -20.5t9.5 -47.5q-8 -29 -35 -49.5t-55 -20.5q-29 0 -45.5 20.5t-8.5 49.5zM657 14l17 64 q-55 -37 -118.5 -59.5t-129.5 -22.5q-68 0 -122 24.5t-88 67.5t-45 100.5t5 120.5q18 66 60.5 124.5t99.5 101.5t124.5 68.5t135.5 25.5h225l13 47q14 53 13 100t-17.5 83t-46 57.5t-70.5 23.5q-53 0 -84 -7t-72 -18q-6 -2 -20.5 -6t-18.5 -6l-2 105q33 10 59.5 18t51 13 t52.5 8.5t64 3.5q61 -2 108.5 -31t75 -76t35 -110.5t-9.5 -135.5l-6 -22q-49 -180 -88 -324q-16 -61 -32.5 -120.5t-30 -106.5t-21.5 -78t-8 -33h-109zM791 514q-84 0 -129.5 1t-67 1h-25.5h-4q-45 0 -90 -16.5t-83 -45t-65.5 -65.5t-39.5 -80q-23 -86 27.5 -143t142.5 -57 q47 0 92 15t83 43t64.5 64.5t38.5 79.5z" />
<glyph unicode="&#xe6;" horiz-adv-x="1521" d="M655 61q-57 -37 -121.5 -59t-127.5 -22q-70 0 -124.5 24.5t-89 67.5t-46 100t7.5 123q18 66 60 124t99.5 101t125 67.5t136.5 24.5h216q4 12 12 27.5t14 26.5q27 111 -12 182.5t-121 75.5q-61 0 -123.5 -8.5t-124.5 -24.5v106q70 18 139.5 28.5t141.5 10.5 q88 -4 144.5 -56t72.5 -140q82 92 179 145t194 53q86 0 149.5 -40t100 -109.5t43 -163.5t-22.5 -205l-16 -61h-693l-20 -74q0 -61 15.5 -114.5t45 -93.5t72.5 -62.5t96 -22.5q31 0 69 7t76 18.5t73.5 26t66.5 26.5l18 -98q-133 -63 -280 -88q-12 -2 -25.5 -2h-27.5 q-92 0 -159 38.5t-106 110.5q-12 -47 -10 -79t27 -52h-160zM1479 567q14 76 6 141.5t-36 113.5t-72 75t-101 27q-55 0 -113.5 -27t-108.5 -74t-91 -112.5t-64 -143.5h580zM754 502h-209q-47 0 -92 -16.5t-82 -45t-63.5 -65.5t-39.5 -80q-23 -86 25.5 -143.5t142.5 -57.5 q45 0 91 15.5t84 43t66 63.5t40 79l16 57q-2 27 2 56.5t10 64.5z" />
<glyph unicode="&#xe7;" horiz-adv-x="1009" d="M569 -47q27 -10 53.5 -43t14.5 -80q-8 -29 -43 -63.5t-107 -73.5l-77 78q16 2 37.5 6t41 11t34 16.5t18.5 21.5q4 18 -2.5 29.5t-18.5 17.5t-26.5 8t-24.5 2q-4 0 -6 -1t-4 -1h-23l33 109q-82 16 -143.5 63t-97 116t-44 156t18.5 185q29 109 93 204t150 166.5 t187.5 113.5t204.5 42q104 0 186 -46t131 -126l-100 -78q-41 63 -105.5 100.5t-142.5 37.5q-80 0 -158 -33t-144.5 -88t-116.5 -131t-73 -162t-13.5 -162t46.5 -132t97.5 -89t140.5 -33q78 0 158.5 35t152.5 94l59 -78q-82 -68 -177 -110.5t-191 -52.5z" />
<glyph unicode="&#xe8;" horiz-adv-x="933" d="M512 94q41 0 86 8.5t88 21.5t83 29.5t69 34.5l16 -104q-66 -41 -155 -65.5t-169 -34.5q-10 -2 -26.5 -2h-26.5q-86 0 -151.5 37.5t-106.5 104t-54 157t9 192.5l10 37q29 109 87.5 205t134 167.5t161.5 113.5t170 42q86 0 150.5 -35.5t101.5 -101t44 -157t-21 -201.5 l-19 -64h-702q-14 -78 -5 -148.5t37.5 -122.5t77 -83t111.5 -31zM915 590q8 72 -2 133t-37.5 105t-70.5 70t-98 26t-112.5 -23.5t-108 -68t-93.5 -105.5t-69 -137h591zM604 1303h178l96 -201h-76z" />
<glyph unicode="&#xe9;" horiz-adv-x="933" d="M512 94q41 0 86 8.5t88 21.5t83 29.5t69 34.5l16 -104q-66 -41 -155 -65.5t-169 -34.5q-10 -2 -26.5 -2h-26.5q-86 0 -151.5 37.5t-106.5 104t-54 157t9 192.5l10 37q29 109 87.5 205t134 167.5t161.5 113.5t170 42q86 0 150.5 -35.5t101.5 -101t44 -157t-21 -201.5 l-19 -64h-702q-14 -78 -5 -148.5t37.5 -122.5t77 -83t111.5 -31zM915 590q8 72 -2 133t-37.5 105t-70.5 70t-98 26t-112.5 -23.5t-108 -68t-93.5 -105.5t-69 -137h591zM801 1102h-78l205 201h176z" />
<glyph unicode="&#xea;" horiz-adv-x="933" d="M512 94q41 0 86 8.5t88 21.5t83 29.5t69 34.5l16 -104q-66 -41 -155 -65.5t-169 -34.5q-10 -2 -26.5 -2h-26.5q-86 0 -151.5 37.5t-106.5 104t-54 157t9 192.5l10 37q29 109 87.5 205t134 167.5t161.5 113.5t170 42q86 0 150.5 -35.5t101.5 -101t44 -157t-21 -201.5 l-19 -64h-702q-14 -78 -5 -148.5t37.5 -122.5t77 -83t111.5 -31zM915 590q8 72 -2 133t-37.5 105t-70.5 70t-98 26t-112.5 -23.5t-108 -68t-93.5 -105.5t-69 -137h591zM827 1376l172 -233l-90 -70l-119 166l-211 -166l-49 72z" />
<glyph unicode="&#xeb;" horiz-adv-x="933" d="M512 94q41 0 86 8.5t88 21.5t83 29.5t69 34.5l16 -104q-66 -41 -155 -65.5t-169 -34.5q-10 -2 -26.5 -2h-26.5q-86 0 -151.5 37.5t-106.5 104t-54 157t9 192.5l10 37q29 109 87.5 205t134 167.5t161.5 113.5t170 42q86 0 150.5 -35.5t101.5 -101t44 -157t-21 -201.5 l-19 -64h-702q-14 -78 -5 -148.5t37.5 -122.5t77 -83t111.5 -31zM915 590q8 72 -2 133t-37.5 105t-70.5 70t-98 26t-112.5 -23.5t-108 -68t-93.5 -105.5t-69 -137h591zM606 1309q8 29 34.5 48t55.5 19t45 -19.5t8 -47.5q-8 -27 -34.5 -47.5t-55.5 -20.5t-45 20.5t-8 47.5z M872 1309q8 29 34.5 48t55.5 19t45.5 -19.5t7.5 -47.5q-8 -27 -34.5 -47.5t-55.5 -20.5t-45 20.5t-8 47.5z" />
<glyph unicode="&#xec;" horiz-adv-x="432" d="M451 1024h108l-270 -1024h-109zM348 1317h178l97 -201h-76z" />
<glyph unicode="&#xed;" horiz-adv-x="432" d="M391 1024h111l-271 -1024h-110zM455 1116h-78l205 201h176z" />
<glyph unicode="&#xee;" horiz-adv-x="362" d="M391 1024h109l-271 -1024h-108zM553 1391l172 -234l-90 -70l-119 166l-211 -166l-49 72z" />
<glyph unicode="&#xef;" horiz-adv-x="362" d="M391 1024h109l-271 -1024h-108zM360 1309q8 29 35 48t56 19t45 -19.5t8 -47.5q-8 -27 -35 -47.5t-55 -20.5q-29 0 -45.5 20.5t-8.5 47.5zM549 1309q8 29 33.5 48t56.5 19q29 0 45 -19.5t8 -47.5q-8 -27 -34.5 -47.5t-55.5 -20.5q-31 0 -46 20.5t-7 47.5z" />
<glyph unicode="&#xf0;" horiz-adv-x="1001" d="M334 987q23 88 77 166t127.5 136.5t160.5 92t178 33.5q86 0 152.5 -33.5t108.5 -92t57 -134.5t-1 -162q-12 -66 -31.5 -140.5t-36.5 -139.5l-14 -54q-23 -82 -48.5 -158.5t-57.5 -148.5q-37 -82 -97.5 -149.5t-133.5 -115.5t-154.5 -74.5t-163.5 -26.5q-102 0 -182 50 t-123 130l124 84q31 -72 90.5 -111t135.5 -39q63 0 123.5 21.5t114 58.5t97.5 88t72 111q63 147 107 313l6 25q-76 -66 -176.5 -110t-202.5 -44q-84 0 -151.5 32t-110.5 87t-58.5 130t7.5 161zM436 977q-12 -63 -1 -118.5t44 -96.5t82 -64.5t113 -23.5q68 0 133 24.5 t120.5 67.5t95.5 100.5t58 124.5q16 63 5 119.5t-42.5 98.5t-83 66.5t-112.5 24.5q-68 0 -134.5 -26.5t-121.5 -70.5t-96.5 -103.5t-59.5 -122.5z" />
<glyph unicode="&#xf1;" horiz-adv-x="886" d="M938 1114q-16 29 -42 46.5t-52 17.5q-29 0 -62 -15q-57 -29 -123 -28q-35 0 -69.5 9t-63.5 30l60 122q18 -29 43.5 -45t50.5 -16q29 0 61 14q31 16 63 22.5t62 6.5q68 0 133 -43zM434 928q66 61 141.5 94t155.5 33q72 0 127 -30t88 -81t42 -119.5t-9 -148.5l-170 -662 h-111l174 662q14 55 9.5 104t-27.5 85t-59.5 56.5t-87.5 20.5q-45 0 -94.5 -19.5t-94.5 -51t-83 -74.5t-60 -92q-18 -66 -42 -158t-49.5 -189.5t-50 -188.5t-40.5 -155h-113l270 1024h113z" />
<glyph unicode="&#xf2;" horiz-adv-x="1079" d="M285 506q-23 -86 -14.5 -161t43 -131t93 -89t136.5 -33q76 0 150.5 33t139 89t113.5 131t72 161t14.5 162.5t-43.5 133t-92 89.5t-133 33q-78 0 -153.5 -33t-140 -89.5t-113.5 -133t-72 -162.5zM172 506q29 111 93.5 207t148.5 167.5t183 113.5t198 42q98 0 173.5 -42 t122 -113.5t57.5 -168t-18 -206.5q-29 -109 -92 -204t-147 -167t-182.5 -113.5t-196.5 -41.5t-175 41.5t-123 113.5t-58.5 167t16.5 204zM631 1303h178l96 -201h-76z" />
<glyph unicode="&#xf3;" horiz-adv-x="1079" d="M285 506q-23 -86 -14.5 -161t43 -131t93 -89t136.5 -33q76 0 150.5 33t139 89t113.5 131t72 161t14.5 162.5t-43.5 133t-92 89.5t-133 33q-78 0 -153.5 -33t-140 -89.5t-113.5 -133t-72 -162.5zM172 506q29 111 93.5 207t148.5 167.5t183 113.5t198 42q98 0 173.5 -42 t122 -113.5t57.5 -168t-18 -206.5q-29 -109 -92 -204t-147 -167t-182.5 -113.5t-196.5 -41.5t-175 41.5t-123 113.5t-58.5 167t16.5 204zM856 1102h-78l205 201h176z" />
<glyph unicode="&#xf4;" horiz-adv-x="1050" d="M285 506q-23 -86 -14.5 -161t43 -131t93 -89t136.5 -33q76 0 150.5 33t139 89t113.5 131t72 161t14.5 162.5t-43.5 133t-92 89.5t-133 33q-78 0 -153.5 -33t-140 -89.5t-113.5 -133t-72 -162.5zM172 506q29 111 93.5 207t148.5 167.5t183 113.5t198 42q98 0 173.5 -42 t122 -113.5t57.5 -168t-18 -206.5q-29 -109 -92 -204t-147 -167t-182.5 -113.5t-196.5 -41.5t-175 41.5t-123 113.5t-58.5 167t16.5 204zM887 1376l172 -233l-90 -70l-119 166l-211 -166l-49 72z" />
<glyph unicode="&#xf5;" horiz-adv-x="1050" d="M285 506q-23 -86 -14.5 -161t43 -131t93 -89t136.5 -33q76 0 150.5 33t139 89t113.5 131t72 161t14.5 162.5t-43.5 133t-92 89.5t-133 33q-78 0 -153.5 -33t-140 -89.5t-113.5 -133t-72 -162.5zM172 506q29 111 93.5 207t148.5 167.5t183 113.5t198 42q98 0 173.5 -42 t122 -113.5t57.5 -168t-18 -206.5q-29 -109 -92 -204t-147 -167t-182.5 -113.5t-196.5 -41.5t-175 41.5t-123 113.5t-58.5 167t16.5 204zM1043 1122q-35 78 -92 78q-10 0 -30 -6t-32 -10q-29 -16 -62.5 -26.5t-62.5 -10.5q-74 0 -129 49l62 137q39 -70 96 -69q12 0 28.5 6 t28.5 10q66 33 129 33q72 0 131 -47z" />
<glyph unicode="&#xf6;" horiz-adv-x="1079" d="M285 506q-23 -86 -14.5 -161t43 -131t93 -89t136.5 -33q76 0 150.5 33t139 89t113.5 131t72 161t14.5 162.5t-43.5 133t-92 89.5t-133 33q-78 0 -153.5 -33t-140 -89.5t-113.5 -133t-72 -162.5zM172 506q29 111 93.5 207t148.5 167.5t183 113.5t198 42q98 0 173.5 -42 t122 -113.5t57.5 -168t-18 -206.5q-29 -109 -92 -204t-147 -167t-182.5 -113.5t-196.5 -41.5t-175 41.5t-123 113.5t-58.5 167t16.5 204zM690 1309q8 29 34.5 48t55.5 19t45 -19.5t8 -47.5q-8 -27 -34.5 -47.5t-55.5 -20.5t-45 20.5t-8 47.5zM956 1309q8 29 34.5 48t55.5 19 t45.5 -19.5t7.5 -47.5q-8 -27 -34.5 -47.5t-55.5 -20.5t-45 20.5t-8 47.5z" />
<glyph unicode="&#xf7;" horiz-adv-x="870" d="M459 434h155l-41 -155h-155zM592 926h156l-43 -156h-156zM217 559l29 111h715l-29 -111h-715z" />
<glyph unicode="&#xf8;" horiz-adv-x="1050" d="M172 506q29 111 93.5 207t148.5 167.5t183 113.5t198 42q102 0 180 -47t125 -127l-105 -74q-37 63 -97 99.5t-134 36.5q-78 0 -153.5 -33t-140 -89.5t-114 -133t-71.5 -162.5q-33 -119 -9 -213l-104 -74q-18 68 -19 139.5t19 147.5zM1018 506q16 66 14 127t-20 117 l106 73q27 -72 31 -151.5t-19 -165.5q-29 -109 -92 -204t-147 -167t-182.5 -113.5t-196.5 -41.5q-111 0 -193.5 53t-128.5 145l101 74q37 -74 101.5 -117t150.5 -43q76 0 150.5 33t139 89t113.5 131t72 161z" />
<glyph unicode="&#xf9;" horiz-adv-x="921" d="M729 109q-66 -57 -142.5 -92t-154.5 -35q-72 0 -127 29.5t-87 81.5t-41 121t11 148l170 662h109l-172 -662q-12 -55 -7 -103t27.5 -84t60.5 -57.5t89 -21.5q45 0 94 19.5t93 52.5t80 76t56 90l185 690h110l-272 -1024h-109zM555 1303h178l96 -201h-76z" />
<glyph unicode="&#xfa;" horiz-adv-x="921" d="M729 109q-66 -57 -142.5 -92t-154.5 -35q-72 0 -127 29.5t-87 81.5t-41 121t11 148l170 662h109l-172 -662q-12 -55 -7 -103t27.5 -84t60.5 -57.5t89 -21.5q45 0 94 19.5t93 52.5t80 76t56 90l185 690h110l-272 -1024h-109zM747 1102h-78l205 201h176z" />
<glyph unicode="&#xfb;" horiz-adv-x="921" d="M729 109q-66 -57 -142.5 -92t-154.5 -35q-72 0 -127 29.5t-87 81.5t-41 121t11 148l170 662h109l-172 -662q-12 -55 -7 -103t27.5 -84t60.5 -57.5t89 -21.5q45 0 94 19.5t93 52.5t80 76t56 90l185 690h110l-272 -1024h-109zM821 1376l172 -233l-90 -70l-119 166 l-211 -166l-49 72z" />
<glyph unicode="&#xfc;" horiz-adv-x="921" d="M729 109q-66 -57 -142.5 -92t-154.5 -35q-72 0 -127 29.5t-87 81.5t-41 121t11 148l170 662h109l-172 -662q-12 -55 -7 -103t27.5 -84t60.5 -57.5t89 -21.5q45 0 94 19.5t93 52.5t80 76t56 90l185 690h110l-272 -1024h-109zM600 1309q8 29 34.5 48t55.5 19t45 -19.5 t8 -47.5q-8 -27 -34.5 -47.5t-55.5 -20.5t-45 20.5t-8 47.5zM866 1309q8 29 34.5 48t55.5 19t45.5 -19.5t7.5 -47.5q-8 -27 -34.5 -47.5t-55.5 -20.5t-45 20.5t-8 47.5z" />
<glyph unicode="&#xfd;" horiz-adv-x="1095" d="M41 -279q53 -18 107.5 -11t112.5 48t121.5 121t135.5 207q-35 236 -69.5 475.5t-67.5 474.5h117l108 -815q133 201 270.5 407t270.5 408h121l-648 -958l2 2q-37 -59 -74.5 -116.5t-76.5 -117.5q-37 -59 -85 -104t-100.5 -77t-105.5 -48t-102 -16q-45 0 -82 12zM876 1102 h-78l205 201h176z" />
<glyph unicode="&#xfe;" horiz-adv-x="1058" d="M489 973q63 31 138 49t161 18q102 -2 180.5 -44t126.5 -113.5t61 -166.5t-15 -202q-31 -111 -95.5 -208t-150.5 -168.5t-187.5 -113.5t-203.5 -42q-86 0 -148.5 21.5t-115.5 47.5l-119 -442h-111l484 1798h112zM283 201q-8 -20 8 -39t51 -33t84 -23.5t109 -11.5 q78 2 155.5 35t145 90t118 132t72.5 161q23 82 12.5 157.5t-47.5 132t-96 90.5t-137 34q-109 0 -198 -29t-116 -68z" />
<glyph unicode="&#xff;" horiz-adv-x="1095" d="M41 -279q53 -18 107.5 -11t112.5 48t121.5 121t135.5 207q-35 236 -69.5 475.5t-67.5 474.5h117l108 -815q133 201 270.5 407t270.5 408h121l-648 -958l2 2q-37 -59 -74.5 -116.5t-76.5 -117.5q-37 -59 -85 -104t-100.5 -77t-105.5 -48t-102 -16q-45 0 -82 12zM709 1309 q8 29 34.5 48t55.5 19t45 -19.5t8 -47.5q-8 -27 -34.5 -47.5t-55.5 -20.5t-45 20.5t-8 47.5zM975 1309q8 29 34.5 48t55.5 19t45.5 -19.5t7.5 -47.5q-8 -27 -34.5 -47.5t-55.5 -20.5t-45 20.5t-8 47.5z" />
<glyph unicode="&#x152;" horiz-adv-x="2162" d="M1194 180q-115 -96 -242 -147t-260 -51q-129 0 -230.5 55t-163.5 152.5t-78.5 230.5t24.5 287q39 150 125 279.5t199.5 227t245.5 153.5t265 56q174 0 290 -78.5t163 -228.5l80 299h829l-31 -108h-716l-133 -498h612l-29 -113h-612l-158 -583h717l-27 -113h-829l76 293 q-29 -31 -56.5 -58.5t-60.5 -54.5zM1372 1149q-49 78 -132 119t-191 41q-111 0 -219.5 -47.5t-201.5 -128t-165 -191.5t-105 -235q-35 -127 -23.5 -239t60.5 -195t133 -130t195 -47q106 0 210.5 44t196 120t164 177.5t113.5 215.5l29 105q23 119 5 218t-69 173z" />
<glyph unicode="&#x153;" horiz-adv-x="1802" d="M1360 92q31 0 73 9.5t85 22.5t83.5 28.5t69.5 27.5l17 -98q-66 -33 -149 -59.5t-157 -38.5q-12 -2 -25.5 -2h-27.5q-127 0 -208 78.5t-101 205.5q-47 -61 -104.5 -114.5t-123 -91t-135 -59t-139.5 -21.5q-98 0 -175 41.5t-123 113.5t-58 167t16 204q29 111 93.5 207 t148.5 167.5t183 113.5t198 42q137 0 229 -79.5t119 -204.5q43 61 95 113.5t109.5 91t117 60t118.5 21.5q86 0 149.5 -40t100.5 -109.5t43 -163.5t-22 -205l-17 -61h-704q-16 -78 -7 -144.5t37.5 -115.5t78 -78t112.5 -29zM289 506q-23 -86 -14.5 -161t44 -131t94 -89 t136.5 -33q74 0 148.5 33t139 89t113.5 131t72 161t14.5 162.5t-43.5 133t-92 89.5t-131 33q-78 0 -153.5 -33t-141 -89.5t-114.5 -133t-72 -162.5zM1761 567q14 76 6 141.5t-35.5 113.5t-71.5 75t-101 27q-55 0 -111.5 -28t-108 -76t-95.5 -113.5t-75 -139.5h592z" />
<glyph unicode="&#x178;" horiz-adv-x="1394" d="M1706 1415l-791 -778q-41 -156 -84 -318.5t-83 -318.5h-115l168 637q-88 184 -187.5 389t-185.5 389h150l307 -667q166 166 336 333.5t338 333.5h147zM889 1520q8 29 34.5 48t55.5 19t45 -19.5t8 -47.5q-8 -27 -34.5 -47.5t-55.5 -20.5t-45 20.5t-8 47.5zM1155 1520 q8 29 34.5 48t55.5 19t45.5 -19.5t7.5 -47.5q-8 -27 -34.5 -47.5t-55.5 -20.5t-45 20.5t-8 47.5z" />
<glyph unicode="&#x2c6;" horiz-adv-x="548" d="M647 1376l172 -233l-90 -70l-119 166l-211 -166l-49 72z" />
<glyph unicode="&#x2dc;" horiz-adv-x="684" d="M844 1122q-35 78 -92 78q-10 0 -30 -6t-32 -10q-29 -16 -62.5 -26.5t-62.5 -10.5q-74 0 -129 49l62 137q39 -70 96 -69q12 0 28.5 6t28.5 10q66 33 129 33q72 0 131 -47z" />
<glyph unicode="&#x2000;" horiz-adv-x="883" />
<glyph unicode="&#x2001;" horiz-adv-x="1767" />
<glyph unicode="&#x2002;" horiz-adv-x="883" />
<glyph unicode="&#x2003;" horiz-adv-x="1767" />
<glyph unicode="&#x2004;" horiz-adv-x="589" />
<glyph unicode="&#x2005;" horiz-adv-x="441" />
<glyph unicode="&#x2006;" horiz-adv-x="294" />
<glyph unicode="&#x2007;" horiz-adv-x="294" />
<glyph unicode="&#x2008;" horiz-adv-x="220" />
<glyph unicode="&#x2009;" horiz-adv-x="353" />
<glyph unicode="&#x200a;" horiz-adv-x="98" />
<glyph unicode="&#x2010;" horiz-adv-x="862" d="M219 545l29 110h715l-29 -110h-715z" />
<glyph unicode="&#x2011;" horiz-adv-x="862" d="M219 545l29 110h715l-29 -110h-715z" />
<glyph unicode="&#x2012;" horiz-adv-x="862" d="M219 545l29 110h715l-29 -110h-715z" />
<glyph unicode="&#x2013;" horiz-adv-x="851" d="M219 545l29 110h715l-29 -110h-715z" />
<glyph unicode="&#x2014;" horiz-adv-x="1089" d="M221 545l29 110h942l-29 -110h-942z" />
<glyph unicode="&#x2018;" horiz-adv-x="307" d="M524 1112l-125 -51l-24 135l155 211l31 -18l-59 -156z" />
<glyph unicode="&#x2019;" horiz-adv-x="325" d="M477 1395l125 10l-20 -143l-209 -172l-21 28l103 139z" />
<glyph unicode="&#x201a;" horiz-adv-x="352" d="M182 156h125l-39 -148l-225 -153l-12 34l116 129z" />
<glyph unicode="&#x201c;" horiz-adv-x="446" d="M662 1257q6 -35 13 -70.5t15 -68.5l-35 -28l-114 172l53 143l121 -10zM516 1257q6 -35 13.5 -70.5t15.5 -68.5l-35 -28l-115 172l54 143l120 -10z" />
<glyph unicode="&#x201d;" horiz-adv-x="485" d="M477 1395l125 10l-20 -143l-209 -172l-19 28l103 139zM623 1395l125 10l-21 -143l-209 -172l-18 28l102 139z" />
<glyph unicode="&#x201e;" horiz-adv-x="473" d="M158 160h125l-39 -146l-217 -155l-15 32l113 132zM309 158h121l-39 -148l-221 -155l-10 34l112 131z" />
<glyph unicode="&#x2022;" horiz-adv-x="428" d="M283 778q8 27 26.5 52.5t43 45t52 31t56.5 11.5q53 0 85 -42t15 -98q-6 -25 -24.5 -49t-43 -42.5t-52 -30t-54.5 -11.5q-55 0 -86.5 41t-17.5 92z" />
<glyph unicode="&#x2026;" horiz-adv-x="890" d="M117 156h155l-39 -156h-155zM406 156h155l-39 -156h-155zM694 156h156l-39 -156h-156z" />
<glyph unicode="&#x202f;" horiz-adv-x="353" />
<glyph unicode="&#x2039;" horiz-adv-x="720" d="M856 1018l57 -78l-542 -432q76 -102 156.5 -211t158.5 -211l-100 -82l-373 504z" />
<glyph unicode="&#x203a;" horiz-adv-x="702" d="M799 508l-641 -504l-58 82l543 422q-78 106 -157.5 216t-157.5 216l104 78z" />
<glyph unicode="&#x205f;" horiz-adv-x="441" />
<glyph unicode="&#x20ac;" horiz-adv-x="1525" d="M1503 217q-127 -104 -273.5 -169.5t-295.5 -65.5q-119 0 -214 39.5t-161.5 112.5t-99.5 171t-29 215h-215l29 113h200q2 4 1 11t1 11q2 10 4.5 21.5t4.5 17.5q8 27 16 51.5t16 45.5v4h-200l30 112h224q61 111 148 204t189.5 160.5t214 104.5t224.5 37q150 0 261.5 -65.5 t182.5 -169.5l-102 -82q-61 94 -152.5 148t-220.5 54q-90 0 -179 -28.5t-171 -80.5t-153.5 -124t-123.5 -158h676l-30 -112h-703q-10 -23 -18.5 -47.5t-16.5 -53.5l-4 -16t-2 -19q-4 -10 -3 -13t-3 -13h707l-29 -113h-682q2 -90 32.5 -168t85 -134t130 -89t166.5 -33 q129 0 249.5 56.5t233.5 154.5z" />
<glyph unicode="&#x2122;" horiz-adv-x="854" d="M518 956h-92l92 347h-119l23 86h328l-23 -86h-117zM1110 1389l-115 -433h-88l64 238q-31 -35 -56.5 -65.5t-35.5 -41.5h-50l-32 107l-64 -238h-90l115 433h73l58 -175q23 29 45 54.5t47 54.5q12 16 29.5 33.5t27.5 32.5h72z" />
<glyph unicode="&#x25fc;" horiz-adv-x="1024" d="M0 1024h1024v-1024h-1024v1024z" />
<glyph unicode="&#xfb01;" horiz-adv-x="1034" d="M944 1294q-25 6 -44 7.5t-36 1.5q-41 -2 -83 -22.5t-76.5 -56.5t-62.5 -83t-42 -101l-10 -39h260l-266 -1001h-109l236 889h-152q-59 -217 -118.5 -444.5t-116.5 -444.5h-107l236 889h-150l31 112h147q0 6 4 23q2 8 4 14l9 25q20 72 62 135.5t96.5 111.5t116 75.5 t120.5 27.5q29 0 53.5 -1t61.5 -5z" />
<glyph unicode="&#xfb02;" horiz-adv-x="1003" d="M1004 1413l-375 -1413h-115l236 889h-191q-59 -217 -118.5 -444.5t-116.5 -444.5h-107l236 889h-150l31 112h147l6 37l9 25q23 74 64.5 136.5t96 109.5t114.5 74.5t122 29.5h111zM590 1001h190l80 302q-41 -4 -81 -25t-75.5 -56.5t-62.5 -81.5t-41 -100zM864 1303h10 l-10 14l-4 -14h4z" />
</font>
</defs>
</svg>
