<?xml version="1.0"?><svg width="640" height="480" xmlns="http://www.w3.org/2000/svg" xmlns:xlink="http://www.w3.org/1999/xlink">
 <defs>
  <linearGradient y2="0.490653" x2="0.792356" y1="0.490653" x1="0.083568" id="linearGradient3292" xlink:href="#linearGradient3274"/>
  <linearGradient id="linearGradient3274">
   <stop stop-color="#a02c2c" id="stop3276" offset="0"/>
   <stop stop-color="#a02c2c" stop-opacity="0" id="stop3278" offset="1"/>
  </linearGradient>
  <linearGradient y2="0.490601" x2="0.792356" y1="0.490601" x1="0.083568" id="linearGradient3294" xlink:href="#linearGradient3274"/>
 </defs>
 <metadata id="metadata2652">image/svg+xml</metadata>
 <g>
  <title>Layer 1</title>
  <g id="layer1">
   <g id="g3631">
    <g id="g3282">
     <path fill="#e9afaf" fill-rule="evenodd" stroke="#000000" stroke-width="1px" id="path2385" d="m14.673838,47.962921l30.478189,-0.841164l5.132652,361.964699c0,0 -45.876119,10.375946 -40.743439,-5.248383c5.132625,-15.62439 6.86998,-352.309044 5.132597,-355.875153z"/>
     <path fill="url(#linearGradient3294)" fill-rule="evenodd" stroke="#000000" stroke-width="1px" d="m14.673838,47.962921l30.478189,-0.841164l5.132652,361.964699c0,0 -45.876119,10.375946 -40.743439,-5.248383c5.132625,-15.62439 6.86998,-352.309044 5.132597,-355.875153z" id="path2387"/>
    </g>
    <path fill="none" fill-rule="evenodd" stroke="#000000" stroke-width="3" stroke-miterlimit="4" d="m31.91715,80.724335c128.55369,10.839592 236.684595,23.227753 442.258509,-3.302315c45.693542,-5.896904 63.971436,-3.362518 95.822693,-24.767307c39.358948,-26.450073 44.932068,-2.847485 39.311829,19.813839c-8.969543,36.166801 -8.175964,73.789017 -4.91394,110.627365c5.3573,60.499695 15.934875,62.86972 -73.709778,67.697296c-65.222534,3.512405 -190.181946,10.978394 -265.355072,-1.651123c-40.931305,-6.876678 -54.878098,-9.173676 -105.65065,-14.860382c-33.611496,-3.764603 -108.010635,-24.767319 -125.306606,-24.767319c-17.679728,0 -2.456984,-22.793076 -2.456984,-34.67424c0,-25.881729 6.502287,-43.130417 0,-69.348488c-3.74556,-15.102623 -4.547422,-23.239349 9.827959,-28.069633" id="path3296"/>
    <path fill="none" fill-rule="evenodd" stroke="#000000" stroke-width="0.95306784px" id="path3298" d="m31.875868,86.953323c128.572222,9.844589 236.718645,21.095612 442.322222,-2.999184c45.700104,-5.355621 63.980621,-3.053879 95.836456,-22.493858c39.364563,-24.022167 44.938477,-2.586102 39.317505,17.995079c-8.970947,32.84697 -8.177185,67.015739 -4.914734,100.472603c5.358032,54.946259 15.937195,57.098755 -73.720337,61.4832c-65.231903,3.190002 -190.20929,9.970657 -265.39328,-1.499603c-40.937149,-6.245422 -54.885986,-8.331573 -105.665833,-13.496277c-33.616302,-3.419052 -108.026196,-22.493881 -125.324661,-22.493881c-17.682274,0 -2.457338,-20.700836 -2.457338,-31.491394c0,-23.505981 6.503218,-39.171387 0,-62.982819c-3.74608,-13.716324 -4.548079,-21.106148 9.829386,-25.493042"/>
    <path fill="none" fill-rule="evenodd" stroke="#000000" stroke-width="0.88662988px" d="m31.817429,95.257156c128.598434,8.518158 236.766983,18.253296 442.412399,-2.595078c45.709381,-4.634026 63.993683,-2.642403 95.856049,-19.463127c39.37262,-20.785507 44.947754,-2.237656 39.325562,15.570488c-8.972839,28.421295 -8.178955,57.986313 -4.915771,86.935318c5.359131,47.54303 15.940491,49.405502 -73.735352,53.199188c-65.245239,2.760223 -190.248108,8.627243 -265.447388,-1.297501c-40.945572,-5.403992 -54.897263,-7.209045 -105.687454,-11.677887c-33.623161,-2.958389 -108.04821,-19.463135 -125.350182,-19.463135c-17.685898,0 -2.457863,-17.911682 -2.457863,-27.248383c0,-20.338867 6.504559,-33.893555 0,-54.496742c-3.746849,-11.86824 -4.548983,-18.26239 9.831409,-22.05822" id="path3300"/>
    <path fill="none" fill-rule="evenodd" stroke="#000000" stroke-width="0.81478721px" id="path3302" d="m31.754246,103.558952c128.626751,7.19207 236.819118,15.411644 442.509914,-2.191086c45.719482,-3.912605 64.007751,-2.231041 95.877197,-16.433159c39.381226,-17.549637 44.957581,-1.88929 39.334167,13.146515c-8.974731,23.996719 -8.180664,48.959106 -4.916809,73.401382c5.360352,40.141602 15.943909,41.714127 -73.751709,44.917252c-65.259521,2.330475 -190.290009,7.284149 -265.505829,-1.09552c-40.954605,-4.562714 -54.909302,-6.086761 -105.710724,-9.859894c-33.630577,-2.497849 -108.072014,-16.433136 -125.377831,-16.433136c-17.689758,0 -2.458378,-15.123245 -2.458378,-23.006424c0,-17.172531 6.505981,-28.617081 0,-46.012802c-3.747671,-10.020599 -4.550001,-15.419312 9.833553,-18.624214"/>
    <path fill="none" fill-rule="evenodd" stroke="#000000" stroke-width="0.73596245px" d="m31.684921,111.85807c128.657867,5.866417 236.876389,12.570923 442.616898,-1.787224c45.730591,-3.191422 64.023254,-1.819794 95.900391,-13.404121c39.390686,-14.314827 44.968384,-1.541061 39.343628,10.723312c-8.976868,19.573532 -8.182617,39.934761 -4.917908,59.871773c5.361511,32.742554 15.947754,34.025223 -73.769531,36.637924c-65.275391,1.900925 -190.33606,5.941528 -265.570129,-0.893585c-40.964432,-3.721695 -54.922546,-4.964828 -105.736252,-8.04248c-33.638687,-2.03743 -108.098137,-13.404129 -125.408112,-13.404129c-17.694065,0 -2.458984,-12.335648 -2.458984,-18.765778c0,-14.007263 6.507519,-23.34227 0,-37.531555c-3.748575,-8.173576 -4.551092,-12.577179 9.835934,-15.191338" id="path3304"/>
    <path fill="none" fill-rule="evenodd" stroke="#000000" stroke-width="0.64761853px" id="path3306" d="m31.607239,120.153587c128.692703,4.541313 236.940521,9.731438 442.736816,-1.383522c45.742859,-2.470558 64.040588,-1.408775 95.926331,-10.376457c39.401367,-11.081429 44.980652,-1.192955 39.354309,8.301155c-8.979309,15.152328 -8.184814,30.914413 -4.91925,46.348083c5.363098,25.346741 15.952026,26.339691 -73.789551,28.362244c-65.292999,1.471542 -190.387604,4.599442 -265.642029,-0.691757c-40.97554,-2.881027 -54.937408,-3.843369 -105.764893,-6.225876c-33.647835,-1.577194 -108.12743,-10.376404 -125.442093,-10.376404c-17.698858,0 -2.459641,-9.549332 -2.459641,-14.527008c0,-10.843323 6.509274,-18.069809 0,-29.054031c-3.749617,-6.327354 -4.552328,-9.73629 9.838562,-11.759949"/>
    <path fill="none" fill-rule="evenodd" stroke="#000000" stroke-width="0.54516476px" d="m31.517109,128.44371c128.73312,3.217087 237.014965,6.893784 442.875866,-0.980103c45.757233,-1.750145 64.060699,-0.997948 95.956512,-7.350693c39.413757,-7.850128 44.99469,-0.845108 39.366638,5.880577c-8.982178,10.73394 -8.187439,21.899849 -4.920837,32.833107c5.364746,17.955734 15.957153,18.659134 -73.812622,20.091919c-65.313599,1.042465 -190.447449,3.25827 -265.725525,-0.490051c-40.988419,-2.040924 -54.954666,-2.722641 -105.798111,-4.4104c-33.658356,-1.11731 -108.161392,-7.350723 -125.481483,-7.350723c-17.704426,0 -2.460438,-6.764755 -2.460438,-10.290955c0,-7.681458 6.51136,-12.80069 0,-20.58197c-3.750793,-4.482315 -4.553753,-6.897202 9.841694,-8.330811" id="path3308"/>
    <path fill="none" fill-rule="evenodd" stroke="#000000" stroke-width="0.41841632px" id="path3310" d="m31.405655,136.724594c128.783127,1.894348 237.107071,4.059311 443.047928,-0.577118c45.774994,-1.030548 64.085541,-0.587631 95.993683,-4.328354c39.429138,-4.622391 45.012268,-0.497604 39.382019,3.462692c-8.985657,6.320511 -8.190613,12.895386 -4.922729,19.333267c5.366821,10.572952 15.963318,10.987137 -73.84137,11.830826c-65.338928,0.613831 -190.521393,1.918549 -265.828735,-0.288589c-41.004272,-1.201752 -54.976044,-1.603165 -105.839188,-2.59697c-33.671478,-0.657928 -108.203403,-4.328354 -125.530239,-4.328354c-17.711277,0 -2.461369,-3.983322 -2.461369,-6.059677c0,-4.523087 6.513855,-7.537491 0,-12.119385c-3.752275,-2.639328 -4.555534,-4.061295 9.845474,-4.905457"/>
    <path fill="none" fill-rule="evenodd" stroke="#000000" stroke-width="0.27113664px" d="m44.173336,145.416977c126.780247,0.79509 232.797855,1.703766 443.87125,-0.242233c46.915863,-0.432556 64.752899,-0.246643 100.742645,-1.816727c44.472839,-1.94017 45.573242,-0.208878 35.634155,1.453384c-15.862366,2.652878 -22.216248,5.412537 -25.947327,8.11467c-6.127502,4.43779 4.023254,4.611618 -86.738434,4.965729c-66.03537,0.257645 -192.691833,0.805298 -265.632431,-0.121109c-39.715729,-0.504425 -53.257111,-0.672897 -103.062088,-1.090042c-32.97094,-0.276123 -103.544712,-1.816727 -120.879221,-1.816727c-17.719089,0 1.868929,-1.671906 4.126688,-2.543396c4.918322,-1.898468 14.712784,-3.163696 13.178276,-5.086823c-0.883987,-1.107803 -0.141418,-1.704666 15.183876,-2.05896" id="path3312"/>
    <path fill="none" fill-rule="evenodd" stroke="#000000" stroke-width="1px" d="m249.795761,93.559898c0.819,4.403084 11.646561,18.636436 12.465561,23.03952c4.914154,26.419624 33.819427,66.919884 51.596802,90.813499c11.472748,15.419876 31.324127,37.044662 47.78064,48.103836" id="path3316"/>
    <path fill="none" fill-rule="evenodd" stroke="#000000" stroke-width="1px" id="path3318" d="m42.695702,82.177483c0.819,4.403069 1.637993,5.701859 2.456985,10.104935c4.914211,26.41964 33.819458,66.919884 51.596855,90.813499c11.472717,15.419861 24.39505,36.009888 40.851639,47.069061"/>
    <path fill="none" fill-rule="evenodd" stroke="#000000" stroke-width="1px" d="m309.590698,92.352699c0.819031,4.403076 9.336914,26.397156 10.155914,30.800247c4.914154,26.419624 36.899017,65.36776 54.676392,89.26136c11.472748,15.419846 22.855286,31.870819 39.311829,42.930008" id="path3320"/>
    <path fill="none" fill-rule="evenodd" stroke="#000000" stroke-width="1px" id="path3322" d="m75.031364,83.90213c0.819,4.403084 1.637985,8.80616 2.456985,13.209244c4.914238,26.419624 33.819427,66.919891 51.596855,90.813507c11.472717,15.419846 24.39505,34.975113 40.851624,46.034286"/>
    <path fill="none" fill-rule="evenodd" stroke="#000000" stroke-width="1px" d="m321.647644,92.084412c-5.733032,6.604614 -14.545593,30.800255 -20.278564,37.404861c-22.806244,26.273712 -40.817078,13.459869 -60.916229,58.065079c-4.628067,10.270721 -7.853668,44.195526 -11.515106,54.037781" id="path3324"/>
    <path fill="none" fill-rule="evenodd" stroke="#000000" stroke-width="1px" id="path3326" d="m363.465515,88.98011c-3.059875,6.604607 -9.199341,21.487358 -12.259216,28.091972c-12.172363,26.273712 -43.888,43.587067 -49.887756,70.999664c-7.875977,35.984894 4.811188,53.508408 5.13327,63.350677"/>
    <path fill="none" fill-rule="evenodd" stroke="#000000" stroke-width="1px" d="m117.369789,86.910583c-5.733017,6.604614 -13.77565,15.278763 -19.508621,21.883377c-22.806282,26.273712 -51.595585,49.159286 -71.694767,76.173477" id="path3328"/>
    <path fill="none" fill-rule="evenodd" stroke="#000000" stroke-width="1px" id="path3330" d="m407.7276,84.841042c-1.723297,6.604607 -5.756287,17.348305 -7.479614,23.952919c-6.855438,26.273712 -31.820984,43.985458 -35.519806,70.999649c-1.314209,9.598373 -1.944458,64.373444 0.369354,74.215698"/>
    <path fill="none" fill-rule="evenodd" stroke="#000000" stroke-width="1px" d="m79.131607,86.565628c-5.732994,6.604614 -39.951893,49.426041 -45.684853,56.030655" id="path3332"/>
    <path fill="none" fill-rule="evenodd" stroke="#000000" stroke-width="1px" id="path3334" d="m476.714966,76.907784c-2.224579,6.604622 -4.449127,8.035416 -6.673615,14.640022c-8.849304,26.27372 -68.227417,66.043777 -55.882019,162.289017"/>
    <path fill="none" fill-rule="evenodd" stroke="#000000" stroke-width="1px" d="m543.527161,65.895874c4.914185,26.419632 36.12915,77.267563 53.906494,101.161194" id="path3336"/>
    <path fill="none" fill-rule="evenodd" stroke="#000000" stroke-width="1px" id="path3338" d="m33.104881,147.223984c11.472748,15.419846 39.7929,62.913818 56.24942,73.972992"/>
    <path fill="none" fill-rule="evenodd" stroke="#000000" stroke-width="1px" d="m208.221237,93.04245c0.819,4.403084 6.257339,13.980003 7.07634,18.383087c4.914169,26.419617 33.819427,66.919861 51.596802,90.813477c11.472717,15.419861 40.562744,40.148972 57.019257,51.20813" id="path3340"/>
    <path fill="none" fill-rule="evenodd" stroke="#000000" stroke-width="1px" id="path3359" d="m452.278717,80.107948c0.819,4.403076 1.63797,8.80616 2.457001,13.209236c4.914215,26.419617 33.819458,66.919876 51.596832,90.813507c11.472687,15.419846 45.951996,52.566147 62.408539,63.625305"/>
    <path fill="none" fill-rule="evenodd" stroke="#000000" stroke-width="1px" d="m169.728683,90.800713c0.818985,4.403061 3.947647,13.979973 4.766647,18.383057c4.914246,26.419624 33.819427,66.919884 51.596863,90.813484c11.472702,15.419876 38.253082,40.148956 54.709595,51.208145" id="path3361"/>
    <path fill="none" fill-rule="evenodd" stroke="#000000" stroke-width="1px" id="path3363" d="m145.348587,90.110878c0.819,4.403061 3.177795,17.08429 3.99678,21.487366c4.914246,26.419624 33.819443,66.919868 51.596863,90.813499c11.472717,15.419861 22.855301,31.870819 39.311829,42.930023"/>
    <path fill="none" fill-rule="evenodd" stroke="#000000" stroke-width="1px" d="m117.118973,88.558578c0.818993,4.403084 -4.521111,4.149712 -3.70211,8.552795c4.914238,26.419624 33.819435,66.919891 51.59684,90.813507c11.472748,15.419846 24.395081,40.148956 40.851654,51.20813" id="path3365"/>
    <path fill="none" fill-rule="evenodd" stroke="#000000" stroke-width="1px" id="path3367" d="m595.985474,52.245934c-5.732971,6.604614 -36.872314,21.487366 -42.605225,28.09198c-22.806335,26.273712 -31.578491,53.298332 -51.677704,80.312508c-7.141388,9.598373 -21.711609,80.412369 -25.373077,90.254623"/>
    <path fill="none" fill-rule="evenodd" stroke="#000000" stroke-width="1px" d="m146.882568,90.01487c-5.732941,6.604607 -3.767059,12.174477 -9.500031,18.779091c-22.80629,26.273712 -58.524582,43.985458 -78.623768,70.999649c-7.14138,9.598373 -2.464386,21.948044 -6.125816,31.790314" id="path3369"/>
    <path fill="none" fill-rule="evenodd" stroke="#000000" stroke-width="1px" id="path3371" d="m284.180695,92.601784c-5.732971,6.604614 -15.315399,9.587563 -21.04837,16.192177c-22.806274,26.273712 -66.769821,41.866364 -78.623764,70.999649c-10.220963,25.119858 1.385056,45.230286 -2.276398,55.072556"/>
    <path fill="none" fill-rule="evenodd" stroke="#000000" stroke-width="1px" d="m194.359512,91.049652c-5.732956,6.604614 -6.076767,11.657089 -11.809692,18.261696c-22.806259,26.273705 -58.524574,43.985451 -78.623734,70.999641c-7.141411,9.598373 -5.543983,30.226181 -9.205414,40.068451" id="path3373"/>
    <path fill="none" fill-rule="evenodd" stroke="#000000" stroke-width="1px" id="path3375" d="m232.084396,93.80899c-5.732956,6.604607 -9.926178,5.965881 -15.659134,12.570496c-22.80629,26.273697 -58.524612,43.985458 -78.623764,70.999634c-7.141403,9.598373 -0.924637,40.573837 -4.586075,50.416107"/>
    <path fill="none" fill-rule="evenodd" stroke="#000000" stroke-width="1px" d="m53.211742,81.564232c-5.732986,6.604607 -16.855202,20.969994 -22.58816,27.574608" id="path3377"/>
    <path fill="none" fill-rule="evenodd" stroke="#000000" stroke-width="1px" id="path3379" d="m354.757172,89.938217c0.819,4.403084 27.81424,50.196823 28.633209,54.599884c4.914185,26.419632 34.589355,42.08551 52.36676,65.979111c11.472687,15.419876 22.855286,31.870834 39.311829,42.930023"/>
    <path fill="none" fill-rule="evenodd" stroke="#000000" stroke-width="1px" d="m402.490051,85.626678c0.819031,4.403076 20.885193,37.262207 21.704224,41.665283c4.914215,26.419632 33.049591,53.467926 50.826965,77.361526c11.472748,15.419846 29.784271,34.457764 46.240845,45.516953" id="path3381"/>
    <path fill="none" fill-rule="evenodd" stroke="#000000" stroke-width="1px" id="path3383" d="m498.987793,74.934044c0.819031,4.403076 1.638,5.701866 2.457031,10.104942c4.914215,26.419632 33.819397,66.919876 51.596802,90.813492c11.472717,15.419861 27.47467,37.044662 43.931213,48.103821"/>
    <g id="g3286">
     <path fill="#e9afaf" fill-rule="evenodd" stroke="#000000" stroke-width="1px" d="m595.897766,5.483684l32.217529,-1.083825l5.425598,466.385725c0,0 -48.494263,13.369232 -43.068604,-6.762482c5.425537,-20.131775 7.261963,-453.94455 5.425476,-458.539418z" id="path3288"/>
     <path fill="url(#linearGradient3292)" fill-rule="evenodd" stroke="#000000" stroke-width="1px" id="path3290" d="m596.108337,4.351469l32.006958,0.04839l5.425598,466.385725c0,0 -48.494263,13.369232 -43.068604,-6.762482c5.425537,-20.131775 7.472534,-455.076775 5.636047,-459.671633z"/>
    </g>
   </g>
  </g>
 </g>
</svg>